{
.formatVersion = 3;
axes = (
{
name = Weight;
tag = wght;
}
);
classes = (
{
code = "A Aacute Abreve Abreveacute Abrevedotbelow Abrevegrave Abrevehoi Abrevetilde Acircumflex Acircumflexacute Acircumflexdotbelow Acircumflexgrave Acircumflexhoi Acircumflextilde Adieresis Adotbelow Agrave Ahoi Amacron Aogonek Aring Atilde AE B C Cacute Ccaron Ccedilla Cdotaccent D Eth Dcaron Dcroat E Eacute Ecaron Ecircumflex Ecircumflexacute Ecircumflexdotbelow Ecircumflexgrave Ecircumflexhoi Ecircumflextilde Edieresis Edotaccent Edotbelow Egrave Ehoi Emacron Eogonek Etilde F G Gbreve Gcaron Gdotaccent Gmacron H Hbar I Iacute Icircumflex Idieresis Idotaccent Idotbelow Igrave Ihoi Imacron Iogonek Itilde J K L Lacute Lcaron Lslash M N Nacute Ncaron Ntilde O Oacute Ocircumflex Ocircumflexacute Ocircumflexdotbelow Ocircumflexgrave Ocircumflexhoi Ocircumflextilde Odieresis Odotbelow Ograve Ohoi Ohorn Ohornacute Ohorndotbelow Ohorngrave Ohornhoi Ohorntilde Ohungarumlaut Omacron Oslash Otilde OE P Thorn Q R Racute Rcaron S Sacute Scaron Scedilla Germandbls T Tbar Tcaron Tcedilla U Uacute Ucircumflex Udieresis Udotbelow Ugrave Uhoi Uhorn Uhornacute Uhorndotbelow Uhorngrave Uhornhoi Uhorntilde Uhungarumlaut Umacron Uogonek Uring Utilde V W Wacute Wcircumflex Wdieresis Wgrave X Y Yacute Ycircumflex Ydieresis Ydotbelow Ygrave Yhoi Ytilde Z Zacute Zcaron Zdotaccent";
name = Uppercase;
},
{

glyphs = (
{
glyphname = A;
layers = (
{
anchors = (
{
name = bottom;
position = "{311, 0}";
},
{
name = ogonek;
position = "{690, 0}";
},
{
name = top;
position = "{520, 740}";
}
);
layerId = "93E21930-75C2-41BF-8A43-E6E4C907605A";
shapes = (
{
closed = 1;
nodes = (
(152,0,l),
(226,124,l),
(499,124,l),
(503,0,l),
(690,0,l),
(653,740,l),
(394,740,l),
(-61,0,l)
);
},
{
closed = 1;
nodes = (
(486,561,l),
(495,288,l),
(324,288,l)
);
}
);
width = 771;
},
{
anchors = (
{
name = bottom;
position = "{275, 0}";
},
{
name = ogonek;
position = "{614, 0}";
},
{
name = top;
position = "{499, 740}";
}
);
layerId = "359D7F19-8117-4ED1-B668-DF5CE9F2FE65";
shapes = (
{
closed = 1;
nodes = (
(78,0,l),
(194,184,l),
(510,184,l),
(522,0,l),
(614,0,l),
(564,740,l),
(440,740,l),
(-29,0,l)
);
},
{
closed = 1;
nodes = (
(482,646,l),
(506,266,l),
(243,266,l)
);
}
);
width = 698;
},
{
anchors = (
{
name = bottom;
position = "{253, 0}";
},
{
name = ogonek;
position = "{569, 0}";
},
{
name = top;
position = "{487, 740}";
}
);
layerId = "E9FAC699-F089-4894-B74F-1DA0D3D12BF3";
shapes = (
{
closed = 1;
nodes = (
(33,0,l),
(175,220,l),
(517,220,l),
(533,0,l),
(569,0,l),
(511,740,l),
(467,740,l),
(-9,0,l)
);
},
{
closed = 1;
nodes = (
(480,697,l),
(513,252,l),
(194,252,l)
);
}
);
width = 654;
}
);
leftKerningGroup = A;
rightKerningGroup = A;
unicode = 65;
},
{
glyphname = Abreveacute;
layers = (
{
anchors = (
{
name = bottom;
position = "{309, 0}";
},
{
name = ogonek;
position = "{687, 0}";
},
{
name = top;
position = "{367, 1233}";
}
);
layerId = "93E21930-75C2-41BF-8A43-E6E4C907605A";
shapes = (
{
closed = 1;
nodes = (
(755,802,o),
(761,910,o),
(761,910,c),
(642,910,l),
(642,910,o),
(627,868,o),
(553,868,cs),
(482,868,o),
(492,910,o),
(492,910,c),
(373,910,l),
(373,910,o),
(368,802,o),
(561,802,cs)
);
},
{
closed = 1;
nodes = (
(750,1049,l),
(580,1049,l),
(520,933,l),
(653,932,l)
);
},
{
closed = 1;
nodes = (
(152,0,l),
(226,124,l),
(499,124,l),
(503,0,l),
(690,0,l),
(653,740,l),
(394,740,l),
(-61,0,l)
);
},
{
closed = 1;
nodes = (
(486,561,l),
(495,288,l),
(324,288,l)
);
}
);
width = 764;
},
{
anchors = (
{
name = bottom;
position = "{272, 0}";
},
{
name = ogonek;
position = "{511, 0}";
},
{
name = top;
position = "{331, 1141}";
}
);
layerId = "359D7F19-8117-4ED1-B668-DF5CE9F2FE65";
shapes = (
{
closed = 1;
nodes = (
(667,810,o),
(689,903,o),
(689,903,c),
(618,903,l),
(618,903,o),
(597,851,o),
(513,851,cs),
(429,851,o),
(440,903,o),
(440,903,c),
(369,903,l),
(369,903,o),
(365,810,o),
(517,810,cs)
);
},
{
closed = 1;
nodes = (
(678,1039,l),
(584,1039,l),
(505,922,l),
(582,921,l)
);
},
{
closed = 1;
nodes = (
(78,0,l),
(194,184,l),
(510,184,l),
(522,0,l),
(614,0,l),
(564,740,l),
(440,740,l),
(-29,0,l)
);
},
{
closed = 1;
nodes = (
(482,646,l),
(506,266,l),
(243,266,l)
);
}
);
width = 693;
},
{
anchors = (
{
name = bottom;
position = "{256, 0}";
},
{
name = ogonek;
position = "{570, 0}";
},
{
name = top;
position = "{792, 1141}";
}
);
layerId = "E9FAC699-F089-4894-B74F-1DA0D3D12BF3";
shapes = (
{
closed = 1;
nodes = (
(642,816,o),
(666,887,o),
(666,887,c),
(635,887,l),
(635,887,o),
(612,840,o),
(517,840,cs),
(421,840,o),
(429,887,o),
(429,887,c),
(398,887,l),
(398,887,o),
(392,816,o),
(518,816,cs)
);
},
{
closed = 1;
nodes = (
(605,1001,l),
(570,1001,l),
(514,902,l),
(543,902,l)
);
},
{
closed = 1;
nodes = (
(33,0,l),
(175,220,l),
(517,220,l),
(533,0,l),
(569,0,l),
(511,740,l),
(467,740,l),
(-9,0,l)
);
},
{
closed = 1;
nodes = (
(480,697,l),
(513,252,l),
(194,252,l)
);
}
);
width = 658;
}
);
leftKerningGroup = A;
rightKerningGroup = A;
unicode = 7854;
},
{
glyphname = Abrevedotbelow;
layers = (
{
anchors = (
{
name = bottom;
position = "{235, -256}";
},
{
name = ogonek;
position = "{687, 0}";
},
{
name = top;
position = "{578, 957}";
}
);
layerId = "93E21930-75C2-41BF-8A43-E6E4C907605A";
shapes = (
{
closed = 1;
nodes = (
(312,-260,o),
(350,-220,o),
(350,-171,cs),
(350,-121,o),
(312,-82,o),
(261,-82,cs),
(208,-82,o),
(172,-121,o),
(172,-171,cs),
(172,-220,o),
(208,-260,o),
(261,-260,cs)
);
},
{
closed = 1;
nodes = (
(755,802,o),
(782,995,o),
(782,995,c),
(663,995,l),
(663,995,o),
(639,908,o),
(566,908,cs),
(492,908,o),
(513,995,o),
(513,995,c),
(394,995,l),
(394,995,o),
(355,802,o),
(555,802,cs)
);
},
{
closed = 1;
nodes = (
(152,0,l),
(226,124,l),
(499,124,l),
(503,0,l),
(690,0,l),
(653,740,l),
(394,740,l),
(-61,0,l)
);
},
{
closed = 1;
nodes = (
(486,561,l),
(495,288,l),
(324,288,l)
);
}
);
width = 764;
},
{
anchors = (
{
name = bottom;
position = "{208, -219}";
},
{
name = ogonek;
position = "{511, 0}";
},
{
name = top;
position = "{531, 915}";
}
);
layerId = "359D7F19-8117-4ED1-B668-DF5CE9F2FE65";
shapes = (
{
closed = 1;
nodes = (
(264,-227,o),
(292,-198,o),
(292,-162,cs),
(292,-126,o),
(264,-97,o),
(227,-97,cs),
(189,-97,o),
(162,-126,o),
(162,-162,cs),
(162,-197,o),
(189,-227,o),
(227,-227,cs)
);
},
{
closed = 1;
nodes = (
(681,815,o),
(705,971,o),
(705,971,c),
(634,971,l),
(634,971,o),
(610,879,o),
(521,879,cs),
(434,879,o),
(456,971,o),
(456,971,c),
(385,971,l),
(385,971,o),
(358,815,o),
(521,815,cs)
);
},
{
closed = 1;
nodes = (
(78,0,l),
(194,184,l),
(510,184,l),
(522,0,l),
(614,0,l),
(564,740,l),
(440,740,l),
(-29,0,l)
);
},
{
closed = 1;
nodes = (
(482,646,l),
(506,266,l),
(243,266,l)
);
}
);
width = 693;
},
{
anchors = (
{
name = bottom;
position = "{200, -189}";
},
{
name = ogonek;
position = "{570, 0}";
},
{
name = top;
position = "{530, 888}";
}
);
layerId = "E9FAC699-F089-4894-B74F-1DA0D3D12BF3";
shapes = (
{
closed = 1;
nodes = (
(233,-192,o),
(250,-175,o),
(250,-154,cs),
(250,-134,o),
(233,-117,o),
(212,-117,cs),
(191,-117,o),
(175,-134,o),
(175,-154,cs),
(175,-175,o),
(191,-192,o),
(212,-192,cs)
);
},
{
closed = 1;
nodes = (
(655,823,o),
(683,960,o),
(683,960,c),
(650,960,l),
(650,960,o),
(621,853,o),
(520,853,cs),
(418,853,o),
(447,960,o),
(447,960,c),
(415,960,l),
(415,960,o),
(387,823,o),
(520,823,cs)
);
},
{
closed = 1;
nodes = (
(33,0,l),
(175,220,l),
(517,220,l),
(533,0,l),
(569,0,l),
(511,740,l),
(467,740,l),
(-9,0,l)
);
},
{
closed = 1;
nodes = (
(480,697,l),
(513,252,l),
(194,252,l)
);
}
);
width = 658;
}
);
leftKerningGroup = A;
rightKerningGroup = A;
unicode = 7862;
},
{
glyphname = Abrevegrave;
layers = (
{
anchors = (
{
name = bottom;
position = "{309, 0}";
},
{
name = ogonek;
position = "{687, 0}";
},
{
name = top;
position = "{367, 1233}";
}
);
layerId = "93E21930-75C2-41BF-8A43-E6E4C907605A";
shapes = (
{
closed = 1;
nodes = (
(755,802,o),
(761,910,o),
(761,910,c),
(642,910,l),
(642,910,o),
(627,868,o),
(553,868,cs),
(482,868,o),
(492,910,o),
(492,910,c),
(373,910,l),
(373,910,o),
(368,802,o),
(561,802,cs)
);
},
{
closed = 1;
nodes = (
(623,933,l),
(543,1049,l),
(379,1049,l),
(497,932,l)
);
},
{
closed = 1;
nodes = (
(152,0,l),
(226,124,l),
(499,124,l),
(503,0,l),
(690,0,l),
(653,740,l),
(394,740,l),
(-61,0,l)
);
},
{
closed = 1;
nodes = (
(486,561,l),
(495,288,l),
(324,288,l)
);
}
);
width = 764;
},
{
anchors = (
{
name = bottom;
position = "{272, 0}";
},
{
name = ogonek;
position = "{511, 0}";
},
{
name = top;
position = "{334, 1141}";
}
);
layerId = "359D7F19-8117-4ED1-B668-DF5CE9F2FE65";
shapes = (
{
closed = 1;
nodes = (
(667,810,o),
(689,903,o),
(689,903,c),
(618,903,l),
(618,903,o),
(597,851,o),
(513,851,cs),
(429,851,o),
(440,903,o),
(440,903,c),
(369,903,l),
(369,903,o),
(366,810,o),
(519,810,cs)
);
},
{
closed = 1;
nodes = (
(557,922,l),
(482,1039,l),
(390,1039,l),
(483,921,l)
);
},
{
closed = 1;
nodes = (
(78,0,l),
(194,184,l),
(510,184,l),
(522,0,l),
(614,0,l),
(564,740,l),
(440,740,l),
(-29,0,l)
);
},
{
closed = 1;
nodes = (
(482,646,l),
(506,266,l),
(243,266,l)
);
}
);
width = 693;
},
{
anchors = (
{
name = bottom;
position = "{256, 0}";
},
{
name = ogonek;
position = "{570, 0}";
},
{
name = top;
position = "{792, 1141}";
}
);
layerId = "E9FAC699-F089-4894-B74F-1DA0D3D12BF3";
shapes = (
{
closed = 1;
nodes = (
(642,816,o),
(666,887,o),
(666,887,c),
(635,887,l),
(635,887,o),
(612,840,o),
(517,840,cs),
(421,840,o),
(429,887,o),
(429,887,c),
(398,887,l),
(398,887,o),
(392,816,o),
(518,816,cs)
);
},
{
closed = 1;
nodes = (
(544,902,l),
(487,1001,l),
(453,1001,l),
(516,902,l)
);
},
{
closed = 1;
nodes = (
(33,0,l),
(175,220,l),
(517,220,l),
(533,0,l),
(569,0,l),
(511,740,l),
(467,740,l),
(-9,0,l)
);
},
{
closed = 1;
nodes = (
(480,697,l),
(513,252,l),
(194,252,l)
);
}
);
width = 658;
}
);
leftKerningGroup = A;
rightKerningGroup = A;
unicode = 7856;
},
{
glyphname = Abrevehoi;
layers = (
{
anchors = (
{
name = bottom;
position = "{309, 0}";
},
{
name = ogonek;
position = "{687, 0}";
},
{
name = top;
position = "{572, 829}";
}
);
layerId = "93E21930-75C2-41BF-8A43-E6E4C907605A";
shapes = (
{
closed = 1;
nodes = (
(755,802,o),
(761,910,o),
(761,910,c),
(642,910,l),
(642,910,o),
(627,868,o),
(553,868,cs),
(482,868,o),
(492,910,o),
(492,910,c),
(373,910,l),
(373,910,o),
(368,802,o),
(561,802,cs)
);
},
{
closed = 1;
nodes = (
(617,923,l),
(631,969,l),
(581,927,l),
(629,942,l),
(651,950,o),
(736,968,o),
(736,1015,cs),
(736,1073,o),
(640,1086,o),
(602,1086,cs),
(434,1086,o),
(455,994,o),
(453,1006,c),
(554,1006,l),
(554,1006,o),
(554,1028,o),
(592,1028,cs),
(613,1028,o),
(625,1020,o),
(625,1011,cs),
(625,1000,o),
(613,990,o),
(577,980,cs),
(557,975,ls),
(533,969,o),
(525,957,o),
(521,944,cs),
(515,923,l)
);
},
{
closed = 1;
nodes = (
(152,0,l),
(226,124,l),
(499,124,l),
(503,0,l),
(690,0,l),
(653,740,l),
(394,740,l),
(-61,0,l)
);
},
{
closed = 1;
nodes = (
(486,561,l),
(495,288,l),
(324,288,l)
);
}
);
width = 764;
},
{
anchors = (
{
name = bottom;
position = "{272, 0}";
},
{
name = ogonek;
position = "{511, 0}";
},
{
name = top;
position = "{334, 1118}";
}
);
layerId = "359D7F19-8117-4ED1-B668-DF5CE9F2FE65";
shapes = (
{
closed = 1;
nodes = (
(667,810,o),
(689,903,o),
(689,903,c),
(618,903,l),
(618,903,o),
(597,851,o),
(513,851,cs),
(429,851,o),
(440,903,o),
(440,903,c),
(369,903,l),
(369,903,o),
(366,810,o),
(519,810,cs)
);
},
{
closed = 1;
nodes = (
(558,911,l),
(570,949,l),
(527,922,l),
(550,926,l),
(609,942,o),
(658,960,o),
(658,995,cs),
(658,1019,o),
(622,1049,o),
(551,1049,cs),
(439,1049,o),
(452,978,o),
(451,989,c),
(506,989,l),
(507,986,o),
(504,1017,o),
(555,1017,cs),
(582,1017,o),
(599,1006,o),
(599,995,cs),
(599,979,o),
(579,967,o),
(543,956,c),
(528,952,l),
(516,950,o),
(505,942,o),
(503,933,c),
(496,911,l)
);
},
{
closed = 1;
nodes = (
(78,0,l),
(194,184,l),
(510,184,l),
(522,0,l),
(614,0,l),
(564,740,l),
(440,740,l),
(-29,0,l)
);
},
{
closed = 1;
nodes = (
(482,646,l),
(506,266,l),
(243,266,l)
);
}
);
width = 693;
},
{
anchors = (
{
name = bottom;
position = "{256, 0}";
},
{
name = ogonek;
position = "{570, 0}";
},
{
name = top;
position = "{780, 1118}";
}
);
layerId = "E9FAC699-F089-4894-B74F-1DA0D3D12BF3";
shapes = (
{
closed = 1;
nodes = (
(642,816,o),
(666,887,o),
(666,887,c),
(635,887,l),
(635,887,o),
(612,840,o),
(517,840,cs),
(421,840,o),
(429,887,o),
(429,887,c),
(398,887,l),
(398,887,o),
(392,816,o),
(518,816,cs)
);
},
{
closed = 1;
nodes = (
(536,893,l),
(546,926,l),
(517,907,l),
(542,914,ls),
(601,930,o),
(632,948,o),
(632,974,cs),
(632,995,o),
(607,1017,o),
(555,1017,cs),
(462,1017,o),
(472,956,o),
(471,967,c),
(500,967,l),
(501,962,o),
(495,994,o),
(553,994,cs),
(584,994,o),
(602,987,o),
(602,974,cs),
(602,957,o),
(588,950,o),
(547,939,cs),
(532,935,ls),
(524,933,o),
(517,927,o),
(516,921,c),
(508,893,l)
);
},
{
closed = 1;
nodes = (
(33,0,l),
(175,220,l),
(517,220,l),
(533,0,l),
(569,0,l),
(511,740,l),
(467,740,l),
(-9,0,l)
);
},
{
closed = 1;
nodes = (
(480,697,l),
(513,252,l),
(194,252,l)
);
}
);
width = 658;
}
);
leftKerningGroup = A;
rightKerningGroup = A;
unicode = 7858;
},
{
glyphname = Abrevetilde;
layers = (
{
anchors = (
{
name = bottom;
position = "{309, 0}";
},
{
name = ogonek;
position = "{687, 0}";
},
{
name = top;
position = "{367, 1169}";
}
);
layerId = "93E21930-75C2-41BF-8A43-E6E4C907605A";
shapes = (
{
closed = 1;
nodes = (
(755,802,o),
(761,910,o),
(761,910,c),
(642,910,l),
(642,910,o),
(627,868,o),
(553,868,cs),
(482,868,o),
(492,910,o),
(492,910,c),
(373,910,l),
(373,910,o),
(368,802,o),
(561,802,cs)
);
},
{
closed = 1;
nodes = (
(758,940,o),
(778,990,o),
(793,1044,c),
(700,1044,l),
(693,1021,o),
(684,1009,o),
(665,1009,cs),
(631,1009,o),
(597,1048,o),
(524,1048,cs),
(433,1048,o),
(413,999,o),
(398,944,c),
(491,944,l),
(498,966,o),
(509,979,o),
(528,979,cs),
(562,979,o),
(595,940,o),
(668,940,cs)
);
},
{
closed = 1;
nodes = (
(152,0,l),
(226,124,l),
(499,124,l),
(503,0,l),
(690,0,l),
(653,740,l),
(394,740,l),
(-61,0,l)
);
},
{
closed = 1;
nodes = (
(486,561,l),
(495,288,l),
(324,288,l)
);
}
);
width = 764;
},
{
anchors = (
{
name = bottom;
position = "{272, 0}";
},
{
name = ogonek;
position = "{511, 0}";
},
{
name = top;
position = "{331, 1061}";
}
);
layerId = "359D7F19-8117-4ED1-B668-DF5CE9F2FE65";
shapes = (
{
closed = 1;
nodes = (
(667,810,o),
(689,903,o),
(689,903,c),
(618,903,l),
(618,903,o),
(597,851,o),
(513,851,cs),
(429,851,o),
(440,903,o),
(440,903,c),
(369,903,l),
(369,903,o),
(365,810,o),
(517,810,cs)
);
},
{
closed = 1;
nodes = (
(673,931,o),
(699,963,o),
(712,1017,c),
(650,1017,l),
(643,990,o),
(634,975,o),
(612,975,cs),
(575,975,o),
(550,1020,o),
(479,1020,cs),
(421,1020,o),
(396,990,o),
(383,935,c),
(444,935,l),
(450,963,o),
(462,978,o),
(483,978,cs),
(521,978,o),
(547,931,o),
(615,931,cs)
);
},
{
closed = 1;
nodes = (
(78,0,l),
(194,184,l),
(510,184,l),
(522,0,l),
(614,0,l),
(564,740,l),
(440,740,l),
(-29,0,l)
);
},
{
closed = 1;
nodes = (
(482,646,l),
(506,266,l),
(243,266,l)
);
}
);
width = 693;
},
{
anchors = (
{
name = bottom;
position = "{256, 0}";
},
{
name = ogonek;
position = "{570, 0}";
},
{
name = top;
position = "{747, 1061}";
}
);
layerId = "E9FAC699-F089-4894-B74F-1DA0D3D12BF3";
shapes = (
{
closed = 1;
nodes = (
(642,816,o),
(666,887,o),
(666,887,c),
(635,887,l),
(635,887,o),
(612,840,o),
(517,840,cs),
(421,840,o),
(429,887,o),
(429,887,c),
(398,887,l),
(398,887,o),
(392,816,o),
(518,816,cs)
);
},
{
closed = 1;
nodes = (
(648,917,o),
(671,948,o),
(680,985,c),
(649,985,l),
(643,953,o),
(626,942,o),
(603,942,cs),
(561,942,o),
(556,989,o),
(493,989,cs),
(446,989,o),
(421,961,o),
(412,920,c),
(443,920,l),
(450,949,o),
(466,964,o),
(492,964,cs),
(533,964,o),
(540,917,o),
(600,917,cs)
);
},
{
closed = 1;
nodes = (
(33,0,l),
(175,220,l),
(517,220,l),
(533,0,l),
(569,0,l),
(511,740,l),
(467,740,l),
(-9,0,l)
);
},
{
closed = 1;
nodes = (
(480,697,l),
(513,252,l),
(194,252,l)
);
}
);
width = 658;
}
);
leftKerningGroup = A;
rightKerningGroup = A;
unicode = 7860;
},
{
glyphname = Acircumflexacute;
layers = (
{
anchors = (
{
name = bottom;
position = "{309, 0}";
},
{
name = ogonek;
position = "{687, 0}";
},
{
name = top;
position = "{518, 740}";
}
);
layerId = "93E21930-75C2-41BF-8A43-E6E4C907605A";
shapes = (
{
closed = 1;
nodes = (
(470,799,l),
(553,855,l),
(605,799,l),
(735,799,l),
(630,902,l),
(483,902,l),
(318,799,l)
);
},
{
closed = 1;
nodes = (
(931,1001,l),
(761,1001,l),
(701,884,l),
(834,884,l)
);
},
{
closed = 1;
nodes = (
(152,0,l),
(226,124,l),
(499,124,l),
(503,0,l),
(690,0,l),
(653,740,l),
(394,740,l),
(-61,0,l)
);
},
{
closed = 1;
nodes = (
(486,561,l),
(495,288,l),
(324,288,l)
);
}
);
width = 764;
},
{
anchors = (
{
name = bottom;
position = "{272, 0}";
},
{
name = ogonek;
position = "{511, 0}";
},
{
name = top;
position = "{481, 740}";
}
);
layerId = "359D7F19-8117-4ED1-B668-DF5CE9F2FE65";
shapes = (
{
closed = 1;
nodes = (
(435,810,l),
(526,872,l),
(586,810,l),
(663,810,l),
(570,906,l),
(489,906,l),
(340,810,l)
);
},
{
closed = 1;
nodes = (
(822,1011,l),
(728,1011,l),
(650,894,l),
(727,893,l)
);
},
{
closed = 1;
nodes = (
(78,0,l),
(194,184,l),
(510,184,l),
(522,0,l),
(614,0,l),
(564,740,l),
(440,740,l),
(-29,0,l)
);
},
{
closed = 1;
nodes = (
(482,646,l),
(506,266,l),
(243,266,l)
);
}
);
width = 693;
},
{
anchors = (
{
name = bottom;
position = "{256, 0}";
},
{
name = ogonek;
position = "{570, 0}";
},
{
name = top;
position = "{488, 740}";
}
);
layerId = "E9FAC699-F089-4894-B74F-1DA0D3D12BF3";
shapes = (
{
closed = 1;
nodes = (
(426,811,l),
(535,880,l),
(602,811,l),
(638,811,l),
(554,901,l),
(517,901,l),
(379,811,l)
);
},
{
closed = 1;
nodes = (
(734,988,l),
(698,988,l),
(643,889,l),
(672,889,l)
);
},
{
closed = 1;
nodes = (
(33,0,l),
(175,220,l),
(517,220,l),
(533,0,l),
(569,0,l),
(511,740,l),
(467,740,l),
(-9,0,l)
);
},
{
closed = 1;
nodes = (
(480,697,l),
(513,252,l),
(194,252,l)
);
}
);
width = 658;
}
);
leftKerningGroup = A;
rightKerningGroup = A;
unicode = 7844;
},
{
glyphname = Acircumflexdotbelow;
layers = (
{
anchors = (
{
name = bottom;
position = "{235, -256}";
},
{
name = ogonek;
position = "{687, 0}";
},
{
name = top;
position = "{747, 860}";
}
);
layerId = "93E21930-75C2-41BF-8A43-E6E4C907605A";
shapes = (
{
closed = 1;
nodes = (
(312,-260,o),
(350,-220,o),
(350,-171,cs),
(350,-121,o),
(312,-82,o),
(261,-82,cs),
(208,-82,o),
(172,-121,o),
(172,-171,cs),
(172,-220,o),
(208,-260,o),
(261,-260,cs)
);
},
{
closed = 1;
nodes = (
(469,799,l),
(560,885,l),
(604,799,l),
(734,799,l),
(645,958,l),
(498,958,l),
(317,799,l)
);
},
{
closed = 1;
nodes = (
(152,0,l),
(226,124,l),
(499,124,l),
(503,0,l),
(690,0,l),
(653,740,l),
(394,740,l),
(-61,0,l)
);
},
{
closed = 1;
nodes = (
(486,561,l),
(495,288,l),
(324,288,l)
);
}
);
width = 764;
},
{
anchors = (
{
name = bottom;
position = "{208, -219}";
},
{
name = ogonek;
position = "{511, 0}";
},
{
name = top;
position = "{655, 864}";
}
);
layerId = "359D7F19-8117-4ED1-B668-DF5CE9F2FE65";
shapes = (
{
closed = 1;
nodes = (
(264,-227,o),
(292,-198,o),
(292,-162,cs),
(292,-126,o),
(264,-97,o),
(227,-97,cs),
(189,-97,o),
(162,-126,o),
(162,-162,cs),
(162,-197,o),
(189,-227,o),
(227,-227,cs)
);
},
{
closed = 1;
nodes = (
(422,816,l),
(523,911,l),
(573,816,l),
(652,816,l),
(572,963,l),
(491,963,l),
(329,816,l)
);
},
{
closed = 1;
nodes = (
(78,0,l),
(194,184,l),
(510,184,l),
(522,0,l),
(614,0,l),
(564,740,l),
(440,740,l),
(-29,0,l)
);
},
{
closed = 1;
nodes = (
(482,646,l),
(506,266,l),
(243,266,l)
);
}
);
width = 693;
},
{
anchors = (
{
name = bottom;
position = "{200, -189}";
},
{
name = ogonek;
position = "{570, 0}";
},
{
name = top;
position = "{652, 849}";
}
);
layerId = "E9FAC699-F089-4894-B74F-1DA0D3D12BF3";
shapes = (
{
closed = 1;
nodes = (
(233,-192,o),
(250,-175,o),
(250,-154,cs),
(250,-134,o),
(233,-117,o),
(212,-117,cs),
(191,-117,o),
(175,-134,o),
(175,-154,cs),
(175,-175,o),
(191,-192,o),
(212,-192,cs)
);
},
{
closed = 1;
nodes = (
(428,818,l),
(548,931,l),
(606,818,l),
(642,818,l),
(569,956,l),
(532,956,l),
(383,818,l)
);
},
{
closed = 1;
nodes = (
(33,0,l),
(175,220,l),
(517,220,l),
(533,0,l),
(569,0,l),
(511,740,l),
(467,740,l),
(-9,0,l)
);
},
{
closed = 1;
nodes = (
(480,697,l),
(513,252,l),
(194,252,l)
);
}
);
width = 658;
}
);
leftKerningGroup = A;
rightKerningGroup = A;
unicode = 7852;
},
{
glyphname = Acircumflexgrave;
layers = (
{
anchors = (
{
name = bottom;
position = "{309, 0}";
},
{
name = ogonek;
position = "{687, 0}";
},
{
name = top;
position = "{367, 1281}";
}
);
layerId = "93E21930-75C2-41BF-8A43-E6E4C907605A";
shapes = (
{
closed = 1;
nodes = (
(469,799,l),
(553,855,l),
(604,799,l),
(734,799,l),
(630,902,l),
(483,902,l),
(317,799,l)
);
},
{
closed = 1;
nodes = (
(830,884,l),
(749,1001,l),
(586,1001,l),
(703,884,l)
);
},
{
closed = 1;
nodes = (
(152,0,l),
(226,124,l),
(499,124,l),
(503,0,l),
(690,0,l),
(653,740,l),
(394,740,l),
(-61,0,l)
);
},
{
closed = 1;
nodes = (
(486,561,l),
(495,288,l),
(324,288,l)
);
}
);
width = 764;
},
{
anchors = (
{
name = bottom;
position = "{272, 0}";
},
{
name = ogonek;
position = "{511, 0}";
},
{
name = top;
position = "{346, 1100}";
}
);
layerId = "359D7F19-8117-4ED1-B668-DF5CE9F2FE65";
shapes = (
{
closed = 1;
nodes = (
(435,810,l),
(526,872,l),
(586,810,l),
(663,810,l),
(570,906,l),
(489,906,l),
(340,810,l)
);
},
{
closed = 1;
nodes = (
(724,894,l),
(647,1011,l),
(557,1011,l),
(650,893,l)
);
},
{
closed = 1;
nodes = (
(78,0,l),
(194,184,l),
(510,184,l),
(522,0,l),
(614,0,l),
(564,740,l),
(440,740,l),
(-29,0,l)
);
},
{
closed = 1;
nodes = (
(482,646,l),
(506,266,l),
(243,266,l)
);
}
);
width = 693;
},
{
anchors = (
{
name = bottom;
position = "{256, 0}";
},
{
name = ogonek;
position = "{570, 0}";
},
{
name = top;
position = "{762, 1100}";
}
);
layerId = "E9FAC699-F089-4894-B74F-1DA0D3D12BF3";
shapes = (
{
closed = 1;
nodes = (
(426,811,l),
(535,880,l),
(603,811,l),
(639,811,l),
(555,901,l),
(518,901,l),
(380,811,l)
);
},
{
closed = 1;
nodes = (
(670,889,l),
(614,988,l),
(580,988,l),
(643,889,l)
);
},
{
closed = 1;
nodes = (
(33,0,l),
(175,220,l),
(517,220,l),
(533,0,l),
(569,0,l),
(511,740,l),
(467,740,l),
(-9,0,l)
);
},
{
closed = 1;
nodes = (
(480,697,l),
(513,252,l),
(194,252,l)
);
}
);
width = 658;
}
);
leftKerningGroup = A;
rightKerningGroup = A;
unicode = 7846;
},
{
glyphname = Acircumflexhoi;
layers = (
{
anchors = (
{
name = bottom;
position = "{309, 0}";
},
{
name = ogonek;
position = "{687, 0}";
},
{
name = top;
position = "{518, 740}";
}
);
layerId = "93E21930-75C2-41BF-8A43-E6E4C907605A";
shapes = (
{
closed = 1;
nodes = (
(471,799,l),
(554,855,l),
(606,799,l),
(737,799,l),
(631,902,l),
(484,902,l),
(320,799,l)
);
},
{
closed = 1;
nodes = (
(793,869,l),
(808,915,l),
(756,873,l),
(803,889,l),
(828,896,o),
(913,917,o),
(913,968,cs),
(913,1001,o),
(858,1032,o),
(777,1032,cs),
(652,1032,o),
(632,960,o),
(629,952,c),
(730,952,l),
(730,952,o),
(729,975,o),
(768,975,cs),
(789,975,o),
(802,967,o),
(802,958,cs),
(802,947,o),
(790,937,o),
(751,926,cs),
(734,921,ls),
(710,914,o),
(699,903,o),
(696,891,cs),
(691,869,l)
);
},
{
closed = 1;
nodes = (
(152,0,l),
(226,124,l),
(499,124,l),
(503,0,l),
(690,0,l),
(653,740,l),
(394,740,l),
(-61,0,l)
);
},
{
closed = 1;
nodes = (
(486,561,l),
(495,288,l),
(324,288,l)
);
}
);
width = 764;
},
{
anchors = (
{
name = bottom;
position = "{272, 0}";
},
{
name = ogonek;
position = "{511, 0}";
},
{
name = top;
position = "{481, 740}";
}
);
layerId = "359D7F19-8117-4ED1-B668-DF5CE9F2FE65";
shapes = (
{
closed = 1;
nodes = (
(421,810,l),
(512,872,l),
(572,810,l),
(651,810,l),
(557,906,l),
(476,906,l),
(328,810,l)
);
},
{
closed = 1;
nodes = (
(687,883,l),
(700,921,l),
(658,894,l),
(682,899,l),
(741,914,o),
(788,932,o),
(788,967,cs),
(788,992,o),
(754,1021,o),
(683,1021,cs),
(626,1021,o),
(590,1001,o),
(583,961,c),
(638,961,l),
(638,959,o),
(634,989,o),
(685,989,cs),
(713,989,o),
(728,978,o),
(728,967,cs),
(728,952,o),
(710,941,o),
(673,930,c),
(657,924,l),
(647,921,o),
(636,915,o),
(633,905,cs),
(627,883,l)
);
},
{
closed = 1;
nodes = (
(78,0,l),
(194,184,l),
(510,184,l),
(522,0,l),
(614,0,l),
(564,740,l),
(440,740,l),
(-29,0,l)
);
},
{
closed = 1;
nodes = (
(482,646,l),
(506,266,l),
(243,266,l)
);
}
);
width = 693;
},
{
anchors = (
{
name = bottom;
position = "{256, 0}";
},
{
name = ogonek;
position = "{570, 0}";
},
{
name = top;
position = "{488, 740}";
}
);
layerId = "E9FAC699-F089-4894-B74F-1DA0D3D12BF3";
shapes = (
{
closed = 1;
nodes = (
(426,811,l),
(535,880,l),
(603,811,l),
(639,811,l),
(555,901,l),
(518,901,l),
(380,811,l)
);
},
{
closed = 1;
nodes = (
(665,880,l),
(676,913,l),
(647,894,l),
(673,901,ls),
(730,916,o),
(762,934,o),
(762,961,cs),
(762,982,o),
(736,1004,o),
(684,1004,cs),
(641,1004,o),
(609,984,o),
(602,954,c),
(631,954,l),
(634,970,o),
(654,981,o),
(682,981,cs),
(713,981,o),
(732,973,o),
(732,961,cs),
(732,943,o),
(717,936,o),
(675,923,cs),
(662,919,ls),
(653,916,o),
(645,910,o),
(643,903,cs),
(637,880,l)
);
},
{
closed = 1;
nodes = (
(33,0,l),
(175,220,l),
(517,220,l),
(533,0,l),
(569,0,l),
(511,740,l),
(467,740,l),
(-9,0,l)
);
},
{
closed = 1;
nodes = (
(480,697,l),
(513,252,l),
(194,252,l)
);
}
);
width = 658;
}
);
leftKerningGroup = A;
rightKerningGroup = A;
unicode = 7848;
},
{
glyphname = Acircumflextilde;
layers = (
{
anchors = (
{
name = bottom;
position = "{309, 0}";
},
{
name = ogonek;
position = "{687, 0}";
},
{
name = top;
position = "{360, 1174}";
}
);
layerId = "93E21930-75C2-41BF-8A43-E6E4C907605A";
shapes = (
{
closed = 1;
nodes = (
(470,799,l),
(553,855,l),
(605,799,l),
(735,799,l),
(630,902,l),
(483,902,l),
(318,799,l)
);
},
{
closed = 1;
nodes = (
(740,924,o),
(761,974,o),
(776,1028,c),
(683,1028,l),
(676,1005,o),
(666,993,o),
(647,993,cs),
(613,993,o),
(580,1032,o),
(507,1032,cs),
(416,1032,o),
(396,983,o),
(382,928,c),
(475,928,l),
(481,950,o),
(491,963,o),
(510,963,cs),
(545,963,o),
(577,924,o),
(650,924,cs)
);
},
{
closed = 1;
nodes = (
(152,0,l),
(226,124,l),
(499,124,l),
(503,0,l),
(690,0,l),
(653,740,l),
(394,740,l),
(-61,0,l)
);
},
{
closed = 1;
nodes = (
(486,561,l),
(495,288,l),
(324,288,l)
);
}
);
width = 764;
},
{
anchors = (
{
name = bottom;
position = "{272, 0}";
},
{
name = ogonek;
position = "{511, 0}";
},
{
name = top;
position = "{318, 1098}";
}
);
layerId = "359D7F19-8117-4ED1-B668-DF5CE9F2FE65";
shapes = (
{
closed = 1;
nodes = (
(422,810,l),
(512,872,l),
(573,810,l),
(651,810,l),
(557,906,l),
(476,906,l),
(328,810,l)
);
},
{
closed = 1;
nodes = (
(660,930,o),
(684,962,o),
(697,1016,c),
(636,1016,l),
(631,989,o),
(622,974,o),
(599,974,cs),
(561,974,o),
(536,1019,o),
(466,1019,cs),
(407,1019,o),
(382,989,o),
(369,934,c),
(431,934,l),
(437,962,o),
(449,977,o),
(469,977,cs),
(507,977,o),
(534,930,o),
(602,930,cs)
);
},
{
closed = 1;
nodes = (
(78,0,l),
(194,184,l),
(510,184,l),
(522,0,l),
(614,0,l),
(564,740,l),
(440,740,l),
(-29,0,l)
);
},
{
closed = 1;
nodes = (
(482,646,l),
(506,266,l),
(243,266,l)
);
}
);
width = 693;
},
{
anchors = (
{
name = bottom;
position = "{256, 0}";
},
{
name = ogonek;
position = "{570, 0}";
},
{
name = top;
position = "{565, 740}";
}
);
layerId = "E9FAC699-F089-4894-B74F-1DA0D3D12BF3";
shapes = (
{
closed = 1;
nodes = (
(428,811,l),
(537,880,l),
(605,811,l),
(640,811,l),
(556,901,l),
(519,901,l),
(381,811,l)
);
},
{
closed = 1;
nodes = (
(649,927,o),
(673,958,o),
(681,995,c),
(650,995,l),
(644,963,o),
(626,951,o),
(604,951,cs),
(561,951,o),
(559,999,o),
(496,999,cs),
(449,999,o),
(423,971,o),
(414,930,c),
(445,930,l),
(451,959,o),
(467,975,o),
(493,975,cs),
(535,975,o),
(542,927,o),
(602,927,cs)
);
},
{
closed = 1;
nodes = (
(33,0,l),
(175,220,l),
(517,220,l),
(533,0,l),
(569,0,l),
(511,740,l),
(467,740,l),
(-9,0,l)
);
},
{
closed = 1;
nodes = (
(480,697,l),
(513,252,l),
(194,252,l)
);
}
);
width = 658;
}
);
leftKerningGroup = A;
rightKerningGroup = A;
unicode = 7850;
},
{
glyphname = Adieresis;
layers = (
{
anchors = (
{
name = bottom;
position = "{309, 0}";
},
{
name = ogonek;
position = "{687, 0}";
},
{
name = top;
position = "{587, 983}";
}
);
layerId = "93E21930-75C2-41BF-8A43-E6E4C907605A";
shapes = (
{
closed = 1;
nodes = (
(743,788,o),
(786,832,o),
(786,885,cs),
(786,940,o),
(743,983,o),
(684,983,cs),
(624,983,o),
(582,940,o),
(582,885,cs),
(582,832,o),
(624,788,o),
(684,788,cs)
);
},
{
closed = 1;
nodes = (
(493,788,o),
(536,832,o),
(536,885,cs),
(536,940,o),
(493,983,o),
(434,983,cs),
(374,983,o),
(332,940,o),
(332,885,cs),
(332,832,o),
(374,788,o),
(434,788,cs)
);
},
{
closed = 1;
nodes = (
(152,0,l),
(226,124,l),
(499,124,l),
(503,0,l),
(690,0,l),
(653,740,l),
(394,740,l),
(-61,0,l)
);
},
{
closed = 1;
nodes = (
(486,561,l),
(495,288,l),
(324,288,l)
);
}
);
width = 764;
},
{
anchors = (
{
name = bottom;
position = "{272, 0}";
},
{
name = ogonek;
position = "{511, 0}";
},
{
name = top;
position = "{539, 944}";
}
);
layerId = "359D7F19-8117-4ED1-B668-DF5CE9F2FE65";
shapes = (
{
closed = 1;
nodes = (
(652,821,o),
(679,848,o),
(679,882,cs),
(679,916,o),
(652,944,o),
(617,944,cs),
(581,944,o),
(555,916,o),
(555,882,cs),
(555,849,o),
(581,821,o),
(617,821,cs)
);
},
{
closed = 1;
nodes = (
(462,821,o),
(489,848,o),
(489,882,cs),
(489,916,o),
(462,944,o),
(427,944,cs),
(391,944,o),
(365,916,o),
(365,882,cs),
(365,849,o),
(391,821,o),
(427,821,cs)
);
},
{
closed = 1;
nodes = (
(78,0,l),
(194,184,l),
(510,184,l),
(522,0,l),
(614,0,l),
(564,740,l),
(440,740,l),
(-29,0,l)
);
},
{
closed = 1;
nodes = (
(482,646,l),
(506,266,l),
(243,266,l)
);
}
);
width = 693;
},
{
anchors = (
{
name = bottom;
position = "{256, 0}";
},
{
name = ogonek;
position = "{570, 0}";
},
{
name = top;
position = "{536, 912}";
}
);
layerId = "E9FAC699-F089-4894-B74F-1DA0D3D12BF3";
shapes = (
{
closed = 1;
nodes = (
(617,840,o),
(633,856,o),
(633,876,cs),
(633,895,o),
(617,912,o),
(597,912,cs),
(577,912,o),
(562,895,o),
(562,876,cs),
(562,856,o),
(577,840,o),
(597,840,cs)
);
},
{
closed = 1;
nodes = (
(478,840,o),
(494,856,o),
(494,876,cs),
(494,895,o),
(478,912,o),
(458,912,cs),
(438,912,o),
(423,895,o),
(423,876,cs),
(423,856,o),
(438,840,o),
(458,840,cs)
);
},
{
closed = 1;
nodes = (
(33,0,l),
(175,220,l),
(517,220,l),
(533,0,l),
(569,0,l),
(511,740,l),
(467,740,l),
(-9,0,l)
);
},
{
closed = 1;
nodes = (
(480,697,l),
(513,252,l),
(194,252,l)
);
}
);
width = 658;
}
);
leftKerningGroup = A;
rightKerningGroup = A;
unicode = 196;
},
{
glyphname = Adotbelow;
layers = (
{
anchors = (
{
name = bottom;
position = "{235, -256}";
},
{
name = ogonek;
position = "{687, 0}";
},
{
name = top;
position = "{518, 740}";
}
);
layerId = "93E21930-75C2-41BF-8A43-E6E4C907605A";
shapes = (
{
closed = 1;
nodes = (
(312,-260,o),
(350,-220,o),
(350,-171,cs),
(350,-121,o),
(312,-82,o),
(261,-82,cs),
(208,-82,o),
(172,-121,o),
(172,-171,cs),
(172,-220,o),
(208,-260,o),
(261,-260,cs)
);
},
{
closed = 1;
nodes = (
(152,0,l),
(226,124,l),
(499,124,l),
(503,0,l),
(690,0,l),
(653,740,l),
(394,740,l),
(-61,0,l)
);
},
{
closed = 1;
nodes = (
(486,561,l),
(495,288,l),
(324,288,l)
);
}
);
width = 764;
},
{
anchors = (
{
name = bottom;
position = "{208, -219}";
},
{
name = ogonek;
position = "{511, 0}";
},
{
name = top;
position = "{481, 740}";
}
);
layerId = "359D7F19-8117-4ED1-B668-DF5CE9F2FE65";
shapes = (
{
closed = 1;
nodes = (
(264,-227,o),
(292,-198,o),
(292,-162,cs),
(292,-126,o),
(264,-97,o),
(227,-97,cs),
(189,-97,o),
(162,-126,o),
(162,-162,cs),
(162,-197,o),
(189,-227,o),
(227,-227,cs)
);
},
{
closed = 1;
nodes = (
(78,0,l),
(194,184,l),
(510,184,l),
(522,0,l),
(614,0,l),
(564,740,l),
(440,740,l),
(-29,0,l)
);
},
{
closed = 1;
nodes = (
(482,646,l),
(506,266,l),
(243,266,l)
);
}
);
width = 693;
},
{
anchors = (
{
name = bottom;
position = "{200, -189}";
},
{
name = ogonek;
position = "{570, 0}";
},
{
name = top;
position = "{488, 740}";
}
);
layerId = "E9FAC699-F089-4894-B74F-1DA0D3D12BF3";
shapes = (
{
closed = 1;
nodes = (
(233,-192,o),
(250,-175,o),
(250,-154,cs),
(250,-134,o),
(233,-117,o),
(212,-117,cs),
(191,-117,o),
(175,-134,o),
(175,-154,cs),
(175,-175,o),
(191,-192,o),
(212,-192,cs)
);
},
{
closed = 1;
nodes = (
(33,0,l),
(175,220,l),
(517,220,l),
(533,0,l),
(569,0,l),
(511,740,l),
(467,740,l),
(-9,0,l)
);
},
{
closed = 1;
nodes = (
(480,697,l),
(513,252,l),
(194,252,l)
);
}
);
width = 658;
}
);
leftKerningGroup = A;
rightKerningGroup = A;
unicode = 7840;
},
{
glyphname = Ahoi;
layers = (
{
anchors = (
{
name = bottom;
position = "{309, 0}";
},
{
name = ogonek;
position = "{687, 0}";
},
{
name = top;
position = "{603, 1038}";
}
);
layerId = "93E21930-75C2-41BF-8A43-E6E4C907605A";
shapes = (
{
closed = 1;
nodes = (
(579,795,l),
(601,866,l),
(543,801,l),
(593,825,ls),
(619,837,o),
(713,868,o),
(713,947,cs),
(713,998,o),
(667,1046,o),
(587,1046,cs),
(420,1046,o),
(427,905,o),
(427,923,c),
(528,923,l),
(528,923,o),
(530,957,o),
(570,957,cs),
(590,957,o),
(601,945,o),
(601,931,cs),
(601,915,o),
(586,900,o),
(546,883,cs),
(528,875,ls),
(502,864,o),
(491,847,o),
(486,828,cs),
(477,795,l)
);
},
{
closed = 1;
nodes = (
(152,0,l),
(226,124,l),
(499,124,l),
(503,0,l),
(690,0,l),
(653,740,l),
(394,740,l),
(-61,0,l)
);
},
{
closed = 1;
nodes = (
(486,561,l),
(495,288,l),
(324,288,l)
);
}
);
width = 764;
},
{
anchors = (
{
name = bottom;
position = "{272, 0}";
},
{
name = ogonek;
position = "{511, 0}";
},
{
name = top;
position = "{560, 1016}";
}
);
layerId = "359D7F19-8117-4ED1-B668-DF5CE9F2FE65";
shapes = (
{
closed = 1;
nodes = (
(525,803,l),
(543,862,l),
(497,821,l),
(521,829,l),
(583,853,o),
(638,880,o),
(638,934,cs),
(638,972,o),
(611,1017,o),
(540,1017,cs),
(427,1017,o),
(431,907,o),
(431,923,c),
(486,923,l),
(486,921,o),
(487,966,o),
(537,966,cs),
(565,966,o),
(577,951,o),
(577,934,cs),
(577,909,o),
(556,892,o),
(517,875,cs),
(501,868,l),
(489,862,o),
(478,853,o),
(474,838,cs),
(464,803,l)
);
},
{
closed = 1;
nodes = (
(78,0,l),
(194,184,l),
(510,184,l),
(522,0,l),
(614,0,l),
(564,740,l),
(440,740,l),
(-29,0,l)
);
},
{
closed = 1;
nodes = (
(482,646,l),
(506,266,l),
(243,266,l)
);
}
);
width = 693;
},
{
anchors = (
{
name = bottom;
position = "{256, 0}";
},
{
name = ogonek;
position = "{570, 0}";
},
{
name = top;
position = "{561, 1002}";
}
);
layerId = "E9FAC699-F089-4894-B74F-1DA0D3D12BF3";
shapes = (
{
closed = 1;
nodes = (
(513,814,l),
(528,865,l),
(496,836,l),
(523,847,ls),
(584,872,o),
(621,898,o),
(621,939,cs),
(621,971,o),
(600,1005,o),
(548,1005,cs),
(456,1005,o),
(459,912,o),
(459,928,c),
(488,928,l),
(488,920,o),
(488,977,o),
(546,977,cs),
(577,977,o),
(591,958,o),
(591,939,cs),
(591,912,o),
(570,892,o),
(527,874,cs),
(513,868,ls),
(504,864,o),
(496,856,o),
(494,846,c),
(485,814,l)
);
},
{
closed = 1;
nodes = (
(33,0,l),
(175,220,l),
(517,220,l),
(533,0,l),
(569,0,l),
(511,740,l),
(467,740,l),
(-9,0,l)
);
},
{
closed = 1;
nodes = (
(480,697,l),
(513,252,l),
(194,252,l)
);
}
);
width = 658;
}
);
leftKerningGroup = A;
rightKerningGroup = A;
unicode = 7842;
},
{
glyphname = Amacron;
layers = (
{
anchors = (
{
name = bottom;
position = "{309, 0}";
},
{
name = ogonek;
position = "{687, 0}";
},
{
name = top;
position = "{582, 973}";
}
);
layerId = "93E21930-75C2-41BF-8A43-E6E4C907605A";
shapes = (
{
closed = 1;
nodes = (
(709,824,l),
(738,926,l),
(398,926,l),
(369,824,l)
);
},
{
closed = 1;
nodes = (
(152,0,l),
(226,124,l),
(499,124,l),
(503,0,l),
(690,0,l),
(653,740,l),
(394,740,l),
(-61,0,l)
);
},
{
closed = 1;
nodes = (
(486,561,l),
(495,288,l),
(324,288,l)
);
}
);
width = 764;
},
{
anchors = (
{
name = bottom;
position = "{272, 0}";
},
{
name = ogonek;
position = "{511, 0}";
},
{
name = top;
position = "{533, 918}";
}
);
layerId = "359D7F19-8117-4ED1-B668-DF5CE9F2FE65";
shapes = (
{
closed = 1;
nodes = (
(664,856,l),
(685,928,l),
(381,928,l),
(360,856,l)
);
},
{
closed = 1;
nodes = (
(78,0,l),
(194,184,l),
(510,184,l),
(522,0,l),
(614,0,l),
(564,740,l),
(440,740,l),
(-29,0,l)
);
},
{
closed = 1;
nodes = (
(482,646,l),
(506,266,l),
(243,266,l)
);
}
);
width = 693;
},
{
anchors = (
{
name = bottom;
position = "{256, 0}";
},
{
name = ogonek;
position = "{570, 0}";
},
{
name = top;
position = "{525, 850}";
}
);
layerId = "E9FAC699-F089-4894-B74F-1DA0D3D12BF3";
shapes = (
{
closed = 1;
nodes = (
(658,842,l),
(665,872,l),
(385,872,l),
(378,842,l)
);
},
{
closed = 1;
nodes = (
(33,0,l),
(175,220,l),
(517,220,l),
(533,0,l),
(569,0,l),
(511,740,l),
(467,740,l),
(-9,0,l)
);
},
{
closed = 1;
nodes = (
(480,697,l),
(513,252,l),
(194,252,l)
);
}
);
width = 658;
}
);
leftKerningGroup = A;
rightKerningGroup = A;
unicode = 256;
},
{
glyphname = AE;
leftMetricsKey = A;
rightMetricsKey = E;
layers = (
{
anchors = (
{
name = bottom;
position = "{654, 0}";
},
{
name = ogonek;
position = "{908, 0}";
},
{
name = top;
position = "{850, 740}";
},
{
name = topleft;
position = "{628, 736}";
}
);
layerId = "93E21930-75C2-41BF-8A43-E6E4C907605A";
shapes = (
{
closed = 1;
nodes = (
(150,0,l),
(575,613,l),
(612,740,l),
(454,740,l),
(-61,0,l)
);
},
{
closed = 1;
nodes = (
(526,124,l),
(573,285,l),
(174,285,l),
(127,124,l)
);
},
{
closed = 1;
nodes = (
(941,296,l),
(987,454,l),
(589,454,l),
(544,296,l)
);
},
{
closed = 1;
nodes = (
(1065,574,l),
(1112,740,l),
(669,740,l),
(623,574,l)
);
},
{
closed = 1;
nodes = (
(908,0,l),
(954,166,l),
(507,166,l),
(460,0,l)
);
},
{
closed = 1;
nodes = (
(575,0,l),
(784,740,l),
(592,740,l),
(383,0,l)
);
}
);
width = 1019;
},
{
anchors = (
{
name = bottom;
position = "{707, 0}";
},
{
name = ogonek;
position = "{875, 0}";
},
{
name = top;
position = "{847, 740}";
},
{
name = topleft;
position = "{647, 700}";
}
);
layerId = "359D7F19-8117-4ED1-B668-DF5CE9F2FE65";
shapes = (
{
closed = 1;
nodes = (
(90,0,l),
(630,675,l),
(648,740,l),
(562,740,l),
(-29,0,l)
);
},
{
closed = 1;
nodes = (
(556,177,l),
(580,265,l),
(223,265,l),
(199,177,l)
);
},
{
closed = 1;
nodes = (
(919,334,l),
(942,420,l),
(636,420,l),
(612,334,l)
);
},
{
closed = 1;
nodes = (
(1055,654,l),
(1079,740,l),
(726,740,l),
(703,654,l)
);
},
{
closed = 1;
nodes = (
(875,0,l),
(899,86,l),
(542,86,l),
(517,0,l)
);
},
{
closed = 1;
nodes = (
(523,0,l),
(732,740,l),
(634,740,l),
(425,0,l)
);
}
);
width = 1022;
},
{
anchors = (
{
name = bottom;
position = "{578, 0}";
},
{
name = ogonek;
position = "{814, 0}";
},
{
name = top;
position = "{787, 740}";
},
{
name = topleft;
position = "{600, 700}";
}
);
layerId = "E9FAC699-F089-4894-B74F-1DA0D3D12BF3";
shapes = (
{
closed = 1;
nodes = (
(34,0,l),
(618,724,l),
(618,740,l),
(587,740,l),
(-9,0,l)
);
},
{
closed = 1;
nodes = (
(475,220,l),
(483,252,l),
(207,252,l),
(199,220,l)
);
},
{
closed = 1;
nodes = (
(861,362,l),
(871,396,l),
(532,396,l),
(523,362,l)
);
},
{
closed = 1;
nodes = (
(1007,706,l),
(1017,740,l),
(629,740,l),
(620,706,l)
);
},
{
closed = 1;
nodes = (
(814,0,l),
(823,34,l),
(430,34,l),
(420,0,l)
);
},
{
closed = 1;
nodes = (
(431,0,l),
(640,740,l),
(605,740,l),
(396,0,l)
);
}
);
width = 923;
}
);
leftKerningGroup = A;
rightKerningGroup = E;
unicode = 198;
},
{
glyphname = B;
leftMetricsKey = l;
layers = (
{
anchors = (
{
name = bottom;
position = "{81, 0}";
},
{
name = ogonek;
position = "{177, 0}";
},
{
name = top;
position = "{289, 735}";
},
{
name = topleft;
position = "{163, 736}";
}
);
layerId = "93E21930-75C2-41BF-8A43-E6E4C907605A";
shapes = (
{
closed = 1;
nodes = (
(370,0,ls),
(571,0,o),
(690,144,o),
(690,260,cs),
(690,310,o),
(669,374,o),
(580,393,c),
(582,402,l),
(685,429,o),
(736,513,o),
(736,580,cs),
(736,659,o),
(671,740,o),
(519,740,cs),
(372,740,l),
(326,581,l),
(474,581,ls),
(519,581,o),
(537,555,o),
(537,531,cs),
(537,497,o),
(504,452,o),
(450,452,cs),
(290,452,l),
(251,309,l),
(411,309,ls),
(462,309,o),
(485,279,o),
(485,250,cs),
(485,210,o),
(445,159,o),
(382,159,cs),
(208,159,l),
(162,0,l)
);
},
{
closed = 1;
nodes = (
(177,0,l),
(386,740,l),
(194,740,l),
(-15,0,l)
);
}
);
width = 734;
},
{
anchors = (
{
name = bottom;
position = "{60, 0}";
},
{
name = ogonek;
position = "{109, 0}";
},
{
name = top;
position = "{258, 687}";
},
{
name = topleft;
position = "{154, 700}";
}
);
layerId = "359D7F19-8117-4ED1-B668-DF5CE9F2FE65";
shapes = (
{
closed = 1;
nodes = (
(329,0,ls),
(496,0,o),
(602,137,o),
(602,250,cs),
(602,296,o),
(588,357,o),
(512,384,c),
(513,390,l),
(616,427,o),
(651,517,o),
(651,581,cs),
(651,660,o),
(601,740,o),
(477,740,cs),
(276,740,l),
(252,655,l),
(463,655,ls),
(526,655,o),
(558,613,o),
(558,565,cs),
(558,498,o),
(499,419,o),
(397,419,cs),
(186,419,l),
(162,340,l),
(381,340,ls),
(467,340,o),
(505,295,o),
(505,243,cs),
(505,169,o),
(436,85,o),
(336,85,cs),
(91,85,l),
(66,0,l)
);
},
{
closed = 1;
nodes = (
(109,0,l),
(318,740,l),
(220,740,l),
(11,0,l)
);
}
);
width = 664;
},
{
anchors = (
{
name = bottom;
position = "{35, 0}";
},
{
name = ogonek;
position = "{52, 0}";
},
{
name = top;
position = "{246, 740}";
},
{
name = topleft;
position = "{156, 740}";
}
);
layerId = "E9FAC699-F089-4894-B74F-1DA0D3D12BF3";
shapes = (
{
closed = 1;
nodes = (
(320,0,ls),
(490,0,o),
(582,129,o),
(582,231,cs),
(582,298,o),
(547,353,o),
(482,373,c),
(483,377,l),
(592,407,o),
(650,502,o),
(650,586,cs),
(650,667,o),
(594,740,o),
(475,740,cs),
(248,740,l),
(239,706,l),
(472,706,ls),
(570,706,o),
(613,652,o),
(613,585,cs),
(613,496,o),
(535,390,o),
(410,390,cs),
(150,390,l),
(141,358,l),
(401,358,ls),
(501,358,o),
(547,301,o),
(547,231,cs),
(547,140,o),
(465,34,o),
(322,34,cs),
(49,34,l),
(39,0,l)
);
},
{
closed = 1;
nodes = (
(52,0,l),
(263,740,l),
(228,740,l),
(17,0,l)
);
}
);
width = 641;
}
);
leftKerningGroup = l;
rightKerningGroup = B;
unicode = 66;
},
{
glyphname = C;
leftMetricsKey = O;
rightMetricsKey = O;
layers = (
{
anchors = (
{
name = bottom;
position = "{332, 8}";
},
{
name = top;
position = "{540, 738}";
}
);
guides = (
{
position = "{0, 713}";
},
{
position = "{0, -7}";
}
);
layerId = "93E21930-75C2-41BF-8A43-E6E4C907605A";
shapes = (
{
closed = 1;
nodes = (
(689,-10,o),
(749,267,o),
(749,267,c),
(559,267,l),
(559,267,o),
(519,161,o),
(395,161,cs),
(299,161,o),
(256,235,o),
(256,323,cs),
(256,442,o),
(336,580,o),
(475,580,cs),
(611,580,o),
(606,473,o),
(606,473,c),
(796,473,l),
(796,473,o),
(814,750,o),
(487,750,cs),
(216,750,o),
(63,512,o),
(63,301,cs),
(63,136,o),
(160,-10,o),
(372,-10,cs)
);
}
);
width = 784;
},
{
anchors = (
{
name = bottom;
position = "{319, 2}";
},
{
name = top;
position = "{501, 740}";
}
);
guides = (
{
position = "{0, 713}";
},
{
position = "{0, -7}";
}
);
layerId = "359D7F19-8117-4ED1-B668-DF5CE9F2FE65";
shapes = (
{
closed = 1;
nodes = (
(617,-10,o),
(690,247,o),
(690,247,c),
(591,247,l),
(591,247,o),
(533,79,o),
(359,79,cs),
(218,79,o),
(159,183,o),
(159,306,cs),
(159,471,o),
(267,663,o),
(470,663,cs),
(654,663,o),
(639,493,o),
(639,493,c),
(737,493,l),
(737,493,o),
(754,750,o),
(476,750,cs),
(203,750,o),
(60,507,o),
(60,296,cs),
(60,132,o),
(146,-10,o),
(351,-10,cs)
);
}
);
width = 743;
},
{
anchors = (
{
name = bottom;
position = "{327, 0}";
},
{
name = top;
position = "{519, 740}";
}
);
guides = (
{
position = "{0, 713}";
},
{
position = "{0, -7}";
}
);
layerId = "E9FAC699-F089-4894-B74F-1DA0D3D12BF3";
shapes = (
{
closed = 1;
nodes = (
(588,-10,o),
(664,234,o),
(664,234,c),
(627,234,l),
(627,234,o),
(560,24,o),
(342,24,cs),
(180,24,o),
(110,149,o),
(110,295,cs),
(110,490,o),
(236,716,o),
(474,716,cs),
(698,716,o),
(675,506,o),
(675,506,c),
(710,506,l),
(710,506,o),
(733,750,o),
(476,750,cs),
(214,750,o),
(74,506,o),
(74,294,cs),
(74,131,o),
(156,-10,o),
(339,-10,cs)
);
}
);
width = 746;
}
);
leftKerningGroup = O;
rightKerningGroup = O;
unicode = 67;
},
{
glyphname = Ccedilla;
layers = (
{
anchors = (
{
name = bottom;
position = "{320, -242}";
},
{
name = top;
position = "{540, 738}";
}
);
layerId = "93E21930-75C2-41BF-8A43-E6E4C907605A";
shapes = (
{
closed = 1;
nodes = (
(689,-10,o),
(749,267,o),
(749,267,c),
(559,267,l),
(559,267,o),
(519,161,o),
(395,161,cs),
(299,161,o),
(256,235,o),
(256,323,cs),
(256,442,o),
(336,580,o),
(475,580,cs),
(611,580,o),
(606,473,o),
(606,473,c),
(796,473,l),
(796,473,o),
(814,750,o),
(487,750,cs),
(216,750,o),
(63,512,o),
(63,301,cs),
(63,136,o),
(160,-10,o),
(372,-10,cs)
);
},
{
closed = 1;
nodes = (
(395,-263,o),
(453,-192,o),
(453,-132,cs),
(453,-78,o),
(405,-33,o),
(338,-33,cs),
(263,-33,o),
(259,-87,o),
(259,-87,c),
(286,-87,l),
(415,36,l),
(300,36,l),
(206,-57,l),
(245,-112,l),
(245,-112,o),
(263,-103,o),
(283,-103,cs),
(308,-103,o),
(320,-117,o),
(320,-130,cs),
(320,-148,o),
(307,-164,o),
(265,-164,cs),
(240,-164,o),
(192,-158,o),
(192,-158,c),
(172,-255,l),
(172,-255,o),
(213,-263,o),
(259,-263,cs)
);
}
);
width = 784;
},
{
anchors = (
{
name = bottom;
position = "{317, -247}";
},
{
name = top;
position = "{500, 740}";
}
);
layerId = "359D7F19-8117-4ED1-B668-DF5CE9F2FE65";
shapes = (
{
closed = 1;
nodes = (
(616,-10,o),
(689,247,o),
(689,247,c),
(590,247,l),
(590,247,o),
(532,79,o),
(358,79,cs),
(217,79,o),
(158,183,o),
(158,306,cs),
(158,471,o),
(266,663,o),
(469,663,cs),
(653,663,o),
(638,493,o),
(638,493,c),
(736,493,l),
(736,493,o),
(753,750,o),
(475,750,cs),
(202,750,o),
(59,507,o),
(59,296,cs),
(59,132,o),
(145,-10,o),
(350,-10,cs)
);
},
{
closed = 1;
nodes = (
(356,-260,o),
(399,-205,o),
(399,-152,cs),
(399,-104,o),
(365,-56,o),
(297,-56,cs),
(235,-56,o),
(228,-104,o),
(228,-104,c),
(258,-104,l),
(363,9,l),
(289,9,l),
(199,-88,l),
(224,-122,l),
(223,-122,o),
(242,-110,o),
(269,-110,cs),
(306,-110,o),
(324,-130,o),
(324,-153,cs),
(324,-177,o),
(307,-202,o),
(255,-202,cs),
(226,-202,o),
(183,-193,o),
(183,-193,c),
(171,-248,l),
(171,-248,o),
(206,-260,o),
(252,-260,cs)
);
}
);
width = 742;
},
{
anchors = (
{
name = bottom;
position = "{269, -249}";
},
{
name = top;
position = "{518, 740}";
}
);
layerId = "E9FAC699-F089-4894-B74F-1DA0D3D12BF3";
shapes = (
{
closed = 1;
nodes = (
(587,-10,o),
(662,234,o),
(662,234,c),
(625,234,l),
(625,234,o),
(559,24,o),
(341,24,cs),
(179,24,o),
(109,149,o),
(109,295,cs),
(109,490,o),
(234,716,o),
(473,716,cs),
(697,716,o),
(673,506,o),
(673,506,c),
(709,506,l),
(709,506,o),
(732,750,o),
(475,750,cs),
(213,750,o),
(72,506,o),
(72,294,cs),
(72,131,o),
(155,-10,o),
(337,-10,cs)
);
},
{
closed = 1;
nodes = (
(358,-249,o),
(396,-202,o),
(396,-154,cs),
(396,-111,o),
(364,-70,o),
(304,-70,cs),
(247,-70,o),
(239,-107,o),
(239,-107,c),
(259,-107,l),
(351,0,l),
(315,0,l),
(229,-99,l),
(243,-118,l),
(242,-118,o),
(267,-101,o),
(298,-101,cs),
(338,-101,o),
(361,-128,o),
(361,-157,cs),
(361,-188,o),
(335,-218,o),
(281,-218,cs),
(249,-218,o),
(211,-207,o),
(211,-207,c),
(203,-236,l),
(203,-236,o),
(237,-249,o),
(281,-249,cs)
);
}
);
width = 743;
}
);
leftKerningGroup = O;
rightKerningGroup = O;
unicode = 199;
},
{
glyphname = Cdotaccent;
layers = (
{
anchors = (
{
name = bottom;
position = "{332, 8}";
},
{
name = top;
position = "{614, 990}";
}
);
layerId = "93E21930-75C2-41BF-8A43-E6E4C907605A";
shapes = (
{
closed = 1;
nodes = (
(689,-10,o),
(749,267,o),
(749,267,c),
(559,267,l),
(559,267,o),
(519,161,o),
(395,161,cs),
(299,161,o),
(256,235,o),
(256,323,cs),
(256,442,o),
(336,580,o),
(475,580,cs),
(611,580,o),
(606,473,o),
(606,473,c),
(796,473,l),
(796,473,o),
(814,750,o),
(487,750,cs),
(216,750,o),
(63,512,o),
(63,301,cs),
(63,136,o),
(160,-10,o),
(372,-10,cs)
);
},
{
closed = 1;
nodes = (
(647,791,o),
(693,838,o),
(693,894,cs),
(693,952,o),
(647,998,o),
(584,998,cs),
(521,998,o),
(476,952,o),
(476,894,cs),
(476,838,o),
(521,791,o),
(584,791,cs)
);
}
);
width = 784;
},
{
anchors = (
{
name = bottom;
position = "{318, 2}";
},
{
name = top;
position = "{563, 960}";
}
);
layerId = "359D7F19-8117-4ED1-B668-DF5CE9F2FE65";
shapes = (
{
closed = 1;
nodes = (
(616,-10,o),
(689,247,o),
(689,247,c),
(590,247,l),
(590,247,o),
(532,79,o),
(358,79,cs),
(217,79,o),
(158,183,o),
(158,306,cs),
(158,471,o),
(266,663,o),
(469,663,cs),
(653,663,o),
(638,493,o),
(638,493,c),
(736,493,l),
(736,493,o),
(753,750,o),
(475,750,cs),
(202,750,o),
(59,507,o),
(59,296,cs),
(59,132,o),
(145,-10,o),
(350,-10,cs)
);
},
{
closed = 1;
nodes = (
(580,835,o),
(607,862,o),
(607,896,cs),
(607,930,o),
(580,958,o),
(545,958,cs),
(509,958,o),
(483,930,o),
(483,896,cs),
(483,863,o),
(509,835,o),
(545,835,cs)
);
}
);
width = 742;
},
{
anchors = (
{
name = bottom;
position = "{326, 0}";
},
{
name = top;
position = "{567, 896}";
}
);
layerId = "E9FAC699-F089-4894-B74F-1DA0D3D12BF3";
shapes = (
{
closed = 1;
nodes = (
(587,-10,o),
(662,234,o),
(662,234,c),
(625,234,l),
(625,234,o),
(559,24,o),
(341,24,cs),
(179,24,o),
(109,149,o),
(109,295,cs),
(109,490,o),
(234,716,o),
(473,716,cs),
(697,716,o),
(673,506,o),
(673,506,c),
(709,506,l),
(709,506,o),
(732,750,o),
(475,750,cs),
(213,750,o),
(72,506,o),
(72,294,cs),
(72,131,o),
(155,-10,o),
(337,-10,cs)
);
},
{
closed = 1;
nodes = (
(577,839,o),
(593,855,o),
(593,875,cs),
(593,894,o),
(577,911,o),
(557,911,cs),
(537,911,o),
(522,894,o),
(522,875,cs),
(522,855,o),
(537,839,o),
(557,839,cs)
);
}
);
width = 743;
}
);
leftKerningGroup = O;
rightKerningGroup = O;
unicode = 266;
},
{
glyphname = D;
leftMetricsKey = l;
rightMetricsKey = O;
layers = (
{
anchors = (
{
name = bottom;
position = "{281, 0}";
},
{
name = center;
position = "{385, 370}";
},
{
name = ogonek;
position = "{177, 0}";
},
{
name = top;
position = "{473, 740}";
},
{
name = topleft;
position = "{163, 736}";
}
);
guides = (
{
position = "{0, 34}";
}
);
layerId = "93E21930-75C2-41BF-8A43-E6E4C907605A";
shapes = (
{
closed = 1;
nodes = (
(290,0,ls),
(598,0,o),
(759,222,o),
(759,423,cs),
(759,590,o),
(650,740,o),
(419,740,cs),
(340,740,l),
(293,572,l),
(404,572,ls),
(517,572,o),
(574,496,o),
(574,408,cs),
(574,298,o),
(483,171,o),
(315,171,cs),
(179,171,l),
(131,0,l)
);
},
{
closed = 1;
nodes = (
(177,0,l),
(386,740,l),
(194,740,l),
(-15,0,l)
);
}
);
width = 765;
},
{
anchors = (
{
name = bottom;
position = "{264, 0}";
},
{
name = center;
position = "{370, 370}";
},
{
name = ogonek;
position = "{109, 0}";
},
{
name = top;
position = "{436, 740}";
},
{
name = topleft;
position = "{154, 700}";
}
);
guides = (
{
position = "{0, 34}";
}
);
layerId = "359D7F19-8117-4ED1-B668-DF5CE9F2FE65";
shapes = (
{
closed = 1;
nodes = (
(239,0,ls),
(517,0,o),
(678,242,o),
(678,450,cs),
(678,606,o),
(587,740,o),
(382,740,cs),
(266,740,l),
(241,654,l),
(368,654,ls),
(515,654,o),
(579,558,o),
(579,444,cs),
(579,280,o),
(452,86,o),
(246,86,cs),
(80,86,l),
(55,0,l)
);
},
{
closed = 1;
nodes = (
(109,0,l),
(318,740,l),
(220,740,l),
(11,0,l)
);
}
);
width = 690;
},
{
anchors = (
{
name = bottom;
position = "{264, 0}";
},
{
name = center;
position = "{370, 370}";
},
{
name = ogonek;
position = "{52, 0}";
},
{
name = top;
position = "{425, 740}";
},
{
name = topleft;
position = "{156, 740}";
}
);
guides = (
{
position = "{0, 34}";
}
);
layerId = "E9FAC699-F089-4894-B74F-1DA0D3D12BF3";
shapes = (
{
closed = 1;
nodes = (
(224,0,ls),
(515,0,o),
(682,245,o),
(682,454,cs),
(682,608,o),
(592,740,o),
(388,740,cs),
(231,740,l),
(221,706,l),
(388,706,ls),
(567,706,o),
(646,590,o),
(646,451,cs),
(646,261,o),
(494,34,o),
(224,34,cs),
(30,34,l),
(20,0,l)
);
},
{
closed = 1;
nodes = (
(52,0,l),
(263,740,l),
(228,740,l),
(17,0,l)
);
}
);
width = 718;
}
);
leftKerningGroup = h;
rightKerningGroup = O;
unicode = 68;
},
{
glyphname = Eth;
layers = (
{
anchors = (
{
name = bottom;
position = "{293, 0}";
},
{
name = center;
position = "{399, 370}";
},
{
name = ogonek;
position = "{191, 0}";
},
{
name = top;
position = "{487, 740}";
},
{
name = topleft;
position = "{177, 736}";
}
);
layerId = "93E21930-75C2-41BF-8A43-E6E4C907605A";
shapes = (
{
closed = 1;
nodes = (
(374,296,l),
(416,444,l),
(26,444,l),
(-16,296,l)
);
},
{
closed = 1;
nodes = (
(303,0,ls),
(612,0,o),
(773,222,o),
(773,423,cs),
(773,590,o),
(664,740,o),
(433,740,cs),
(354,740,l),
(307,572,l),
(417,572,ls),
(530,572,o),
(587,496,o),
(587,408,cs),
(587,298,o),
(497,171,o),
(329,171,cs),
(191,171,l),
(143,0,l)
);
},
{
closed = 1;
nodes = (
(191,0,l),
(400,740,l),
(208,740,l),
(-1,0,l)
);
}
);
width = 780;
},
{
anchors = (
{
name = bottom;
position = "{312, 0}";
},
{
name = center;
position = "{418, 370}";
},
{
name = ogonek;
position = "{157, 0}";
},
{
name = top;
position = "{482, 740}";
},
{
name = topleft;
position = "{202, 700}";
}
);
layerId = "359D7F19-8117-4ED1-B668-DF5CE9F2FE65";
shapes = (
{
closed = 1;
nodes = (
(395,329,l),
(420,414,l),
(66,414,l),
(41,329,l)
);
},
{
closed = 1;
nodes = (
(287,0,ls),
(564,0,o),
(726,242,o),
(726,450,cs),
(726,606,o),
(635,740,o),
(429,740,cs),
(312,740,l),
(289,654,l),
(414,654,ls),
(563,654,o),
(625,558,o),
(625,444,cs),
(625,280,o),
(500,86,o),
(294,86,cs),
(128,86,l),
(103,0,l)
);
},
{
closed = 1;
nodes = (
(157,0,l),
(366,740,l),
(268,740,l),
(59,0,l)
);
}
);
width = 738;
},
{
anchors = (
{
name = bottom;
position = "{307, 0}";
},
{
name = center;
position = "{413, 370}";
},
{
name = ogonek;
position = "{95, 0}";
},
{
name = top;
position = "{466, 740}";
},
{
name = topleft;
position = "{197, 740}";
}
);
layerId = "E9FAC699-F089-4894-B74F-1DA0D3D12BF3";
shapes = (
{
closed = 1;
nodes = (
(357,354,l),
(365,386,l),
(66,386,l),
(57,354,l)
);
},
{
closed = 1;
nodes = (
(267,0,ls),
(558,0,o),
(725,245,o),
(725,454,cs),
(725,608,o),
(633,740,o),
(431,740,cs),
(272,740,l),
(264,706,l),
(431,706,ls),
(608,706,o),
(689,590,o),
(689,451,cs),
(689,261,o),
(537,34,o),
(267,34,cs),
(73,34,l),
(63,0,l)
);
},
{
closed = 1;
nodes = (
(95,0,l),
(304,740,l),
(269,740,l),
(60,0,l)
);
}
);
width = 763;
}
);
rightKerningGroup = O;
unicode = 208;
},
{
glyphname = Dcaron;
layers = (
{
anchors = (
{
name = bottom;
position = "{277, 0}";
},
{
name = center;
position = "{383, 370}";
},
{
name = ogonek;
position = "{175, 0}";
},
{
name = top;
position = "{540, 996}";
},
{
name = topleft;
position = "{161, 736}";
}
);
layerId = "93E21930-75C2-41BF-8A43-E6E4C907605A";
shapes = (
{
closed = 1;
nodes = (
(287,0,ls),
(596,0,o),
(757,222,o),
(757,423,cs),
(757,590,o),
(648,740,o),
(417,740,cs),
(338,740,l),
(291,572,l),
(401,572,ls),
(514,572,o),
(571,496,o),
(571,408,cs),
(571,298,o),
(481,171,o),
(313,171,cs),
(175,171,l),
(127,0,l)
);
},
{
closed = 1;
nodes = (
(175,0,l),
(384,740,l),
(192,740,l),
(-18,0,l)
);
},
{
closed = 1;
nodes = (
(566,800,l),
(754,989,l),
(604,989,l),
(474,854,l),
(522,845,l),
(469,989,l),
(337,989,l),
(419,800,l)
);
}
);
width = 764;
},
{
anchors = (
{
name = bottom;
position = "{262, 0}";
},
{
name = center;
position = "{368, 370}";
},
{
name = ogonek;
position = "{107, 0}";
},
{
name = top;
position = "{499, 973}";
},
{
name = topleft;
position = "{152, 700}";
}
);
layerId = "359D7F19-8117-4ED1-B668-DF5CE9F2FE65";
shapes = (
{
closed = 1;
nodes = (
(237,0,ls),
(514,0,o),
(676,242,o),
(676,450,cs),
(676,606,o),
(585,740,o),
(379,740,cs),
(262,740,l),
(239,654,l),
(364,654,ls),
(513,654,o),
(575,558,o),
(575,444,cs),
(575,280,o),
(450,86,o),
(244,86,cs),
(78,86,l),
(53,0,l)
);
},
{
closed = 1;
nodes = (
(107,0,l),
(316,740,l),
(218,740,l),
(9,0,l)
);
},
{
closed = 1;
nodes = (
(488,819,l),
(656,986,l),
(562,986,l),
(426,847,l),
(474,838,l),
(411,986,l),
(333,986,l),
(407,819,l)
);
}
);
width = 688;
},
{
anchors = (
{
name = bottom;
position = "{262, 0}";
},
{
name = center;
position = "{368, 370}";
},
{
name = ogonek;
position = "{50, 0}";
},
{
name = top;
position = "{485, 970}";
},
{
name = topleft;
position = "{152, 740}";
}
);
layerId = "E9FAC699-F089-4894-B74F-1DA0D3D12BF3";
shapes = (
{
closed = 1;
nodes = (
(222,0,ls),
(513,0,o),
(680,245,o),
(680,454,cs),
(680,608,o),
(588,740,o),
(386,740,cs),
(227,740,l),
(219,706,l),
(386,706,ls),
(563,706,o),
(644,590,o),
(644,451,cs),
(644,261,o),
(492,34,o),
(222,34,cs),
(28,34,l),
(18,0,l)
);
},
{
closed = 1;
nodes = (
(50,0,l),
(259,740,l),
(224,740,l),
(15,0,l)
);
},
{
closed = 1;
nodes = (
(454,818,l),
(608,970,l),
(564,970,l),
(427,832,l),
(444,832,l),
(385,970,l),
(349,970,l),
(417,818,l)
);
}
);
width = 718;
}
);
leftKerningGroup = h;
rightKerningGroup = O;
unicode = 270;
},
{
glyphname = Dcroat;
rightMetricsKey = O;
layers = (
{
anchors = (
{
name = bottom;
position = "{293, 0}";
},
{
name = center;
position = "{399, 370}";
},
{
name = ogonek;
position = "{191, 0}";
},
{
name = top;
position = "{487, 740}";
},
{
name = topleft;
position = "{177, 736}";
}
);
layerId = "93E21930-75C2-41BF-8A43-E6E4C907605A";
shapes = (
{
closed = 1;
nodes = (
(374,296,l),
(416,444,l),
(26,444,l),
(-16,296,l)
);
},
{
closed = 1;
nodes = (
(303,0,ls),
(612,0,o),
(773,222,o),
(773,423,cs),
(773,590,o),
(664,740,o),
(433,740,cs),
(354,740,l),
(307,572,l),
(417,572,ls),
(530,572,o),
(587,496,o),
(587,408,cs),
(587,298,o),
(497,171,o),
(329,171,cs),
(191,171,l),
(143,0,l)
);
},
{
closed = 1;
nodes = (
(191,0,l),
(400,740,l),
(208,740,l),
(-1,0,l)
);
}
);
width = 779;
},
{
anchors = (
{
name = bottom;
position = "{312, 0}";
},
{
name = center;
position = "{418, 370}";
},
{
name = ogonek;
position = "{157, 0}";
},
{
name = top;
position = "{482, 740}";
},
{
name = topleft;
position = "{202, 700}";
}
);
layerId = "359D7F19-8117-4ED1-B668-DF5CE9F2FE65";
shapes = (
{
closed = 1;
nodes = (
(395,329,l),
(420,414,l),
(66,414,l),
(41,329,l)
);
},
{
closed = 1;
nodes = (
(287,0,ls),
(564,0,o),
(726,242,o),
(726,450,cs),
(726,606,o),
(635,740,o),
(429,740,cs),
(312,740,l),
(289,654,l),
(414,654,ls),
(563,654,o),
(625,558,o),
(625,444,cs),
(625,280,o),
(500,86,o),
(294,86,cs),
(128,86,l),
(103,0,l)
);
},
{
closed = 1;
nodes = (
(157,0,l),
(366,740,l),
(268,740,l),
(59,0,l)
);
}
);
width = 738;
},
{
anchors = (
{
name = bottom;
position = "{307, 0}";
},
{
name = center;
position = "{413, 370}";
},
{
name = ogonek;
position = "{95, 0}";
},
{
name = top;
position = "{466, 740}";
},
{
name = topleft;
position = "{197, 740}";
}
);
layerId = "E9FAC699-F089-4894-B74F-1DA0D3D12BF3";
shapes = (
{
closed = 1;
nodes = (
(357,354,l),
(365,386,l),
(66,386,l),
(57,354,l)
);
},
{
closed = 1;
nodes = (
(267,0,ls),
(558,0,o),
(725,245,o),
(725,454,cs),
(725,608,o),
(633,740,o),
(431,740,cs),
(272,740,l),
(264,706,l),
(431,706,ls),
(608,706,o),
(689,590,o),
(689,451,cs),
(689,261,o),
(537,34,o),
(267,34,cs),
(73,34,l),
(63,0,l)
);
},
{
closed = 1;
nodes = (
(95,0,l),
(304,740,l),
(269,740,l),
(60,0,l)
);
}
);
width = 761;
}
);
rightKerningGroup = O;
unicode = 272;
},
{
glyphname = E;
leftMetricsKey = l;
layers = (
{
anchors = (
{
name = bottom;
position = "{257, 0}";
},
{
name = ogonek;
position = "{510, 0}";
},
{
name = top;
position = "{452, 740}";
},
{
name = topleft;
position = "{230, 736}";
}
);
layerId = "93E21930-75C2-41BF-8A43-E6E4C907605A";
shapes = (
{
closed = 1;
nodes = (
(557,296,l),
(603,454,l),
(192,454,l),
(146,296,l)
);
},
{
closed = 1;
nodes = (
(681,574,l),
(728,740,l),
(272,740,l),
(225,574,l)
);
},
{
closed = 1;
nodes = (
(523,0,l),
(570,166,l),
(109,166,l),
(62,0,l)
);
},
{
closed = 1;
nodes = (
(177,0,l),
(386,740,l),
(194,740,l),
(-15,0,l)
);
}
);
width = 634;
},
{
anchors = (
{
name = bottom;
position = "{292, 0}";
},
{
name = ogonek;
position = "{460, 0}";
},
{
name = top;
position = "{433, 740}";
},
{
name = topleft;
position = "{234, 700}";
}
);
layerId = "359D7F19-8117-4ED1-B668-DF5CE9F2FE65";
shapes = (
{
closed = 1;
nodes = (
(504,334,l),
(529,420,l),
(223,420,l),
(198,334,l)
);
},
{
closed = 1;
nodes = (
(641,654,l),
(666,740,l),
(313,740,l),
(289,654,l)
);
},
{
closed = 1;
nodes = (
(460,0,l),
(485,86,l),
(128,86,l),
(103,0,l)
);
},
{
closed = 1;
nodes = (
(109,0,l),
(318,740,l),
(220,740,l),
(11,0,l)
);
}
);
width = 608;
},
{
anchors = (
{
name = bottom;
position = "{199, 0}";
},
{
name = ogonek;
position = "{435, 0}";
},
{
name = top;
position = "{408, 740}";
},
{
name = topleft;
position = "{223, 700}";
}
);
layerId = "E9FAC699-F089-4894-B74F-1DA0D3D12BF3";
shapes = (
{
closed = 1;
nodes = (
(484,362,l),
(492,396,l),
(154,396,l),
(145,362,l)
);
},
{
closed = 1;
nodes = (
(630,706,l),
(639,740,l),
(252,740,l),
(242,706,l)
);
},
{
closed = 1;
nodes = (
(435,0,l),
(445,34,l),
(51,34,l),
(42,0,l)
);
},
{
closed = 1;
nodes = (
(52,0,l),
(263,740,l),
(228,740,l),
(17,0,l)
);
}
);
width = 545;
}
);
leftKerningGroup = l;
rightKerningGroup = E;
unicode = 69;
},
{
glyphname = Ecaron;
layers = (
{
anchors = (
{
name = bottom;
position = "{254, 0}";
},
{
name = ogonek;
position = "{508, 0}";
},
{
name = top;
position = "{519, 996}";
},
{
name = topleft;
position = "{228, 736}";
}
);
layerId = "93E21930-75C2-41BF-8A43-E6E4C907605A";
shapes = (
{
closed = 1;
nodes = (
(541,296,l),
(587,454,l),
(189,454,l),
(144,296,l)
);
},
{
closed = 1;
nodes = (
(665,574,l),
(712,740,l),
(269,740,l),
(223,574,l)
);
},
{
closed = 1;
nodes = (
(508,0,l),
(554,166,l),
(107,166,l),
(60,0,l)
);
},
{
closed = 1;
nodes = (
(175,0,l),
(384,740,l),
(192,740,l),
(-18,0,l)
);
},
{
closed = 1;
nodes = (
(545,800,l),
(733,989,l),
(583,989,l),
(453,854,l),
(501,845,l),
(448,989,l),
(316,989,l),
(398,800,l)
);
}
);
width = 629;
},
{
anchors = (
{
name = bottom;
position = "{290, 0}";
},
{
name = ogonek;
position = "{458, 0}";
},
{
name = top;
position = "{496, 973}";
},
{
name = topleft;
position = "{230, 700}";
}
);
layerId = "359D7F19-8117-4ED1-B668-DF5CE9F2FE65";
shapes = (
{
closed = 1;
nodes = (
(502,334,l),
(526,420,l),
(219,420,l),
(196,334,l)
);
},
{
closed = 1;
nodes = (
(639,654,l),
(662,740,l),
(310,740,l),
(287,654,l)
);
},
{
closed = 1;
nodes = (
(458,0,l),
(483,86,l),
(126,86,l),
(101,0,l)
);
},
{
closed = 1;
nodes = (
(107,0,l),
(316,740,l),
(218,740,l),
(9,0,l)
);
},
{
closed = 1;
nodes = (
(487,819,l),
(655,986,l),
(560,986,l),
(424,847,l),
(473,838,l),
(409,986,l),
(332,986,l),
(406,819,l)
);
}
);
width = 604;
},
{
anchors = (
{
name = bottom;
position = "{197, 0}";
},
{
name = ogonek;
position = "{433, 0}";
},
{
name = top;
position = "{470, 970}";
},
{
name = topleft;
position = "{219, 700}";
}
);
layerId = "E9FAC699-F089-4894-B74F-1DA0D3D12BF3";
shapes = (
{
closed = 1;
nodes = (
(480,362,l),
(490,396,l),
(152,396,l),
(142,362,l)
);
},
{
closed = 1;
nodes = (
(628,706,l),
(636,740,l),
(249,740,l),
(240,706,l)
);
},
{
closed = 1;
nodes = (
(433,0,l),
(443,34,l),
(49,34,l),
(40,0,l)
);
},
{
closed = 1;
nodes = (
(50,0,l),
(259,740,l),
(224,740,l),
(15,0,l)
);
},
{
closed = 1;
nodes = (
(439,818,l),
(593,970,l),
(547,970,l),
(412,832,l),
(428,832,l),
(370,970,l),
(334,970,l),
(402,818,l)
);
}
);
width = 543;
}
);
leftKerningGroup = l;
rightKerningGroup = E;
unicode = 282;
},
{
glyphname = Ecircumflex;
layers = (
{
anchors = (
{
name = bottom;
position = "{254, 0}";
},
{
name = ogonek;
position = "{508, 0}";
},
{
name = top;
position = "{679, 860}";
},
{
name = topleft;
position = "{228, 736}";
}
);
layerId = "93E21930-75C2-41BF-8A43-E6E4C907605A";
shapes = (
{
closed = 1;
nodes = (
(541,296,l),
(587,454,l),
(189,454,l),
(144,296,l)
);
},
{
closed = 1;
nodes = (
(665,574,l),
(712,740,l),
(269,740,l),
(223,574,l)
);
},
{
closed = 1;
nodes = (
(508,0,l),
(554,166,l),
(107,166,l),
(60,0,l)
);
},
{
closed = 1;
nodes = (
(175,0,l),
(384,740,l),
(192,740,l),
(-18,0,l)
);
},
{
closed = 1;
nodes = (
(401,799,l),
(492,885,l),
(536,799,l),
(666,799,l),
(577,958,l),
(430,958,l),
(249,799,l)
);
}
);
width = 629;
},
{
anchors = (
{
name = bottom;
position = "{290, 0}";
},
{
name = ogonek;
position = "{458, 0}";
},
{
name = top;
position = "{605, 864}";
},
{
name = topleft;
position = "{230, 700}";
}
);
layerId = "359D7F19-8117-4ED1-B668-DF5CE9F2FE65";
shapes = (
{
closed = 1;
nodes = (
(502,334,l),
(526,420,l),
(219,420,l),
(196,334,l)
);
},
{
closed = 1;
nodes = (
(639,654,l),
(662,740,l),
(310,740,l),
(287,654,l)
);
},
{
closed = 1;
nodes = (
(458,0,l),
(483,86,l),
(126,86,l),
(101,0,l)
);
},
{
closed = 1;
nodes = (
(107,0,l),
(316,740,l),
(218,740,l),
(9,0,l)
);
},
{
closed = 1;
nodes = (
(372,816,l),
(473,911,l),
(523,816,l),
(602,816,l),
(521,963,l),
(440,963,l),
(279,816,l)
);
}
);
width = 604;
},
{
anchors = (
{
name = bottom;
position = "{197, 0}";
},
{
name = ogonek;
position = "{433, 0}";
},
{
name = top;
position = "{570, 849}";
},
{
name = topleft;
position = "{219, 700}";
}
);
layerId = "E9FAC699-F089-4894-B74F-1DA0D3D12BF3";
shapes = (
{
closed = 1;
nodes = (
(480,362,l),
(490,396,l),
(152,396,l),
(142,362,l)
);
},
{
closed = 1;
nodes = (
(628,706,l),
(636,740,l),
(249,740,l),
(240,706,l)
);
},
{
closed = 1;
nodes = (
(433,0,l),
(443,34,l),
(49,34,l),
(40,0,l)
);
},
{
closed = 1;
nodes = (
(50,0,l),
(259,740,l),
(224,740,l),
(15,0,l)
);
},
{
closed = 1;
nodes = (
(346,818,l),
(466,931,l),
(524,818,l),
(558,818,l),
(487,956,l),
(450,956,l),
(299,818,l)
);
}
);
width = 543;
}
);
leftKerningGroup = l;
rightKerningGroup = E;
unicode = 202;
},
{
glyphname = Ecircumflexacute;
layers = (
{
anchors = (
{
name = bottom;
position = "{254, 0}";
},
{
name = ogonek;
position = "{508, 0}";
},
{
name = top;
position = "{450, 740}";
},
{
name = topleft;
position = "{228, 736}";
}
);
layerId = "93E21930-75C2-41BF-8A43-E6E4C907605A";
shapes = (
{
closed = 1;
nodes = (
(541,296,l),
(587,454,l),
(189,454,l),
(144,296,l)
);
},
{
closed = 1;
nodes = (
(665,574,l),
(712,740,l),
(269,740,l),
(223,574,l)
);
},
{
closed = 1;
nodes = (
(508,0,l),
(554,166,l),
(107,166,l),
(60,0,l)
);
},
{
closed = 1;
nodes = (
(175,0,l),
(384,740,l),
(192,740,l),
(-18,0,l)
);
},
{
closed = 1;
nodes = (
(402,799,l),
(485,855,l),
(537,799,l),
(667,799,l),
(562,902,l),
(415,902,l),
(250,799,l)
);
},
{
closed = 1;
nodes = (
(863,1001,l),
(693,1001,l),
(633,884,l),
(766,884,l)
);
}
);
width = 629;
},
{
anchors = (
{
name = bottom;
position = "{290, 0}";
},
{
name = ogonek;
position = "{458, 0}";
},
{
name = top;
position = "{431, 740}";
},
{
name = topleft;
position = "{230, 700}";
}
);
layerId = "359D7F19-8117-4ED1-B668-DF5CE9F2FE65";
shapes = (
{
closed = 1;
nodes = (
(502,334,l),
(526,420,l),
(219,420,l),
(196,334,l)
);
},
{
closed = 1;
nodes = (
(639,654,l),
(662,740,l),
(310,740,l),
(287,654,l)
);
},
{
closed = 1;
nodes = (
(458,0,l),
(483,86,l),
(126,86,l),
(101,0,l)
);
},
{
closed = 1;
nodes = (
(107,0,l),
(316,740,l),
(218,740,l),
(9,0,l)
);
},
{
closed = 1;
nodes = (
(385,810,l),
(475,872,l),
(536,810,l),
(613,810,l),
(520,906,l),
(439,906,l),
(290,810,l)
);
},
{
closed = 1;
nodes = (
(772,1011,l),
(678,1011,l),
(600,894,l),
(676,893,l)
);
}
);
width = 604;
},
{
anchors = (
{
name = bottom;
position = "{197, 0}";
},
{
name = ogonek;
position = "{433, 0}";
},
{
name = top;
position = "{406, 740}";
},
{
name = topleft;
position = "{219, 700}";
}
);
layerId = "E9FAC699-F089-4894-B74F-1DA0D3D12BF3";
shapes = (
{
closed = 1;
nodes = (
(480,362,l),
(490,396,l),
(152,396,l),
(142,362,l)
);
},
{
closed = 1;
nodes = (
(628,706,l),
(636,740,l),
(249,740,l),
(240,706,l)
);
},
{
closed = 1;
nodes = (
(433,0,l),
(443,34,l),
(49,34,l),
(40,0,l)
);
},
{
closed = 1;
nodes = (
(50,0,l),
(259,740,l),
(224,740,l),
(15,0,l)
);
},
{
closed = 1;
nodes = (
(344,811,l),
(453,880,l),
(520,811,l),
(556,811,l),
(472,901,l),
(435,901,l),
(297,811,l)
);
},
{
closed = 1;
nodes = (
(652,988,l),
(616,988,l),
(561,889,l),
(590,889,l)
);
}
);
width = 543;
}
);
leftKerningGroup = l;
rightKerningGroup = E;
unicode = 7870;
},
{
glyphname = Ecircumflexdotbelow;
layers = (
{
anchors = (
{
name = bottom;
position = "{182, -256}";
},
{
name = ogonek;
position = "{508, 0}";
},
{
name = top;
position = "{679, 860}";
},
{
name = topleft;
position = "{228, 736}";
}
);
layerId = "93E21930-75C2-41BF-8A43-E6E4C907605A";
shapes = (
{
closed = 1;
nodes = (
(541,296,l),
(587,454,l),
(189,454,l),
(144,296,l)
);
},
{
closed = 1;
nodes = (
(665,574,l),
(712,740,l),
(269,740,l),
(223,574,l)
);
},
{
closed = 1;
nodes = (
(508,0,l),
(554,166,l),
(107,166,l),
(60,0,l)
);
},
{
closed = 1;
nodes = (
(175,0,l),
(384,740,l),
(192,740,l),
(-18,0,l)
);
},
{
closed = 1;
nodes = (
(257,-260,o),
(295,-220,o),
(295,-171,cs),
(295,-121,o),
(257,-82,o),
(206,-82,cs),
(153,-82,o),
(117,-121,o),
(117,-171,cs),
(117,-220,o),
(153,-260,o),
(206,-260,cs)
);
},
{
closed = 1;
nodes = (
(401,799,l),
(492,885,l),
(536,799,l),
(666,799,l),
(577,958,l),
(430,958,l),
(249,799,l)
);
}
);
width = 629;
},
{
anchors = (
{
name = bottom;
position = "{226, -219}";
},
{
name = ogonek;
position = "{458, 0}";
},
{
name = top;
position = "{605, 864}";
},
{
name = topleft;
position = "{230, 700}";
}
);
layerId = "359D7F19-8117-4ED1-B668-DF5CE9F2FE65";
shapes = (
{
closed = 1;
nodes = (
(502,334,l),
(526,420,l),
(219,420,l),
(196,334,l)
);
},
{
closed = 1;
nodes = (
(639,654,l),
(662,740,l),
(310,740,l),
(287,654,l)
);
},
{
closed = 1;
nodes = (
(458,0,l),
(483,86,l),
(126,86,l),
(101,0,l)
);
},
{
closed = 1;
nodes = (
(107,0,l),
(316,740,l),
(218,740,l),
(9,0,l)
);
},
{
closed = 1;
nodes = (
(281,-227,o),
(309,-198,o),
(309,-162,cs),
(309,-126,o),
(281,-97,o),
(244,-97,cs),
(206,-97,o),
(179,-126,o),
(179,-162,cs),
(179,-197,o),
(206,-227,o),
(244,-227,cs)
);
},
{
closed = 1;
nodes = (
(372,816,l),
(473,911,l),
(523,816,l),
(602,816,l),
(521,963,l),
(440,963,l),
(279,816,l)
);
}
);
width = 604;
},
{
anchors = (
{
name = bottom;
position = "{143, -189}";
},
{
name = ogonek;
position = "{433, 0}";
},
{
name = top;
position = "{570, 849}";
},
{
name = topleft;
position = "{219, 700}";
}
);
layerId = "E9FAC699-F089-4894-B74F-1DA0D3D12BF3";
shapes = (
{
closed = 1;
nodes = (
(480,362,l),
(490,396,l),
(152,396,l),
(142,362,l)
);
},
{
closed = 1;
nodes = (
(628,706,l),
(636,740,l),
(249,740,l),
(240,706,l)
);
},
{
closed = 1;
nodes = (
(433,0,l),
(443,34,l),
(49,34,l),
(40,0,l)
);
},
{
closed = 1;
nodes = (
(50,0,l),
(259,740,l),
(224,740,l),
(15,0,l)
);
},
{
closed = 1;
nodes = (
(174,-192,o),
(191,-175,o),
(191,-154,cs),
(191,-134,o),
(174,-117,o),
(153,-117,cs),
(132,-117,o),
(116,-134,o),
(116,-154,cs),
(116,-175,o),
(132,-192,o),
(153,-192,cs)
);
},
{
closed = 1;
nodes = (
(346,818,l),
(466,931,l),
(524,818,l),
(558,818,l),
(487,956,l),
(450,956,l),
(299,818,l)
);
}
);
width = 543;
}
);
leftKerningGroup = l;
rightKerningGroup = E;
unicode = 7878;
},
{
glyphname = Ecircumflexgrave;
layers = (
{
anchors = (
{
name = bottom;
position = "{254, 0}";
},
{
name = ogonek;
position = "{508, 0}";
},
{
name = top;
position = "{299, 1281}";
},
{
name = topleft;
position = "{228, 736}";
}
);
layerId = "93E21930-75C2-41BF-8A43-E6E4C907605A";
shapes = (
{
closed = 1;
nodes = (
(541,296,l),
(587,454,l),
(189,454,l),
(144,296,l)
);
},
{
closed = 1;
nodes = (
(665,574,l),
(712,740,l),
(269,740,l),
(223,574,l)
);
},
{
closed = 1;
nodes = (
(508,0,l),
(554,166,l),
(107,166,l),
(60,0,l)
);
},
{
closed = 1;
nodes = (
(175,0,l),
(384,740,l),
(192,740,l),
(-18,0,l)
);
},
{
closed = 1;
nodes = (
(401,799,l),
(485,855,l),
(536,799,l),
(666,799,l),
(562,902,l),
(415,902,l),
(249,799,l)
);
},
{
closed = 1;
nodes = (
(762,884,l),
(681,1001,l),
(518,1001,l),
(635,884,l)
);
}
);
width = 629;
},
{
anchors = (
{
name = bottom;
position = "{290, 0}";
},
{
name = ogonek;
position = "{458, 0}";
},
{
name = top;
position = "{296, 1100}";
},
{
name = topleft;
position = "{230, 700}";
}
);
layerId = "359D7F19-8117-4ED1-B668-DF5CE9F2FE65";
shapes = (
{
closed = 1;
nodes = (
(502,334,l),
(526,420,l),
(219,420,l),
(196,334,l)
);
},
{
closed = 1;
nodes = (
(639,654,l),
(662,740,l),
(310,740,l),
(287,654,l)
);
},
{
closed = 1;
nodes = (
(458,0,l),
(483,86,l),
(126,86,l),
(101,0,l)
);
},
{
closed = 1;
nodes = (
(107,0,l),
(316,740,l),
(218,740,l),
(9,0,l)
);
},
{
closed = 1;
nodes = (
(385,810,l),
(475,872,l),
(536,810,l),
(613,810,l),
(520,906,l),
(439,906,l),
(290,810,l)
);
},
{
closed = 1;
nodes = (
(674,894,l),
(597,1011,l),
(506,1011,l),
(599,893,l)
);
}
);
width = 604;
},
{
anchors = (
{
name = bottom;
position = "{197, 0}";
},
{
name = ogonek;
position = "{433, 0}";
},
{
name = top;
position = "{680, 1100}";
},
{
name = topleft;
position = "{219, 700}";
}
);
layerId = "E9FAC699-F089-4894-B74F-1DA0D3D12BF3";
shapes = (
{
closed = 1;
nodes = (
(480,362,l),
(490,396,l),
(152,396,l),
(142,362,l)
);
},
{
closed = 1;
nodes = (
(628,706,l),
(636,740,l),
(249,740,l),
(240,706,l)
);
},
{
closed = 1;
nodes = (
(433,0,l),
(443,34,l),
(49,34,l),
(40,0,l)
);
},
{
closed = 1;
nodes = (
(50,0,l),
(259,740,l),
(224,740,l),
(15,0,l)
);
},
{
closed = 1;
nodes = (
(344,811,l),
(453,880,l),
(521,811,l),
(556,811,l),
(473,901,l),
(436,901,l),
(297,811,l)
);
},
{
closed = 1;
nodes = (
(587,889,l),
(531,988,l),
(498,988,l),
(561,889,l)
);
}
);
width = 543;
}
);
leftKerningGroup = l;
rightKerningGroup = E;
unicode = 7872;
},
{
glyphname = Ecircumflexhoi;
layers = (
{
anchors = (
{
name = bottom;
position = "{254, 0}";
},
{
name = ogonek;
position = "{508, 0}";
},
{
name = top;
position = "{450, 740}";
},
{
name = topleft;
position = "{228, 736}";
}
);
layerId = "93E21930-75C2-41BF-8A43-E6E4C907605A";
shapes = (
{
closed = 1;
nodes = (
(541,296,l),
(587,454,l),
(189,454,l),
(144,296,l)
);
},
{
closed = 1;
nodes = (
(665,574,l),
(712,740,l),
(269,740,l),
(223,574,l)
);
},
{
closed = 1;
nodes = (
(508,0,l),
(554,166,l),
(107,166,l),
(60,0,l)
);
},
{
closed = 1;
nodes = (
(175,0,l),
(384,740,l),
(192,740,l),
(-18,0,l)
);
},
{
closed = 1;
nodes = (
(403,799,l),
(486,855,l),
(538,799,l),
(669,799,l),
(563,902,l),
(416,902,l),
(252,799,l)
);
},
{
closed = 1;
nodes = (
(725,869,l),
(740,915,l),
(688,873,l),
(735,889,l),
(759,898,o),
(845,916,o),
(845,961,cs),
(845,1019,o),
(746,1032,o),
(709,1032,cs),
(542,1032,o),
(562,940,o),
(561,952,c),
(662,952,l),
(662,952,o),
(661,975,o),
(700,975,cs),
(721,975,o),
(734,967,o),
(734,958,cs),
(734,947,o),
(722,937,o),
(683,926,cs),
(666,921,ls),
(642,914,o),
(631,903,o),
(628,891,cs),
(623,869,l)
);
}
);
width = 629;
},
{
anchors = (
{
name = bottom;
position = "{290, 0}";
},
{
name = ogonek;
position = "{458, 0}";
},
{
name = top;
position = "{431, 740}";
},
{
name = topleft;
position = "{230, 700}";
}
);
layerId = "359D7F19-8117-4ED1-B668-DF5CE9F2FE65";
shapes = (
{
closed = 1;
nodes = (
(502,334,l),
(526,420,l),
(219,420,l),
(196,334,l)
);
},
{
closed = 1;
nodes = (
(639,654,l),
(662,740,l),
(310,740,l),
(287,654,l)
);
},
{
closed = 1;
nodes = (
(458,0,l),
(483,86,l),
(126,86,l),
(101,0,l)
);
},
{
closed = 1;
nodes = (
(107,0,l),
(316,740,l),
(218,740,l),
(9,0,l)
);
},
{
closed = 1;
nodes = (
(371,810,l),
(462,872,l),
(522,810,l),
(600,810,l),
(506,906,l),
(425,906,l),
(277,810,l)
);
},
{
closed = 1;
nodes = (
(637,883,l),
(649,921,l),
(607,894,l),
(632,899,l),
(691,914,o),
(737,932,o),
(737,967,cs),
(737,992,o),
(704,1021,o),
(632,1021,cs),
(521,1021,o),
(534,950,o),
(532,961,c),
(588,961,l),
(588,959,o),
(584,989,o),
(635,989,cs),
(662,989,o),
(678,978,o),
(678,967,cs),
(678,952,o),
(660,942,o),
(622,930,c),
(607,924,l),
(597,921,o),
(585,915,o),
(583,905,c),
(577,883,l)
);
}
);
width = 604;
},
{
anchors = (
{
name = bottom;
position = "{197, 0}";
},
{
name = ogonek;
position = "{433, 0}";
},
{
name = top;
position = "{406, 740}";
},
{
name = topleft;
position = "{219, 700}";
}
);
layerId = "E9FAC699-F089-4894-B74F-1DA0D3D12BF3";
shapes = (
{
closed = 1;
nodes = (
(480,362,l),
(490,396,l),
(152,396,l),
(142,362,l)
);
},
{
closed = 1;
nodes = (
(628,706,l),
(636,740,l),
(249,740,l),
(240,706,l)
);
},
{
closed = 1;
nodes = (
(433,0,l),
(443,34,l),
(49,34,l),
(40,0,l)
);
},
{
closed = 1;
nodes = (
(50,0,l),
(259,740,l),
(224,740,l),
(15,0,l)
);
},
{
closed = 1;
nodes = (
(344,811,l),
(453,880,l),
(521,811,l),
(556,811,l),
(473,901,l),
(436,901,l),
(297,811,l)
);
},
{
closed = 1;
nodes = (
(583,880,l),
(592,913,l),
(565,894,l),
(590,901,ls),
(647,917,o),
(680,934,o),
(680,961,cs),
(680,982,o),
(654,1004,o),
(601,1004,cs),
(509,1004,o),
(519,943,o),
(518,954,c),
(547,954,l),
(547,949,o),
(541,981,o),
(599,981,cs),
(631,981,o),
(650,973,o),
(650,961,cs),
(650,943,o),
(634,937,o),
(593,925,cs),
(578,921,l),
(569,918,o),
(564,913,o),
(562,906,cs),
(555,880,l)
);
}
);
width = 543;
}
);
leftKerningGroup = l;
rightKerningGroup = E;
unicode = 7874;
},
{
glyphname = Ecircumflextilde;
layers = (
{
anchors = (
{
name = bottom;
position = "{254, 0}";
},
{
name = ogonek;
position = "{508, 0}";
},
{
name = top;
position = "{292, 1174}";
},
{
name = topleft;
position = "{228, 736}";
}
);
layerId = "93E21930-75C2-41BF-8A43-E6E4C907605A";
shapes = (
{
closed = 1;
nodes = (
(541,296,l),
(587,454,l),
(189,454,l),
(144,296,l)
);
},
{
closed = 1;
nodes = (
(665,574,l),
(712,740,l),
(269,740,l),
(223,574,l)
);
},
{
closed = 1;
nodes = (
(508,0,l),
(554,166,l),
(107,166,l),
(60,0,l)
);
},
{
closed = 1;
nodes = (
(175,0,l),
(384,740,l),
(192,740,l),
(-18,0,l)
);
},
{
closed = 1;
nodes = (
(402,799,l),
(485,855,l),
(537,799,l),
(667,799,l),
(562,902,l),
(415,902,l),
(250,799,l)
);
},
{
closed = 1;
nodes = (
(672,924,o),
(693,974,o),
(708,1028,c),
(615,1028,l),
(608,1005,o),
(598,993,o),
(579,993,cs),
(545,993,o),
(512,1032,o),
(439,1032,cs),
(348,1032,o),
(328,983,o),
(314,928,c),
(407,928,l),
(413,950,o),
(423,963,o),
(442,963,cs),
(477,963,o),
(509,924,o),
(582,924,cs)
);
}
);
width = 629;
},
{
anchors = (
{
name = bottom;
position = "{290, 0}";
},
{
name = ogonek;
position = "{458, 0}";
},
{
name = top;
position = "{268, 1098}";
},
{
name = topleft;
position = "{230, 700}";
}
);
layerId = "359D7F19-8117-4ED1-B668-DF5CE9F2FE65";
shapes = (
{
closed = 1;
nodes = (
(502,334,l),
(526,420,l),
(219,420,l),
(196,334,l)
);
},
{
closed = 1;
nodes = (
(639,654,l),
(662,740,l),
(310,740,l),
(287,654,l)
);
},
{
closed = 1;
nodes = (
(458,0,l),
(483,86,l),
(126,86,l),
(101,0,l)
);
},
{
closed = 1;
nodes = (
(107,0,l),
(316,740,l),
(218,740,l),
(9,0,l)
);
},
{
closed = 1;
nodes = (
(371,810,l),
(462,872,l),
(522,810,l),
(601,810,l),
(507,906,l),
(426,906,l),
(278,810,l)
);
},
{
closed = 1;
nodes = (
(610,930,o),
(634,962,o),
(647,1016,c),
(585,1016,l),
(581,989,o),
(571,974,o),
(548,974,cs),
(511,974,o),
(486,1019,o),
(416,1019,cs),
(357,1019,o),
(332,989,o),
(319,934,c),
(381,934,l),
(386,962,o),
(398,977,o),
(419,977,cs),
(457,977,o),
(484,930,o),
(551,930,cs)
);
}
);
width = 604;
},
{
anchors = (
{
name = bottom;
position = "{197, 0}";
},
{
name = ogonek;
position = "{433, 0}";
},
{
name = top;
position = "{482, 740}";
},
{
name = topleft;
position = "{219, 700}";
}
);
layerId = "E9FAC699-F089-4894-B74F-1DA0D3D12BF3";
shapes = (
{
closed = 1;
nodes = (
(480,362,l),
(490,396,l),
(152,396,l),
(142,362,l)
);
},
{
closed = 1;
nodes = (
(628,706,l),
(636,740,l),
(249,740,l),
(240,706,l)
);
},
{
closed = 1;
nodes = (
(433,0,l),
(443,34,l),
(49,34,l),
(40,0,l)
);
},
{
closed = 1;
nodes = (
(50,0,l),
(259,740,l),
(224,740,l),
(15,0,l)
);
},
{
closed = 1;
nodes = (
(345,811,l),
(454,880,l),
(522,811,l),
(558,811,l),
(474,901,l),
(437,901,l),
(299,811,l)
);
},
{
closed = 1;
nodes = (
(566,927,o),
(590,958,o),
(599,995,c),
(568,995,l),
(562,963,o),
(546,951,o),
(523,951,cs),
(481,951,o),
(476,999,o),
(414,999,cs),
(367,999,o),
(341,971,o),
(332,930,c),
(363,930,l),
(369,959,o),
(385,975,o),
(411,975,cs),
(453,975,o),
(460,927,o),
(520,927,cs)
);
}
);
width = 543;
}
);
leftKerningGroup = l;
rightKerningGroup = E;
unicode = 7876;
},
{
glyphname = Edieresis;
layers = (
{
anchors = (
{
name = bottom;
position = "{254, 0}";
},
{
name = ogonek;
position = "{508, 0}";
},
{
name = top;
position = "{519, 983}";
},
{
name = topleft;
position = "{228, 736}";
}
);
layerId = "93E21930-75C2-41BF-8A43-E6E4C907605A";
shapes = (
{
closed = 1;
nodes = (
(541,296,l),
(587,454,l),
(189,454,l),
(144,296,l)
);
},
{
closed = 1;
nodes = (
(665,574,l),
(712,740,l),
(269,740,l),
(223,574,l)
);
},
{
closed = 1;
nodes = (
(508,0,l),
(554,166,l),
(107,166,l),
(60,0,l)
);
},
{
closed = 1;
nodes = (
(175,0,l),
(384,740,l),
(192,740,l),
(-18,0,l)
);
},
{
closed = 1;
nodes = (
(675,788,o),
(718,832,o),
(718,885,cs),
(718,940,o),
(675,983,o),
(616,983,cs),
(556,983,o),
(514,940,o),
(514,885,cs),
(514,832,o),
(556,788,o),
(616,788,cs)
);
},
{
closed = 1;
nodes = (
(425,788,o),
(468,832,o),
(468,885,cs),
(468,940,o),
(425,983,o),
(366,983,cs),
(306,983,o),
(264,940,o),
(264,885,cs),
(264,832,o),
(306,788,o),
(366,788,cs)
);
}
);
width = 629;
},
{
anchors = (
{
name = bottom;
position = "{290, 0}";
},
{
name = ogonek;
position = "{458, 0}";
},
{
name = top;
position = "{489, 944}";
},
{
name = topleft;
position = "{230, 700}";
}
);
layerId = "359D7F19-8117-4ED1-B668-DF5CE9F2FE65";
shapes = (
{
closed = 1;
nodes = (
(502,334,l),
(526,420,l),
(219,420,l),
(196,334,l)
);
},
{
closed = 1;
nodes = (
(639,654,l),
(662,740,l),
(310,740,l),
(287,654,l)
);
},
{
closed = 1;
nodes = (
(458,0,l),
(483,86,l),
(126,86,l),
(101,0,l)
);
},
{
closed = 1;
nodes = (
(107,0,l),
(316,740,l),
(218,740,l),
(9,0,l)
);
},
{
closed = 1;
nodes = (
(602,821,o),
(629,848,o),
(629,882,cs),
(629,916,o),
(602,944,o),
(567,944,cs),
(531,944,o),
(505,916,o),
(505,882,cs),
(505,849,o),
(531,821,o),
(567,821,cs)
);
},
{
closed = 1;
nodes = (
(412,821,o),
(439,848,o),
(439,882,cs),
(439,916,o),
(412,944,o),
(377,944,cs),
(341,944,o),
(315,916,o),
(315,882,cs),
(315,849,o),
(341,821,o),
(377,821,cs)
);
}
);
width = 604;
},
{
anchors = (
{
name = bottom;
position = "{197, 0}";
},
{
name = ogonek;
position = "{433, 0}";
},
{
name = top;
position = "{454, 912}";
},
{
name = topleft;
position = "{219, 700}";
}
);
layerId = "E9FAC699-F089-4894-B74F-1DA0D3D12BF3";
shapes = (
{
closed = 1;
nodes = (
(480,362,l),
(490,396,l),
(152,396,l),
(142,362,l)
);
},
{
closed = 1;
nodes = (
(628,706,l),
(636,740,l),
(249,740,l),
(240,706,l)
);
},
{
closed = 1;
nodes = (
(433,0,l),
(443,34,l),
(49,34,l),
(40,0,l)
);
},
{
closed = 1;
nodes = (
(50,0,l),
(259,740,l),
(224,740,l),
(15,0,l)
);
},
{
closed = 1;
nodes = (
(533,840,o),
(549,856,o),
(549,876,cs),
(549,895,o),
(533,912,o),
(513,912,cs),
(493,912,o),
(478,895,o),
(478,876,cs),
(478,856,o),
(493,840,o),
(513,840,cs)
);
},
{
closed = 1;
nodes = (
(394,840,o),
(410,856,o),
(410,876,cs),
(410,895,o),
(394,912,o),
(374,912,cs),
(354,912,o),
(339,895,o),
(339,876,cs),
(339,856,o),
(354,840,o),
(374,840,cs)
);
}
);
width = 543;
}
);
leftKerningGroup = l;
rightKerningGroup = E;
unicode = 203;
},
{
glyphname = Edotaccent;
layers = (
{
anchors = (
{
name = bottom;
position = "{254, 0}";
},
{
name = ogonek;
position = "{508, 0}";
},
{
name = top;
position = "{523, 992}";
},
{
name = topleft;
position = "{228, 736}";
}
);
layerId = "93E21930-75C2-41BF-8A43-E6E4C907605A";
shapes = (
{
closed = 1;
nodes = (
(541,296,l),
(587,454,l),
(189,454,l),
(144,296,l)
);
},
{
closed = 1;
nodes = (
(665,574,l),
(712,740,l),
(269,740,l),
(223,574,l)
);
},
{
closed = 1;
nodes = (
(508,0,l),
(554,166,l),
(107,166,l),
(60,0,l)
);
},
{
closed = 1;
nodes = (
(175,0,l),
(384,740,l),
(192,740,l),
(-18,0,l)
);
},
{
closed = 1;
nodes = (
(556,793,o),
(602,840,o),
(602,896,cs),
(602,954,o),
(556,1000,o),
(493,1000,cs),
(430,1000,o),
(385,954,o),
(385,896,cs),
(385,840,o),
(430,793,o),
(493,793,cs)
);
}
);
width = 629;
},
{
anchors = (
{
name = bottom;
position = "{290, 0}";
},
{
name = ogonek;
position = "{458, 0}";
},
{
name = top;
position = "{494, 960}";
},
{
name = topleft;
position = "{230, 700}";
}
);
layerId = "359D7F19-8117-4ED1-B668-DF5CE9F2FE65";
shapes = (
{
closed = 1;
nodes = (
(502,334,l),
(526,420,l),
(219,420,l),
(196,334,l)
);
},
{
closed = 1;
nodes = (
(639,654,l),
(662,740,l),
(310,740,l),
(287,654,l)
);
},
{
closed = 1;
nodes = (
(458,0,l),
(483,86,l),
(126,86,l),
(101,0,l)
);
},
{
closed = 1;
nodes = (
(107,0,l),
(316,740,l),
(218,740,l),
(9,0,l)
);
},
{
closed = 1;
nodes = (
(512,835,o),
(539,862,o),
(539,896,cs),
(539,930,o),
(512,958,o),
(477,958,cs),
(441,958,o),
(415,930,o),
(415,896,cs),
(415,863,o),
(441,835,o),
(477,835,cs)
);
}
);
width = 604;
},
{
anchors = (
{
name = bottom;
position = "{197, 0}";
},
{
name = ogonek;
position = "{433, 0}";
},
{
name = top;
position = "{455, 896}";
},
{
name = topleft;
position = "{219, 700}";
}
);
layerId = "E9FAC699-F089-4894-B74F-1DA0D3D12BF3";
shapes = (
{
closed = 1;
nodes = (
(480,362,l),
(490,396,l),
(152,396,l),
(142,362,l)
);
},
{
closed = 1;
nodes = (
(628,706,l),
(636,740,l),
(249,740,l),
(240,706,l)
);
},
{
closed = 1;
nodes = (
(433,0,l),
(443,34,l),
(49,34,l),
(40,0,l)
);
},
{
closed = 1;
nodes = (
(50,0,l),
(259,740,l),
(224,740,l),
(15,0,l)
);
},
{
closed = 1;
nodes = (
(466,839,o),
(482,855,o),
(482,875,cs),
(482,894,o),
(466,911,o),
(446,911,cs),
(426,911,o),
(411,894,o),
(411,875,cs),
(411,855,o),
(426,839,o),
(446,839,cs)
);
}
);
width = 543;
}
);
leftKerningGroup = l;
rightKerningGroup = E;
unicode = 278;
},
{
glyphname = Edotbelow;
layers = (
{
anchors = (
{
name = bottom;
position = "{182, -256}";
},
{
name = ogonek;
position = "{508, 0}";
},
{
name = top;
position = "{450, 740}";
},
{
name = topleft;
position = "{228, 736}";
}
);
layerId = "93E21930-75C2-41BF-8A43-E6E4C907605A";
shapes = (
{
closed = 1;
nodes = (
(541,296,l),
(587,454,l),
(189,454,l),
(144,296,l)
);
},
{
closed = 1;
nodes = (
(665,574,l),
(712,740,l),
(269,740,l),
(223,574,l)
);
},
{
closed = 1;
nodes = (
(508,0,l),
(554,166,l),
(107,166,l),
(60,0,l)
);
},
{
closed = 1;
nodes = (
(175,0,l),
(384,740,l),
(192,740,l),
(-18,0,l)
);
},
{
closed = 1;
nodes = (
(257,-260,o),
(295,-220,o),
(295,-171,cs),
(295,-121,o),
(257,-82,o),
(206,-82,cs),
(153,-82,o),
(117,-121,o),
(117,-171,cs),
(117,-220,o),
(153,-260,o),
(206,-260,cs)
);
}
);
width = 629;
},
{
anchors = (
{
name = bottom;
position = "{226, -219}";
},
{
name = ogonek;
position = "{458, 0}";
},
{
name = top;
position = "{431, 740}";
},
{
name = topleft;
position = "{230, 700}";
}
);
layerId = "359D7F19-8117-4ED1-B668-DF5CE9F2FE65";
shapes = (
{
closed = 1;
nodes = (
(502,334,l),
(526,420,l),
(219,420,l),
(196,334,l)
);
},
{
closed = 1;
nodes = (
(639,654,l),
(662,740,l),
(310,740,l),
(287,654,l)
);
},
{
closed = 1;
nodes = (
(458,0,l),
(483,86,l),
(126,86,l),
(101,0,l)
);
},
{
closed = 1;
nodes = (
(107,0,l),
(316,740,l),
(218,740,l),
(9,0,l)
);
},
{
closed = 1;
nodes = (
(281,-227,o),
(309,-198,o),
(309,-162,cs),
(309,-126,o),
(281,-97,o),
(244,-97,cs),
(206,-97,o),
(179,-126,o),
(179,-162,cs),
(179,-197,o),
(206,-227,o),
(244,-227,cs)
);
}
);
width = 604;
},
{
anchors = (
{
name = bottom;
position = "{143, -189}";
},
{
name = ogonek;
position = "{433, 0}";
},
{
name = top;
position = "{406, 740}";
},
{
name = topleft;
position = "{219, 700}";
}
);
layerId = "E9FAC699-F089-4894-B74F-1DA0D3D12BF3";
shapes = (
{
closed = 1;
nodes = (
(480,362,l),
(490,396,l),
(152,396,l),
(142,362,l)
);
},
{
closed = 1;
nodes = (
(628,706,l),
(636,740,l),
(249,740,l),
(240,706,l)
);
},
{
closed = 1;
nodes = (
(433,0,l),
(443,34,l),
(49,34,l),
(40,0,l)
);
},
{
closed = 1;
nodes = (
(50,0,l),
(259,740,l),
(224,740,l),
(15,0,l)
);
},
{
closed = 1;
nodes = (
(174,-192,o),
(191,-175,o),
(191,-154,cs),
(191,-134,o),
(174,-117,o),
(153,-117,cs),
(132,-117,o),
(116,-134,o),
(116,-154,cs),
(116,-175,o),
(132,-192,o),
(153,-192,cs)
);
}
);
width = 543;
}
);
leftKerningGroup = l;
rightKerningGroup = E;
unicode = 7864;
},
{
glyphname = Egrave;
layers = (
{
anchors = (
{
name = bottom;
position = "{254, 0}";
},
{
name = ogonek;
position = "{508, 0}";
},
{
name = top;
position = "{376, 1050}";
},
{
name = topleft;
position = "{228, 736}";
}
);
layerId = "93E21930-75C2-41BF-8A43-E6E4C907605A";
shapes = (
{
closed = 1;
nodes = (
(541,296,l),
(587,454,l),
(189,454,l),
(144,296,l)
);
},
{
closed = 1;
nodes = (
(665,574,l),
(712,740,l),
(269,740,l),
(223,574,l)
);
},
{
closed = 1;
nodes = (
(508,0,l),
(554,166,l),
(107,166,l),
(60,0,l)
);
},
{
closed = 1;
nodes = (
(175,0,l),
(384,740,l),
(192,740,l),
(-18,0,l)
);
},
{
closed = 1;
nodes = (
(519,810,l),
(456,989,l),
(292,989,l),
(392,809,l)
);
}
);
width = 629;
},
{
anchors = (
{
name = bottom;
position = "{290, 0}";
},
{
name = ogonek;
position = "{458, 0}";
},
{
name = top;
position = "{378, 1009}";
},
{
name = topleft;
position = "{230, 700}";
}
);
layerId = "359D7F19-8117-4ED1-B668-DF5CE9F2FE65";
shapes = (
{
closed = 1;
nodes = (
(502,334,l),
(526,420,l),
(219,420,l),
(196,334,l)
);
},
{
closed = 1;
nodes = (
(639,654,l),
(662,740,l),
(310,740,l),
(287,654,l)
);
},
{
closed = 1;
nodes = (
(458,0,l),
(483,86,l),
(126,86,l),
(101,0,l)
);
},
{
closed = 1;
nodes = (
(107,0,l),
(316,740,l),
(218,740,l),
(9,0,l)
);
},
{
closed = 1;
nodes = (
(476,821,l),
(417,1001,l),
(325,1001,l),
(401,820,l)
);
}
);
width = 604;
},
{
anchors = (
{
name = bottom;
position = "{197, 0}";
},
{
name = ogonek;
position = "{433, 0}";
},
{
name = top;
position = "{422, 980}";
},
{
name = topleft;
position = "{219, 700}";
}
);
layerId = "E9FAC699-F089-4894-B74F-1DA0D3D12BF3";
shapes = (
{
closed = 1;
nodes = (
(480,362,l),
(490,396,l),
(152,396,l),
(142,362,l)
);
},
{
closed = 1;
nodes = (
(628,706,l),
(636,740,l),
(249,740,l),
(240,706,l)
);
},
{
closed = 1;
nodes = (
(433,0,l),
(443,34,l),
(49,34,l),
(40,0,l)
);
},
{
closed = 1;
nodes = (
(50,0,l),
(259,740,l),
(224,740,l),
(15,0,l)
);
},
{
closed = 1;
nodes = (
(439,828,l),
(397,980,l),
(362,980,l),
(412,828,l)
);
}
);
width = 543;
}
);
leftKerningGroup = l;
rightKerningGroup = E;
unicode = 200;
},
{
glyphname = Ehoi;
layers = (
{
anchors = (
{
name = bottom;
position = "{254, 0}";
},
{
name = ogonek;
position = "{508, 0}";
},
{
name = top;
position = "{535, 1038}";
},
{
name = topleft;
position = "{228, 736}";
}
);
layerId = "93E21930-75C2-41BF-8A43-E6E4C907605A";
shapes = (
{
closed = 1;
nodes = (
(541,296,l),
(587,454,l),
(189,454,l),
(144,296,l)
);
},
{
closed = 1;
nodes = (
(665,574,l),
(712,740,l),
(269,740,l),
(223,574,l)
);
},
{
closed = 1;
nodes = (
(508,0,l),
(554,166,l),
(107,166,l),
(60,0,l)
);
},
{
closed = 1;
nodes = (
(175,0,l),
(384,740,l),
(192,740,l),
(-18,0,l)
);
},
{
closed = 1;
nodes = (
(511,795,l),
(533,866,l),
(475,801,l),
(525,825,ls),
(551,837,o),
(645,868,o),
(645,947,cs),
(645,998,o),
(599,1046,o),
(519,1046,cs),
(352,1046,o),
(359,905,o),
(359,923,c),
(460,923,l),
(460,923,o),
(462,957,o),
(502,957,cs),
(522,957,o),
(533,945,o),
(533,931,cs),
(533,915,o),
(518,900,o),
(478,883,cs),
(460,875,ls),
(434,864,o),
(423,847,o),
(418,828,cs),
(409,795,l)
);
}
);
width = 629;
},
{
anchors = (
{
name = bottom;
position = "{290, 0}";
},
{
name = ogonek;
position = "{458, 0}";
},
{
name = top;
position = "{510, 1016}";
},
{
name = topleft;
position = "{230, 700}";
}
);
layerId = "359D7F19-8117-4ED1-B668-DF5CE9F2FE65";
shapes = (
{
closed = 1;
nodes = (
(502,334,l),
(526,420,l),
(219,420,l),
(196,334,l)
);
},
{
closed = 1;
nodes = (
(639,654,l),
(662,740,l),
(310,740,l),
(287,654,l)
);
},
{
closed = 1;
nodes = (
(458,0,l),
(483,86,l),
(126,86,l),
(101,0,l)
);
},
{
closed = 1;
nodes = (
(107,0,l),
(316,740,l),
(218,740,l),
(9,0,l)
);
},
{
closed = 1;
nodes = (
(475,803,l),
(492,862,l),
(446,821,l),
(471,829,l),
(533,853,o),
(586,880,o),
(586,934,cs),
(586,972,o),
(561,1017,o),
(488,1017,cs),
(377,1017,o),
(381,907,o),
(381,923,c),
(436,923,l),
(436,921,o),
(437,966,o),
(487,966,cs),
(514,966,o),
(527,951,o),
(527,934,cs),
(527,909,o),
(506,892,o),
(466,875,c),
(451,868,ls),
(439,862,o),
(427,853,o),
(424,838,c),
(414,803,l)
);
}
);
width = 604;
},
{
anchors = (
{
name = bottom;
position = "{197, 0}";
},
{
name = ogonek;
position = "{433, 0}";
},
{
name = top;
position = "{479, 1002}";
},
{
name = topleft;
position = "{219, 700}";
}
);
layerId = "E9FAC699-F089-4894-B74F-1DA0D3D12BF3";
shapes = (
{
closed = 1;
nodes = (
(480,362,l),
(490,396,l),
(152,396,l),
(142,362,l)
);
},
{
closed = 1;
nodes = (
(628,706,l),
(636,740,l),
(249,740,l),
(240,706,l)
);
},
{
closed = 1;
nodes = (
(433,0,l),
(443,34,l),
(49,34,l),
(40,0,l)
);
},
{
closed = 1;
nodes = (
(50,0,l),
(259,740,l),
(224,740,l),
(15,0,l)
);
},
{
closed = 1;
nodes = (
(431,814,l),
(444,865,l),
(414,836,l),
(440,847,ls),
(500,872,o),
(539,898,o),
(539,939,cs),
(539,971,o),
(518,1005,o),
(466,1005,cs),
(374,1005,o),
(376,912,o),
(376,928,c),
(405,928,l),
(405,920,o),
(405,977,o),
(463,977,cs),
(495,977,o),
(509,958,o),
(509,939,cs),
(509,912,o),
(488,892,o),
(445,874,c),
(429,868,l),
(420,864,o),
(414,856,o),
(411,846,cs),
(403,814,l)
);
}
);
width = 543;
}
);
leftKerningGroup = l;
rightKerningGroup = E;
unicode = 7866;
},
{
glyphname = Emacron;
layers = (
{
anchors = (
{
name = bottom;
position = "{254, 0}";
},
{
name = ogonek;
position = "{508, 0}";
},
{
name = top;
position = "{514, 973}";
},
{
name = topleft;
position = "{228, 736}";
}
);
layerId = "93E21930-75C2-41BF-8A43-E6E4C907605A";
shapes = (
{
closed = 1;
nodes = (
(541,296,l),
(587,454,l),
(189,454,l),
(144,296,l)
);
},
{
closed = 1;
nodes = (
(665,574,l),
(712,740,l),
(269,740,l),
(223,574,l)
);
},
{
closed = 1;
nodes = (
(508,0,l),
(554,166,l),
(107,166,l),
(60,0,l)
);
},
{
closed = 1;
nodes = (
(175,0,l),
(384,740,l),
(192,740,l),
(-18,0,l)
);
},
{
closed = 1;
nodes = (
(641,824,l),
(670,926,l),
(330,926,l),
(301,824,l)
);
}
);
width = 629;
},
{
anchors = (
{
name = bottom;
position = "{290, 0}";
},
{
name = ogonek;
position = "{458, 0}";
},
{
name = top;
position = "{483, 918}";
},
{
name = topleft;
position = "{230, 700}";
}
);
layerId = "359D7F19-8117-4ED1-B668-DF5CE9F2FE65";
shapes = (
{
closed = 1;
nodes = (
(502,334,l),
(526,420,l),
(219,420,l),
(196,334,l)
);
},
{
closed = 1;
nodes = (
(639,654,l),
(662,740,l),
(310,740,l),
(287,654,l)
);
},
{
closed = 1;
nodes = (
(458,0,l),
(483,86,l),
(126,86,l),
(101,0,l)
);
},
{
closed = 1;
nodes = (
(107,0,l),
(316,740,l),
(218,740,l),
(9,0,l)
);
},
{
closed = 1;
nodes = (
(614,856,l),
(635,928,l),
(331,928,l),
(310,856,l)
);
}
);
width = 604;
},
{
anchors = (
{
name = bottom;
position = "{197, 0}";
},
{
name = ogonek;
position = "{433, 0}";
},
{
name = top;
position = "{443, 850}";
},
{
name = topleft;
position = "{219, 700}";
}
);
layerId = "E9FAC699-F089-4894-B74F-1DA0D3D12BF3";
shapes = (
{
closed = 1;
nodes = (
(480,362,l),
(490,396,l),
(152,396,l),
(142,362,l)
);
},
{
closed = 1;
nodes = (
(628,706,l),
(636,740,l),
(249,740,l),
(240,706,l)
);
},
{
closed = 1;
nodes = (
(433,0,l),
(443,34,l),
(49,34,l),
(40,0,l)
);
},
{
closed = 1;
nodes = (
(50,0,l),
(259,740,l),
(224,740,l),
(15,0,l)
);
},
{
closed = 1;
nodes = (
(576,842,l),
(583,872,l),
(303,872,l),
(296,842,l)
);
}
);
width = 543;
}
);
leftKerningGroup = l;
rightKerningGroup = E;
unicode = 274;
},
{
glyphname = Eogonek;
layers = (
{
anchors = (
{
name = bottom;
position = "{254, 0}";
},
{
name = ogonek;
position = "{508, 0}";
},
{
name = top;
position = "{450, 740}";
},
{
name = topleft;
position = "{228, 736}";
}
);
layerId = "93E21930-75C2-41BF-8A43-E6E4C907605A";
shapes = (
{
closed = 1;
nodes = (
(541,296,l),
(587,454,l),
(189,454,l),
(144,296,l)
);
},
{
closed = 1;
nodes = (
(665,574,l),
(712,740,l),
(269,740,l),
(223,574,l)
);
},
{
closed = 1;
nodes = (
(508,0,l),
(554,166,l),
(107,166,l),
(60,0,l)
);
},
{
closed = 1;
nodes = (
(175,0,l),
(384,740,l),
(192,740,l),
(-18,0,l)
);
},
{
closed = 1;
nodes = (
(467,-194,o),
(490,-189,o),
(490,-189,c),
(518,-87,l),
(518,-87,o),
(501,-90,o),
(486,-90,cs),
(454,-90,o),
(441,-78,o),
(441,-61,cs),
(441,-25,o),
(508,0,o),
(508,0,c),
(457,29,l),
(457,29,o),
(299,2,o),
(299,-103,cs),
(299,-158,o),
(342,-194,o),
(434,-194,cs)
);
}
);
width = 629;
},
{
anchors = (
{
name = bottom;
position = "{290, 0}";
},
{
name = ogonek;
position = "{458, 0}";
},
{
name = top;
position = "{431, 740}";
},
{
name = topleft;
position = "{230, 700}";
}
);
layerId = "359D7F19-8117-4ED1-B668-DF5CE9F2FE65";
shapes = (
{
closed = 1;
nodes = (
(502,334,l),
(526,420,l),
(219,420,l),
(196,334,l)
);
},
{
closed = 1;
nodes = (
(639,654,l),
(662,740,l),
(310,740,l),
(287,654,l)
);
},
{
closed = 1;
nodes = (
(458,0,l),
(483,86,l),
(126,86,l),
(101,0,l)
);
},
{
closed = 1;
nodes = (
(107,0,l),
(316,740,l),
(218,740,l),
(9,0,l)
);
},
{
closed = 1;
nodes = (
(434,-166,o),
(451,-160,o),
(451,-160,c),
(467,-104,l),
(467,-104,o),
(448,-109,o),
(430,-109,cs),
(398,-109,o),
(383,-97,o),
(383,-75,cs),
(383,-26,o),
(458,0,o),
(458,0,c),
(429,19,l),
(429,19,o),
(311,-11,o),
(311,-94,cs),
(311,-139,o),
(346,-166,o),
(407,-166,cs)
);
}
);
width = 604;
},
{
anchors = (
{
name = bottom;
position = "{197, 0}";
},
{
name = ogonek;
position = "{433, 0}";
},
{
name = top;
position = "{406, 740}";
},
{
name = topleft;
position = "{219, 700}";
}
);
layerId = "E9FAC699-F089-4894-B74F-1DA0D3D12BF3";
shapes = (
{
closed = 1;
nodes = (
(480,362,l),
(490,396,l),
(152,396,l),
(142,362,l)
);
},
{
closed = 1;
nodes = (
(628,706,l),
(636,740,l),
(249,740,l),
(240,706,l)
);
},
{
closed = 1;
nodes = (
(433,0,l),
(443,34,l),
(49,34,l),
(40,0,l)
);
},
{
closed = 1;
nodes = (
(50,0,l),
(259,740,l),
(224,740,l),
(15,0,l)
);
},
{
closed = 1;
nodes = (
(420,-149,o),
(435,-143,o),
(435,-143,c),
(444,-115,l),
(444,-115,o),
(423,-120,o),
(403,-120,cs),
(369,-120,o),
(353,-109,o),
(353,-83,cs),
(353,-27,o),
(433,0,o),
(433,0,c),
(416,12,l),
(416,12,o),
(321,-16,o),
(321,-87,cs),
(321,-128,o),
(350,-149,o),
(396,-149,cs)
);
}
);
width = 543;
}
);
leftKerningGroup = l;
rightKerningGroup = E;
unicode = 280;
},
{
glyphname = Etilde;
layers = (
{
anchors = (
{
name = bottom;
position = "{254, 0}";
},
{
name = ogonek;
position = "{508, 0}";
},
{
name = top;
position = "{516, 972}";
},
{
name = topleft;
position = "{228, 736}";
}
);
layerId = "93E21930-75C2-41BF-8A43-E6E4C907605A";
shapes = (
{
closed = 1;
nodes = (
(541,296,l),
(587,454,l),
(189,454,l),
(144,296,l)
);
},
{
closed = 1;
nodes = (
(665,574,l),
(712,740,l),
(269,740,l),
(223,574,l)
);
},
{
closed = 1;
nodes = (
(508,0,l),
(554,166,l),
(107,166,l),
(60,0,l)
);
},
{
closed = 1;
nodes = (
(175,0,l),
(384,740,l),
(192,740,l),
(-18,0,l)
);
},
{
closed = 1;
nodes = (
(655,822,o),
(683,899,o),
(705,981,c),
(612,981,l),
(601,946,o),
(590,928,o),
(571,928,cs),
(537,928,o),
(509,987,o),
(436,987,cs),
(345,987,o),
(319,911,o),
(296,828,c),
(389,828,l),
(398,862,o),
(411,881,o),
(429,881,cs),
(464,881,o),
(492,822,o),
(565,822,cs)
);
}
);
width = 629;
},
{
anchors = (
{
name = bottom;
position = "{290, 0}";
},
{
name = ogonek;
position = "{458, 0}";
},
{
name = top;
position = "{495, 964}";
},
{
name = topleft;
position = "{230, 700}";
}
);
layerId = "359D7F19-8117-4ED1-B668-DF5CE9F2FE65";
shapes = (
{
closed = 1;
nodes = (
(502,334,l),
(526,420,l),
(219,420,l),
(196,334,l)
);
},
{
closed = 1;
nodes = (
(639,654,l),
(662,740,l),
(310,740,l),
(287,654,l)
);
},
{
closed = 1;
nodes = (
(458,0,l),
(483,86,l),
(126,86,l),
(101,0,l)
);
},
{
closed = 1;
nodes = (
(107,0,l),
(316,740,l),
(218,740,l),
(9,0,l)
);
},
{
closed = 1;
nodes = (
(597,826,o),
(626,875,o),
(647,958,c),
(586,958,l),
(576,916,o),
(565,893,o),
(542,893,cs),
(505,893,o),
(486,963,o),
(416,963,cs),
(357,963,o),
(327,915,o),
(307,832,c),
(369,832,l),
(379,874,o),
(393,898,o),
(413,898,cs),
(451,898,o),
(471,826,o),
(540,826,cs)
);
}
);
width = 604;
},
{
anchors = (
{
name = bottom;
position = "{197, 0}";
},
{
name = ogonek;
position = "{433, 0}";
},
{
name = top;
position = "{460, 935}";
},
{
name = topleft;
position = "{219, 700}";
}
);
layerId = "E9FAC699-F089-4894-B74F-1DA0D3D12BF3";
shapes = (
{
closed = 1;
nodes = (
(480,362,l),
(490,396,l),
(152,396,l),
(142,362,l)
);
},
{
closed = 1;
nodes = (
(628,706,l),
(636,740,l),
(249,740,l),
(240,706,l)
);
},
{
closed = 1;
nodes = (
(433,0,l),
(443,34,l),
(49,34,l),
(40,0,l)
);
},
{
closed = 1;
nodes = (
(50,0,l),
(259,740,l),
(224,740,l),
(15,0,l)
);
},
{
closed = 1;
nodes = (
(543,831,o),
(572,878,o),
(585,936,c),
(554,936,l),
(544,887,o),
(524,860,o),
(501,860,cs),
(459,860,o),
(463,941,o),
(400,941,cs),
(353,941,o),
(324,898,o),
(309,836,c),
(340,836,l),
(349,880,o),
(370,912,o),
(396,912,cs),
(438,912,o),
(437,831,o),
(497,831,cs)
);
}
);
width = 543;
}
);
leftKerningGroup = l;
rightKerningGroup = E;
unicode = 7868;
},
{
glyphname = F;
leftMetricsKey = l;
rightMetricsKey = E;
layers = (
{
anchors = (
{
name = bottom;
position = "{81, 0}";
},
{
name = ogonek;
position = "{177, 0}";
},
{
name = top;
position = "{289, 735}";
},
{
name = topleft;
position = "{163, 736}";
}
);
layerId = "93E21930-75C2-41BF-8A43-E6E4C907605A";
shapes = (
{
closed = 1;
nodes = (
(546,255,l),
(590,414,l),
(179,414,l),
(135,255,l)
);
},
{
closed = 1;
nodes = (
(681,574,l),
(728,740,l),
(272,740,l),
(225,574,l)
);
},
{
closed = 1;
nodes = (
(177,0,l),
(386,740,l),
(194,740,l),
(-15,0,l)
);
}
);
width = 628;
},
{
anchors = (
{
name = bottom;
position = "{60, 0}";
},
{
name = ogonek;
position = "{109, 0}";
},
{
name = top;
position = "{258, 687}";
},
{
name = topleft;
position = "{154, 700}";
}
);
layerId = "359D7F19-8117-4ED1-B668-DF5CE9F2FE65";
shapes = (
{
closed = 1;
nodes = (
(506,324,l),
(531,410,l),
(227,410,l),
(204,324,l)
);
},
{
closed = 1;
nodes = (
(646,654,l),
(670,740,l),
(321,740,l),
(297,654,l)
);
},
{
closed = 1;
nodes = (
(109,0,l),
(318,740,l),
(220,740,l),
(11,0,l)
);
}
);
width = 606;
},
{
anchors = (
{
name = bottom;
position = "{35, 0}";
},
{
name = ogonek;
position = "{52, 0}";
},
{
name = top;
position = "{246, 740}";
},
{
name = topleft;
position = "{156, 740}";
}
);
layerId = "E9FAC699-F089-4894-B74F-1DA0D3D12BF3";
shapes = (
{
closed = 1;
nodes = (
(489,352,l),
(499,386,l),
(161,386,l),
(151,352,l)
);
},
{
closed = 1;
nodes = (
(639,706,l),
(648,740,l),
(261,740,l),
(251,706,l)
);
},
{
closed = 1;
nodes = (
(52,0,l),
(263,740,l),
(228,740,l),
(17,0,l)
);
}
);
width = 546;
}
);
leftKerningGroup = l;
rightKerningGroup = F;
unicode = 70;
},
{
glyphname = G;
leftMetricsKey = O;
layers = (
{
anchors = (
{
name = bottom;
position = "{311, 0}";
},
{
name = top;
position = "{510, 740}";
}
);
guides = (
{
angle = 90;
position = "{689, 0}";
},
{
position = "{0, 716}";
}
);
layerId = "93E21930-75C2-41BF-8A43-E6E4C907605A";
shapes = (
{
closed = 1;
nodes = (
(439,-10,o),
(556,38,o),
(587,124,c),
(552,128,l),
(551,0,l),
(681,0,l),
(791,409,l),
(443,409,l),
(400,261,l),
(560,261,l),
(530,189,o),
(477,162,o),
(410,162,cs),
(306,162,o),
(258,236,o),
(258,327,cs),
(258,441,o),
(335,580,o),
(481,580,cs),
(609,580,o),
(605,469,o),
(605,469,c),
(795,469,l),
(795,469,o),
(807,750,o),
(498,750,cs),
(212,750,o),
(65,512,o),
(65,308,cs),
(65,132,o),
(144,-10,o),
(357,-10,cs)
);
}
);
width = 790;
},
{
anchors = (
{
name = bottom;
position = "{294, 0}";
},
{
name = top;
position = "{489, 740}";
}
);
guides = (
{
angle = 90;
position = "{690, 0}";
},
{
position = "{0, 716}";
}
);
layerId = "359D7F19-8117-4ED1-B668-DF5CE9F2FE65";
shapes = (
{
closed = 1;
nodes = (
(439,-10,o),
(548,49,o),
(600,138,c),
(575,139,l),
(551,0,l),
(620,0,l),
(729,383,l),
(424,383,l),
(401,304,l),
(608,304,l),
(579,182,o),
(495,79,o),
(364,79,cs),
(222,79,o),
(160,185,o),
(160,307,cs),
(160,471,o),
(268,662,o),
(467,662,cs),
(654,662,o),
(640,490,o),
(640,490,c),
(737,490,l),
(737,490,o),
(755,750,o),
(475,750,cs),
(206,750,o),
(61,509,o),
(61,299,cs),
(61,131,o),
(155,-10,o),
(353,-10,cs)
);
}
);
width = 747;
},
{
anchors = (
{
name = bottom;
position = "{306, 0}";
},
{
name = top;
position = "{485, 740}";
}
);
guides = (
{
angle = 90;
position = "{690, 0}";
},
{
position = "{0, 716}";
}
);
layerId = "E9FAC699-F089-4894-B74F-1DA0D3D12BF3";
shapes = (
{
closed = 1;
nodes = (
(457,-10,o),
(557,50,o),
(603,148,c),
(600,149,l),
(563,0,l),
(590,0,l),
(692,366,l),
(429,366,l),
(420,333,l),
(650,333,l),
(609,178,o),
(533,24,o),
(346,24,cs),
(179,24,o),
(110,149,o),
(110,294,cs),
(110,490,o),
(237,716,o),
(473,716,cs),
(696,716,o),
(673,502,o),
(673,502,c),
(709,502,l),
(709,502,o),
(732,750,o),
(476,750,cs),
(213,750,o),
(74,506,o),
(74,293,cs),
(74,131,o),
(155,-10,o),
(346,-10,cs)
);
}
);
width = 759;
}
);
leftKerningGroup = O;
rightKerningGroup = G;
unicode = 71;
},
{
glyphname = H;
leftMetricsKey = l;
rightMetricsKey = l;
layers = (
{
anchors = (
{
name = bottom;
position = "{530, 0}";
},
{
name = ogonek;
position = "{626, 0}";
},
{
name = top;
position = "{509, 740}";
},
{
name = topleft;
position = "{612, 736}";
}
);
layerId = "93E21930-75C2-41BF-8A43-E6E4C907605A";
shapes = (
{
closed = 1;
nodes = (
(177,0,l),
(386,740,l),
(194,740,l),
(-15,0,l)
);
},
{
closed = 1;
nodes = (
(626,0,l),
(836,740,l),
(644,740,l),
(434,0,l)
);
},
{
closed = 1;
nodes = (
(612,298,l),
(612,462,l),
(184,462,l),
(184,298,l)
);
}
);
width = 763;
},
{
anchors = (
{
name = bottom;
position = "{498, 0}";
},
{
name = ogonek;
position = "{547, 0}";
},
{
name = top;
position = "{493, 740}";
},
{
name = topleft;
position = "{593, 700}";
}
);
layerId = "359D7F19-8117-4ED1-B668-DF5CE9F2FE65";
shapes = (
{
closed = 1;
nodes = (
(109,0,l),
(318,740,l),
(220,740,l),
(11,0,l)
);
},
{
closed = 1;
nodes = (
(547,0,l),
(756,740,l),
(658,740,l),
(449,0,l)
);
},
{
closed = 1;
nodes = (
(587,331,l),
(587,419,l),
(141,419,l),
(141,331,l)
);
}
);
width = 703;
},
{
anchors = (
{
name = bottom;
position = "{476, 0}";
},
{
name = ogonek;
position = "{493, 0}";
},
{
name = top;
position = "{455, 740}";
},
{
name = topleft;
position = "{597, 740}";
}
);
layerId = "E9FAC699-F089-4894-B74F-1DA0D3D12BF3";
shapes = (
{
closed = 1;
nodes = (
(52,0,l),
(263,740,l),
(228,740,l),
(17,0,l)
);
},
{
closed = 1;
nodes = (
(493,0,l),
(704,740,l),
(669,740,l),
(458,0,l)
);
},
{
closed = 1;
nodes = (
(570,374,l),
(570,406,l),
(147,406,l),
(147,374,l)
);
}
);
width = 658;
}
);
leftKerningGroup = l;
rightKerningGroup = l;
unicode = 72;
},
{
glyphname = Hbar;
leftMetricsKey = "=l-50";
rightMetricsKey = "=l-50";
layers = (
{
anchors = (
{
name = bottom;
position = "{548, 0}";
},
{
name = ogonek;
position = "{644, 0}";
},
{
name = top;
position = "{756, 735}";
},
{
name = topleft;
position = "{630, 736}";
}
);
layerId = "93E21930-75C2-41BF-8A43-E6E4C907605A";
shapes = (
{
closed = 1;
nodes = (
(854,527,l),
(891,658,l),
(120,658,l),
(83,527,l)
);
},
{
closed = 1;
nodes = (
(194,0,l),
(404,740,l),
(212,740,l),
(2,0,l)
);
},
{
closed = 1;
nodes = (
(644,0,l),
(853,740,l),
(661,740,l),
(452,0,l)
);
},
{
closed = 1;
nodes = (
(629,298,l),
(629,462,l),
(201,462,l),
(201,298,l)
);
}
);
width = 790;
},
{
anchors = (
{
name = bottom;
position = "{520, 0}";
},
{
name = ogonek;
position = "{569, 0}";
},
{
name = top;
position = "{718, 687}";
},
{
name = topleft;
position = "{614, 700}";
}
);
layerId = "359D7F19-8117-4ED1-B668-DF5CE9F2FE65";
shapes = (
{
closed = 1;
nodes = (
(839,579,l),
(864,667,l),
(149,667,l),
(125,579,l)
);
},
{
closed = 1;
nodes = (
(131,0,l),
(340,740,l),
(242,740,l),
(33,0,l)
);
},
{
closed = 1;
nodes = (
(569,0,l),
(778,740,l),
(680,740,l),
(471,0,l)
);
},
{
closed = 1;
nodes = (
(609,331,l),
(609,419,l),
(163,419,l),
(163,331,l)
);
}
);
width = 779;
},
{
anchors = (
{
name = bottom;
position = "{535, 0}";
},
{
name = ogonek;
position = "{552, 0}";
},
{
name = top;
position = "{744, 740}";
},
{
name = topleft;
position = "{654, 740}";
}
);
layerId = "E9FAC699-F089-4894-B74F-1DA0D3D12BF3";
shapes = (
{
closed = 1;
nodes = (
(823,622,l),
(830,654,l),
(153,654,l),
(146,622,l)
);
},
{
closed = 1;
nodes = (
(111,0,l),
(320,740,l),
(285,740,l),
(76,0,l)
);
},
{
closed = 1;
nodes = (
(552,0,l),
(761,740,l),
(726,740,l),
(517,0,l)
);
},
{
closed = 1;
nodes = (
(628,374,l),
(628,406,l),
(205,406,l),
(205,374,l)
);
}
);
width = 760;
}
);
unicode = 294;
},
{
glyphname = I;
leftMetricsKey = l;
rightMetricsKey = l;
layers = (
{
anchors = (
{
name = bottom;
position = "{81, 0}";
},
{
name = ogonek;
position = "{177, 0}";
},
{
name = top;
position = "{289, 735}";
},
{
name = topleft;
position = "{163, 736}";
}
);
layerId = "93E21930-75C2-41BF-8A43-E6E4C907605A";
shapes = (
{
closed = 1;
nodes = (
(177,0,l),
(386,740,l),
(194,740,l),
(-15,0,l)
);
}
);
width = 314;
},
{
anchors = (
{
name = bottom;
position = "{60, 0}";
},
{
name = ogonek;
position = "{109, 0}";
},
{
name = top;
position = "{258, 687}";
},
{
name = topleft;
position = "{154, 700}";
}
);
layerId = "359D7F19-8117-4ED1-B668-DF5CE9F2FE65";
shapes = (
{
closed = 1;
nodes = (
(109,0,l),
(318,740,l),
(220,740,l),
(11,0,l)
);
}
);
width = 265;
},
{
anchors = (
{
name = bottom;
position = "{35, 0}";
},
{
name = ogonek;
position = "{52, 0}";
},
{
name = top;
position = "{246, 740}";
},
{
name = topleft;
position = "{156, 740}";
}
);
layerId = "E9FAC699-F089-4894-B74F-1DA0D3D12BF3";
shapes = (
{
closed = 1;
nodes = (
(52,0,l),
(263,740,l),
(228,740,l),
(17,0,l)
);
}
);
width = 217;
}
);
leftKerningGroup = l;
rightKerningGroup = l;
unicode = 73;
},
{
glyphname = Iacute;
layers = (
{
anchors = (
{
name = bottom;
position = "{79, 0}";
},
{
name = ogonek;
position = "{175, 0}";
},
{
name = top;
position = "{400, 977}";
},
{
name = topleft;
position = "{161, 736}";
}
);
layerId = "93E21930-75C2-41BF-8A43-E6E4C907605A";
shapes = (
{
closed = 1;
nodes = (
(175,0,l),
(384,740,l),
(192,740,l),
(-18,0,l)
);
},
{
closed = 1;
nodes = (
(499,984,l),
(329,984,l),
(252,805,l),
(385,804,l)
);
}
);
width = 311;
},
{
anchors = (
{
name = bottom;
position = "{58, 0}";
},
{
name = ogonek;
position = "{107, 0}";
},
{
name = top;
position = "{369, 952}";
},
{
name = topleft;
position = "{152, 700}";
}
);
layerId = "359D7F19-8117-4ED1-B668-DF5CE9F2FE65";
shapes = (
{
closed = 1;
nodes = (
(107,0,l),
(316,740,l),
(218,740,l),
(9,0,l)
);
},
{
closed = 1;
nodes = (
(440,948,l),
(345,948,l),
(251,768,l),
(327,767,l)
);
}
);
width = 261;
},
{
anchors = (
{
name = bottom;
position = "{33, 0}";
},
{
name = ogonek;
position = "{50, 0}";
},
{
name = top;
position = "{336, 980}";
},
{
name = topleft;
position = "{152, 740}";
}
);
layerId = "E9FAC699-F089-4894-B74F-1DA0D3D12BF3";
shapes = (
{
closed = 1;
nodes = (
(50,0,l),
(259,740,l),
(224,740,l),
(15,0,l)
);
},
{
closed = 1;
nodes = (
(351,980,l),
(315,980,l),
(246,828,l),
(275,828,l)
);
}
);
width = 214;
}
);
leftKerningGroup = l;
rightKerningGroup = l;
unicode = 205;
},
{
glyphname = Icircumflex;
layers = (
{
anchors = (
{
name = bottom;
position = "{79, 0}";
},
{
name = ogonek;
position = "{175, 0}";
},
{
name = top;
position = "{532, 885}";
},
{
name = topleft;
position = "{161, 736}";
}
);
layerId = "93E21930-75C2-41BF-8A43-E6E4C907605A";
shapes = (
{
closed = 1;
nodes = (
(175,0,l),
(384,740,l),
(192,740,l),
(-18,0,l)
);
},
{
closed = 1;
nodes = (
(245,794,l),
(343,896,l),
(380,794,l),
(512,794,l),
(431,983,l),
(284,983,l),
(95,794,l)
);
}
);
width = 311;
},
{
anchors = (
{
name = bottom;
position = "{58, 0}";
},
{
name = ogonek;
position = "{107, 0}";
},
{
name = top;
position = "{447, 821}";
},
{
name = topleft;
position = "{152, 700}";
}
);
layerId = "359D7F19-8117-4ED1-B668-DF5CE9F2FE65";
shapes = (
{
closed = 1;
nodes = (
(107,0,l),
(316,740,l),
(218,740,l),
(9,0,l)
);
},
{
closed = 1;
nodes = (
(211,763,l),
(316,870,l),
(362,763,l),
(440,763,l),
(366,930,l),
(285,930,l),
(117,763,l)
);
}
);
width = 261;
},
{
anchors = (
{
name = bottom;
position = "{33, 0}";
},
{
name = ogonek;
position = "{50, 0}";
},
{
name = top;
position = "{410, 859}";
},
{
name = topleft;
position = "{152, 740}";
}
);
layerId = "E9FAC699-F089-4894-B74F-1DA0D3D12BF3";
shapes = (
{
closed = 1;
nodes = (
(50,0,l),
(259,740,l),
(224,740,l),
(15,0,l)
);
},
{
closed = 1;
nodes = (
(181,818,l),
(305,945,l),
(360,818,l),
(396,818,l),
(328,970,l),
(291,970,l),
(137,818,l)
);
}
);
width = 214;
}
);
leftKerningGroup = l;
rightKerningGroup = l;
unicode = 206;
},
{
glyphname = Idieresis;
layers = (
{
anchors = (
{
name = bottom;
position = "{79, 0}";
},
{
name = ogonek;
position = "{175, 0}";
},
{
name = top;
position = "{357, 978}";
},
{
name = topleft;
position = "{161, 736}";
}
);
layerId = "93E21930-75C2-41BF-8A43-E6E4C907605A";
shapes = (
{
closed = 1;
nodes = (
(175,0,l),
(384,740,l),
(192,740,l),
(-18,0,l)
);
},
{
closed = 1;
nodes = (
(512,783,o),
(555,827,o),
(555,880,cs),
(555,935,o),
(512,978,o),
(453,978,cs),
(393,978,o),
(351,935,o),
(351,880,cs),
(351,827,o),
(393,783,o),
(453,783,cs)
);
},
{
closed = 1;
nodes = (
(263,783,o),
(306,827,o),
(306,880,cs),
(306,935,o),
(263,978,o),
(204,978,cs),
(144,978,o),
(102,935,o),
(102,880,cs),
(102,827,o),
(144,783,o),
(204,783,cs)
);
}
);
width = 311;
},
{
anchors = (
{
name = bottom;
position = "{58, 0}";
},
{
name = ogonek;
position = "{107, 0}";
},
{
name = top;
position = "{314, 891}";
},
{
name = topleft;
position = "{152, 700}";
}
);
layerId = "359D7F19-8117-4ED1-B668-DF5CE9F2FE65";
shapes = (
{
closed = 1;
nodes = (
(107,0,l),
(316,740,l),
(218,740,l),
(9,0,l)
);
},
{
closed = 1;
nodes = (
(427,768,o),
(454,795,o),
(454,829,cs),
(454,863,o),
(427,891,o),
(392,891,cs),
(356,891,o),
(330,863,o),
(330,829,cs),
(330,796,o),
(356,768,o),
(392,768,cs)
);
},
{
closed = 1;
nodes = (
(237,768,o),
(264,795,o),
(264,829,cs),
(264,863,o),
(237,891,o),
(202,891,cs),
(166,891,o),
(140,863,o),
(140,829,cs),
(140,796,o),
(166,768,o),
(202,768,cs)
);
}
);
width = 261;
},
{
anchors = (
{
name = bottom;
position = "{33, 0}";
},
{
name = ogonek;
position = "{50, 0}";
},
{
name = top;
position = "{290, 912}";
},
{
name = topleft;
position = "{152, 740}";
}
);
layerId = "E9FAC699-F089-4894-B74F-1DA0D3D12BF3";
shapes = (
{
closed = 1;
nodes = (
(50,0,l),
(259,740,l),
(224,740,l),
(15,0,l)
);
},
{
closed = 1;
nodes = (
(371,840,o),
(387,856,o),
(387,876,cs),
(387,895,o),
(371,912,o),
(351,912,cs),
(331,912,o),
(316,895,o),
(316,876,cs),
(316,856,o),
(331,840,o),
(351,840,cs)
);
},
{
closed = 1;
nodes = (
(232,840,o),
(248,856,o),
(248,876,cs),
(248,895,o),
(232,912,o),
(212,912,cs),
(192,912,o),
(177,895,o),
(177,876,cs),
(177,856,o),
(192,840,o),
(212,840,cs)
);
}
);
width = 214;
}
);
leftKerningGroup = l;
rightKerningGroup = l;
unicode = 207;
},
{
glyphname = Idotaccent;
layers = (
{
anchors = (
{
name = bottom;
position = "{79, 0}";
},
{
name = ogonek;
position = "{175, 0}";
},
{
name = top;
position = "{360, 987}";
},
{
name = topleft;
position = "{161, 736}";
}
);
layerId = "93E21930-75C2-41BF-8A43-E6E4C907605A";
shapes = (
{
closed = 1;
nodes = (
(175,0,l),
(384,740,l),
(192,740,l),
(-18,0,l)
);
},
{
closed = 1;
nodes = (
(394,788,o),
(440,835,o),
(440,891,cs),
(440,949,o),
(394,995,o),
(331,995,cs),
(268,995,o),
(223,949,o),
(223,891,cs),
(223,835,o),
(268,788,o),
(331,788,cs)
);
}
);
width = 311;
},
{
anchors = (
{
name = bottom;
position = "{58, 0}";
},
{
name = ogonek;
position = "{107, 0}";
},
{
name = top;
position = "{319, 907}";
},
{
name = topleft;
position = "{152, 700}";
}
);
layerId = "359D7F19-8117-4ED1-B668-DF5CE9F2FE65";
shapes = (
{
closed = 1;
nodes = (
(107,0,l),
(316,740,l),
(218,740,l),
(9,0,l)
);
},
{
closed = 1;
nodes = (
(337,781,o),
(364,808,o),
(364,842,cs),
(364,876,o),
(337,904,o),
(302,904,cs),
(266,904,o),
(240,876,o),
(240,842,cs),
(240,809,o),
(266,781,o),
(302,781,cs)
);
}
);
width = 261;
},
{
anchors = (
{
name = bottom;
position = "{33, 0}";
},
{
name = ogonek;
position = "{50, 0}";
},
{
name = top;
position = "{293, 896}";
},
{
name = topleft;
position = "{152, 740}";
}
);
layerId = "E9FAC699-F089-4894-B74F-1DA0D3D12BF3";
shapes = (
{
closed = 1;
nodes = (
(50,0,l),
(259,740,l),
(224,740,l),
(15,0,l)
);
},
{
closed = 1;
nodes = (
(302,839,o),
(318,855,o),
(318,875,cs),
(318,894,o),
(302,911,o),
(282,911,cs),
(262,911,o),
(247,894,o),
(247,875,cs),
(247,855,o),
(262,839,o),
(282,839,cs)
);
}
);
width = 214;
}
);
leftKerningGroup = l;
rightKerningGroup = l;
unicode = 304;
},
{
glyphname = Idotbelow;
layers = (
{
anchors = (
{
name = bottom;
position = "{6, -256}";
},
{
name = ogonek;
position = "{175, 0}";
},
{
name = top;
position = "{287, 735}";
},
{
name = topleft;
position = "{161, 736}";
}
);
layerId = "93E21930-75C2-41BF-8A43-E6E4C907605A";
shapes = (
{
closed = 1;
nodes = (
(175,0,l),
(384,740,l),
(192,740,l),
(-18,0,l)
);
},
{
closed = 1;
nodes = (
(82,-260,o),
(120,-220,o),
(120,-171,cs),
(120,-121,o),
(82,-82,o),
(31,-82,cs),
(-23,-82,o),
(-60,-121,o),
(-60,-171,cs),
(-60,-220,o),
(-23,-260,o),
(31,-260,cs)
);
}
);
width = 311;
},
{
anchors = (
{
name = bottom;
position = "{-6, -219}";
},
{
name = ogonek;
position = "{107, 0}";
},
{
name = top;
position = "{256, 687}";
},
{
name = topleft;
position = "{152, 700}";
}
);
layerId = "359D7F19-8117-4ED1-B668-DF5CE9F2FE65";
shapes = (
{
closed = 1;
nodes = (
(107,0,l),
(316,740,l),
(218,740,l),
(9,0,l)
);
},
{
closed = 1;
nodes = (
(49,-227,o),
(77,-198,o),
(77,-162,cs),
(77,-126,o),
(49,-97,o),
(12,-97,cs),
(-26,-97,o),
(-53,-126,o),
(-53,-162,cs),
(-53,-197,o),
(-26,-227,o),
(12,-227,cs)
);
}
);
width = 261;
},
{
anchors = (
{
name = bottom;
position = "{-21, -189}";
},
{
name = ogonek;
position = "{50, 0}";
},
{
name = top;
position = "{242, 740}";
},
{
name = topleft;
position = "{152, 740}";
}
);
layerId = "E9FAC699-F089-4894-B74F-1DA0D3D12BF3";
shapes = (
{
closed = 1;
nodes = (
(50,0,l),
(259,740,l),
(224,740,l),
(15,0,l)
);
},
{
closed = 1;
nodes = (
(11,-192,o),
(28,-175,o),
(28,-154,cs),
(28,-134,o),
(11,-117,o),
(-10,-117,cs),
(-31,-117,o),
(-47,-134,o),
(-47,-154,cs),
(-47,-175,o),
(-31,-192,o),
(-10,-192,cs)
);
}
);
width = 214;
}
);
leftKerningGroup = l;
rightKerningGroup = l;
unicode = 7882;
},
{
glyphname = Igrave;
layers = (
{
anchors = (
{
name = bottom;
position = "{79, 0}";
},
{
name = ogonek;
position = "{175, 0}";
},
{
name = top;
position = "{213, 1045}";
},
{
name = topleft;
position = "{161, 736}";
}
);
layerId = "93E21930-75C2-41BF-8A43-E6E4C907605A";
shapes = (
{
closed = 1;
nodes = (
(175,0,l),
(384,740,l),
(192,740,l),
(-18,0,l)
);
},
{
closed = 1;
nodes = (
(356,805,l),
(292,984,l),
(130,984,l),
(230,804,l)
);
}
);
width = 311;
},
{
anchors = (
{
name = bottom;
position = "{58, 0}";
},
{
name = ogonek;
position = "{107, 0}";
},
{
name = top;
position = "{203, 956}";
},
{
name = topleft;
position = "{152, 700}";
}
);
layerId = "359D7F19-8117-4ED1-B668-DF5CE9F2FE65";
shapes = (
{
closed = 1;
nodes = (
(107,0,l),
(316,740,l),
(218,740,l),
(9,0,l)
);
},
{
closed = 1;
nodes = (
(301,768,l),
(242,948,l),
(150,948,l),
(227,767,l)
);
}
);
width = 261;
},
{
anchors = (
{
name = bottom;
position = "{33, 0}";
},
{
name = ogonek;
position = "{50, 0}";
},
{
name = top;
position = "{260, 980}";
},
{
name = topleft;
position = "{152, 740}";
}
);
layerId = "E9FAC699-F089-4894-B74F-1DA0D3D12BF3";
shapes = (
{
closed = 1;
nodes = (
(50,0,l),
(259,740,l),
(224,740,l),
(15,0,l)
);
},
{
closed = 1;
nodes = (
(276,828,l),
(233,980,l),
(199,980,l),
(248,828,l)
);
}
);
width = 214;
}
);
leftKerningGroup = l;
rightKerningGroup = l;
unicode = 204;
},
{
glyphname = Ihoi;
layers = (
{
anchors = (
{
name = bottom;
position = "{79, 0}";
},
{
name = ogonek;
position = "{175, 0}";
},
{
name = top;
position = "{372, 1033}";
},
{
name = topleft;
position = "{161, 736}";
}
);
layerId = "93E21930-75C2-41BF-8A43-E6E4C907605A";
shapes = (
{
closed = 1;
nodes = (
(175,0,l),
(384,740,l),
(192,740,l),
(-18,0,l)
);
},
{
closed = 1;
nodes = (
(348,790,l),
(369,861,l),
(313,796,l),
(362,820,ls),
(388,832,o),
(481,863,o),
(481,942,cs),
(481,993,o),
(437,1041,o),
(355,1041,cs),
(188,1041,o),
(197,899,o),
(197,918,c),
(298,918,l),
(298,918,o),
(300,952,o),
(339,952,cs),
(359,952,o),
(370,940,o),
(370,926,cs),
(370,909,o),
(355,895,o),
(315,878,cs),
(297,870,ls),
(272,859,o),
(261,842,o),
(255,823,c),
(246,790,l)
);
}
);
width = 311;
},
{
anchors = (
{
name = bottom;
position = "{58, 0}";
},
{
name = ogonek;
position = "{107, 0}";
},
{
name = top;
position = "{335, 962}";
},
{
name = topleft;
position = "{152, 700}";
}
);
layerId = "359D7F19-8117-4ED1-B668-DF5CE9F2FE65";
shapes = (
{
closed = 1;
nodes = (
(107,0,l),
(316,740,l),
(218,740,l),
(9,0,l)
);
},
{
closed = 1;
nodes = (
(300,750,l),
(317,809,l),
(271,767,l),
(297,776,l),
(358,800,o),
(412,826,o),
(412,880,cs),
(412,918,o),
(386,964,o),
(314,964,cs),
(203,964,o),
(206,854,o),
(206,870,c),
(261,870,l),
(261,867,o),
(262,913,o),
(313,913,cs),
(339,913,o),
(352,897,o),
(352,880,cs),
(352,856,o),
(331,839,o),
(291,822,c),
(276,815,l),
(265,809,o),
(252,799,o),
(249,784,c),
(239,750,l)
);
}
);
width = 261;
},
{
anchors = (
{
name = bottom;
position = "{33, 0}";
},
{
name = ogonek;
position = "{50, 0}";
},
{
name = top;
position = "{316, 1002}";
},
{
name = topleft;
position = "{152, 740}";
}
);
layerId = "E9FAC699-F089-4894-B74F-1DA0D3D12BF3";
shapes = (
{
closed = 1;
nodes = (
(50,0,l),
(259,740,l),
(224,740,l),
(15,0,l)
);
},
{
closed = 1;
nodes = (
(267,814,l),
(282,865,l),
(250,836,l),
(278,847,ls),
(338,872,o),
(375,898,o),
(375,939,cs),
(375,971,o),
(355,1005,o),
(303,1005,cs),
(210,1005,o),
(213,912,o),
(213,928,c),
(242,928,l),
(242,920,o),
(243,977,o),
(301,977,cs),
(331,977,o),
(345,958,o),
(345,939,cs),
(345,912,o),
(324,892,o),
(281,874,cs),
(267,868,ls),
(258,864,o),
(251,856,o),
(249,846,c),
(239,814,l)
);
}
);
width = 214;
}
);
leftKerningGroup = l;
rightKerningGroup = l;
unicode = 7880;
},
{
glyphname = Imacron;
layers = (
{
anchors = (
{
name = bottom;
position = "{79, 0}";
},
{
name = ogonek;
position = "{175, 0}";
},
{
name = top;
position = "{351, 968}";
},
{
name = topleft;
position = "{161, 736}";
}
);
layerId = "93E21930-75C2-41BF-8A43-E6E4C907605A";
shapes = (
{
closed = 1;
nodes = (
(175,0,l),
(384,740,l),
(192,740,l),
(-18,0,l)
);
},
{
closed = 1;
nodes = (
(479,819,l),
(507,921,l),
(167,921,l),
(139,819,l)
);
}
);
width = 311;
},
{
anchors = (
{
name = bottom;
position = "{58, 0}";
},
{
name = ogonek;
position = "{107, 0}";
},
{
name = top;
position = "{309, 864}";
},
{
name = topleft;
position = "{152, 700}";
}
);
layerId = "359D7F19-8117-4ED1-B668-DF5CE9F2FE65";
shapes = (
{
closed = 1;
nodes = (
(107,0,l),
(316,740,l),
(218,740,l),
(9,0,l)
);
},
{
closed = 1;
nodes = (
(439,803,l),
(461,875,l),
(157,875,l),
(135,803,l)
);
}
);
width = 261;
},
{
anchors = (
{
name = bottom;
position = "{33, 0}";
},
{
name = ogonek;
position = "{50, 0}";
},
{
name = top;
position = "{280, 850}";
},
{
name = topleft;
position = "{152, 740}";
}
);
layerId = "E9FAC699-F089-4894-B74F-1DA0D3D12BF3";
shapes = (
{
closed = 1;
nodes = (
(50,0,l),
(259,740,l),
(224,740,l),
(15,0,l)
);
},
{
closed = 1;
nodes = (
(412,842,l),
(420,872,l),
(140,872,l),
(132,842,l)
);
}
);
width = 214;
}
);
leftKerningGroup = l;
rightKerningGroup = l;
unicode = 298;
},
{
glyphname = Iogonek;
layers = (
{
anchors = (
{
name = bottom;
position = "{79, 0}";
},
{
name = ogonek;
position = "{175, 0}";
},
{
name = top;
position = "{287, 735}";
},
{
name = topleft;
position = "{161, 736}";
}
);
layerId = "93E21930-75C2-41BF-8A43-E6E4C907605A";
shapes = (
{
closed = 1;
nodes = (
(175,0,l),
(384,740,l),
(192,740,l),
(-18,0,l)
);
},
{
closed = 1;
nodes = (
(134,-194,o),
(157,-189,o),
(157,-189,c),
(185,-87,l),
(185,-87,o),
(168,-90,o),
(153,-90,cs),
(121,-90,o),
(108,-78,o),
(108,-61,cs),
(108,-25,o),
(175,0,o),
(175,0,c),
(124,29,l),
(124,29,o),
(-34,2,o),
(-34,-103,cs),
(-34,-158,o),
(9,-194,o),
(101,-194,cs)
);
}
);
width = 311;
},
{
anchors = (
{
name = bottom;
position = "{58, 0}";
},
{
name = ogonek;
position = "{107, 0}";
},
{
name = top;
position = "{256, 687}";
},
{
name = topleft;
position = "{152, 700}";
}
);
layerId = "359D7F19-8117-4ED1-B668-DF5CE9F2FE65";
shapes = (
{
closed = 1;
nodes = (
(107,0,l),
(316,740,l),
(218,740,l),
(9,0,l)
);
},
{
closed = 1;
nodes = (
(82,-166,o),
(100,-160,o),
(100,-160,c),
(116,-104,l),
(116,-104,o),
(97,-109,o),
(79,-109,cs),
(46,-109,o),
(32,-97,o),
(32,-75,cs),
(32,-26,o),
(107,0,o),
(107,0,c),
(76,19,l),
(76,19,o),
(-40,-11,o),
(-40,-94,cs),
(-40,-139,o),
(-5,-166,o),
(56,-166,cs)
);
}
);
width = 261;
},
{
anchors = (
{
name = bottom;
position = "{33, 0}";
},
{
name = ogonek;
position = "{50, 0}";
},
{
name = top;
position = "{242, 740}";
},
{
name = topleft;
position = "{152, 740}";
}
);
layerId = "E9FAC699-F089-4894-B74F-1DA0D3D12BF3";
shapes = (
{
closed = 1;
nodes = (
(50,0,l),
(259,740,l),
(224,740,l),
(15,0,l)
);
},
{
closed = 1;
nodes = (
(37,-149,o),
(53,-143,o),
(53,-143,c),
(61,-115,l),
(61,-115,o),
(40,-120,o),
(20,-120,cs),
(-13,-120,o),
(-30,-109,o),
(-30,-83,cs),
(-30,-27,o),
(50,0,o),
(50,0,c),
(34,12,l),
(34,12,o),
(-63,-16,o),
(-63,-87,cs),
(-63,-128,o),
(-32,-149,o),
(13,-149,cs)
);
}
);
width = 214;
}
);
leftKerningGroup = l;
rightKerningGroup = l;
unicode = 302;
},
{
glyphname = Itilde;
layers = (
{
anchors = (
{
name = bottom;
position = "{79, 0}";
},
{
name = ogonek;
position = "{175, 0}";
},
{
name = top;
position = "{353, 967}";
},
{
name = topleft;
position = "{161, 736}";
}
);
layerId = "93E21930-75C2-41BF-8A43-E6E4C907605A";
shapes = (
{
closed = 1;
nodes = (
(175,0,l),
(384,740,l),
(192,740,l),
(-18,0,l)
);
},
{
closed = 1;
nodes = (
(491,817,o),
(519,894,o),
(543,976,c),
(450,976,l),
(439,941,o),
(428,923,o),
(409,923,cs),
(375,923,o),
(346,982,o),
(273,982,cs),
(182,982,o),
(156,906,o),
(133,823,c),
(226,823,l),
(235,857,o),
(248,876,o),
(267,876,cs),
(302,876,o),
(330,817,o),
(403,817,cs)
);
}
);
width = 311;
},
{
anchors = (
{
name = bottom;
position = "{58, 0}";
},
{
name = ogonek;
position = "{107, 0}";
},
{
name = top;
position = "{320, 910}";
},
{
name = topleft;
position = "{152, 700}";
}
);
layerId = "359D7F19-8117-4ED1-B668-DF5CE9F2FE65";
shapes = (
{
closed = 1;
nodes = (
(107,0,l),
(316,740,l),
(218,740,l),
(9,0,l)
);
},
{
closed = 1;
nodes = (
(422,773,o),
(452,821,o),
(472,905,c),
(411,905,l),
(402,862,o),
(391,839,o),
(367,839,cs),
(330,839,o),
(311,910,o),
(242,910,cs),
(182,910,o),
(153,862,o),
(132,779,c),
(194,779,l),
(204,821,o),
(218,845,o),
(238,845,cs),
(276,845,o),
(296,773,o),
(365,773,cs)
);
}
);
width = 261;
},
{
anchors = (
{
name = bottom;
position = "{33, 0}";
},
{
name = ogonek;
position = "{50, 0}";
},
{
name = top;
position = "{298, 935}";
},
{
name = topleft;
position = "{152, 740}";
}
);
layerId = "E9FAC699-F089-4894-B74F-1DA0D3D12BF3";
shapes = (
{
closed = 1;
nodes = (
(50,0,l),
(259,740,l),
(224,740,l),
(15,0,l)
);
},
{
closed = 1;
nodes = (
(379,831,o),
(408,878,o),
(423,936,c),
(391,936,l),
(380,887,o),
(362,860,o),
(338,860,cs),
(297,860,o),
(300,941,o),
(237,941,cs),
(190,941,o),
(160,898,o),
(145,836,c),
(177,836,l),
(186,880,o),
(206,912,o),
(232,912,cs),
(274,912,o),
(273,831,o),
(333,831,cs)
);
}
);
width = 214;
}
);
leftKerningGroup = l;
rightKerningGroup = l;
unicode = 296;
},
{
glyphname = J;
rightMetricsKey = l;
layers = (
{
anchors = (
{
name = top;
position = "{497, 740}";
}
);
layerId = "93E21930-75C2-41BF-8A43-E6E4C907605A";
shapes = (
{
closed = 1;
nodes = (
(306,-10,o),
(419,130,o),
(463,286,cs),
(591,740,l),
(401,740,l),
(277,305,ls),
(247,202,o),
(171,152,o),
(96,152,cs),
(55,152,o),
(18,157,o),
(18,157,c),
(-27,0,l),
(-27,0,o),
(22,-10,o),
(89,-10,cs)
);
}
);
width = 518;
},
{
anchors = (
{
name = top;
position = "{481, 740}";
}
);
layerId = "359D7F19-8117-4ED1-B668-DF5CE9F2FE65";
shapes = (
{
closed = 1;
nodes = (
(259,-10,o),
(348,93,o),
(391,248,cs),
(532,740,l),
(434,740,l),
(293,248,l),
(266,160,o),
(210,79,o),
(82,79,cs),
(43,79,o),
(1,90,o),
(1,90,c),
(-24,3,l),
(-24,3,o),
(17,-10,o),
(70,-10,cs)
);
}
);
width = 476;
},
{
anchors = (
{
name = top;
position = "{476, 740}";
}
);
layerId = "E9FAC699-F089-4894-B74F-1DA0D3D12BF3";
shapes = (
{
closed = 1;
nodes = (
(195,-10,o),
(301,67,o),
(341,207,cs),
(492,740,l),
(457,740,l),
(306,207,ls),
(274,98,o),
(182,23,o),
(76,23,cs),
(38,23,o),
(-2,29,o),
(-2,29,c),
(-12,-4,l),
(-12,-4,o),
(27,-10,o),
(66,-10,cs)
);
}
);
width = 447;
}
);
leftKerningGroup = J;
rightKerningGroup = U;
unicode = 74;
},
{
glyphname = K;
leftMetricsKey = l;
layers = (
{
anchors = (
{
name = bottom;
position = "{372, 0}";
},
{
name = ogonek;
position = "{177, 0}";
},
{
name = top;
position = "{582, 740}";
},
{
name = topleft;
position = "{163, 736}";
}
);
layerId = "93E21930-75C2-41BF-8A43-E6E4C907605A";
shapes = (
{
closed = 1;
nodes = (
(636,0,l),
(439,412,l),
(422,307,l),
(867,740,l),
(612,740,l),
(259,378,l),
(430,0,l)
);
},
{
closed = 1;
nodes = (
(177,0,l),
(386,740,l),
(194,740,l),
(-15,0,l)
);
}
);
width = 729;
},
{
anchors = (
{
name = bottom;
position = "{238, 0}";
},
{
name = ogonek;
position = "{109, 0}";
},
{
name = top;
position = "{448, 740}";
},
{
name = topleft;
position = "{154, 700}";
}
);
layerId = "359D7F19-8117-4ED1-B668-DF5CE9F2FE65";
shapes = (
{
closed = 1;
nodes = (
(546,0,l),
(265,406,l),
(255,338,l),
(745,739,l),
(606,739,l),
(174,380,l),
(435,0,l)
);
},
{
closed = 1;
nodes = (
(109,0,l),
(318,740,l),
(220,740,l),
(11,0,l)
);
}
);
width = 629;
},
{
anchors = (
{
name = bottom;
position = "{239, 0}";
},
{
name = ogonek;
position = "{52, 0}";
},
{
name = top;
position = "{448, 740}";
},
{
name = topleft;
position = "{156, 740}";
}
);
layerId = "E9FAC699-F089-4894-B74F-1DA0D3D12BF3";
shapes = (
{
closed = 1;
nodes = (
(496,0,l),
(173,402,l),
(168,359,l),
(672,739,l),
(620,739,l),
(146,381,l),
(454,0,l)
);
},
{
closed = 1;
nodes = (
(52,0,l),
(263,740,l),
(228,740,l),
(17,0,l)
);
}
);
width = 562;
}
);
leftKerningGroup = l;
rightKerningGroup = K;
unicode = 75;
},
{
glyphname = L;
leftMetricsKey = l;
rightMetricsKey = E;
layers = (
{
anchors = (
{
name = bottom;
position = "{277, 0}";
},
{
name = center;
position = "{420, 370}";
},
{
name = ogonek;
position = "{177, 0}";
},
{
name = top;
position = "{289, 740}";
},
{
name = topleft;
position = "{163, 736}";
},
{
name = topright;
position = "{828, 740}";
}
);
layerId = "93E21930-75C2-41BF-8A43-E6E4C907605A";
shapes = (
{
closed = 1;
nodes = (
(523,0,l),
(570,166,l),
(109,166,l),
(62,0,l)
);
},
{
closed = 1;
nodes = (
(177,0,l),
(386,740,l),
(194,740,l),
(-15,0,l)
);
}
);
width = 634;
},
{
anchors = (
{
name = bottom;
position = "{333, 0}";
},
{
name = center;
position = "{427, 351}";
},
{
name = ogonek;
position = "{109, 0}";
},
{
name = top;
position = "{270, 740}";
},
{
name = topleft;
position = "{154, 700}";
},
{
name = topright;
position = "{806, 700}";
}
);
layerId = "359D7F19-8117-4ED1-B668-DF5CE9F2FE65";
shapes = (
{
closed = 1;
nodes = (
(452,0,l),
(475,86,l),
(132,86,l),
(107,0,l)
);
},
{
closed = 1;
nodes = (
(109,0,l),
(318,740,l),
(220,740,l),
(11,0,l)
);
}
);
width = 599;
},
{
anchors = (
{
name = bottom;
position = "{277, 0}";
},
{
name = center;
position = "{367, 350}";
},
{
name = ogonek;
position = "{52, 0}";
},
{
name = top;
position = "{246, 740}";
},
{
name = topleft;
position = "{156, 740}";
},
{
name = topright;
position = "{719, 700}";
}
);
layerId = "E9FAC699-F089-4894-B74F-1DA0D3D12BF3";
shapes = (
{
closed = 1;
nodes = (
(459,0,l),
(469,34,l),
(65,34,l),
(56,0,l)
);
},
{
closed = 1;
nodes = (
(52,0,l),
(263,740,l),
(228,740,l),
(17,0,l)
);
}
);
width = 569;
}
);
leftKerningGroup = l;
rightKerningGroup = L;
unicode = 76;
},
{
glyphname = Lacute;
layers = (
{
anchors = (
{
name = bottom;
position = "{275, 0}";
},
{
name = center;
position = "{424, 370}";
},
{
name = ogonek;
position = "{175, 0}";
},
{
name = top;
position = "{400, 982}";
},
{
name = topleft;
position = "{161, 736}";
},
{
name = topright;
position = "{825, 740}";
}
);
layerId = "93E21930-75C2-41BF-8A43-E6E4C907605A";
shapes = (
{
closed = 1;
nodes = (
(508,0,l),
(554,166,l),
(107,166,l),
(60,0,l)
);
},
{
closed = 1;
nodes = (
(175,0,l),
(384,740,l),
(192,740,l),
(-18,0,l)
);
},
{
closed = 1;
nodes = (
(499,989,l),
(329,989,l),
(252,810,l),
(385,809,l)
);
}
);
width = 629;
},
{
anchors = (
{
name = bottom;
position = "{331, 0}";
},
{
name = center;
position = "{430, 350}";
},
{
name = ogonek;
position = "{107, 0}";
},
{
name = top;
position = "{380, 1005}";
},
{
name = topleft;
position = "{152, 700}";
},
{
name = topright;
position = "{802, 700}";
}
);
layerId = "359D7F19-8117-4ED1-B668-DF5CE9F2FE65";
shapes = (
{
closed = 1;
nodes = (
(450,0,l),
(473,86,l),
(130,86,l),
(105,0,l)
);
},
{
closed = 1;
nodes = (
(107,0,l),
(316,740,l),
(218,740,l),
(9,0,l)
);
},
{
closed = 1;
nodes = (
(450,1001,l),
(356,1001,l),
(261,821,l),
(337,820,l)
);
}
);
width = 596;
},
{
anchors = (
{
name = bottom;
position = "{275, 0}";
},
{
name = center;
position = "{374, 350}";
},
{
name = ogonek;
position = "{50, 0}";
},
{
name = top;
position = "{337, 980}";
},
{
name = topleft;
position = "{152, 740}";
},
{
name = topright;
position = "{715, 700}";
}
);
layerId = "E9FAC699-F089-4894-B74F-1DA0D3D12BF3";
shapes = (
{
closed = 1;
nodes = (
(457,0,l),
(465,34,l),
(62,34,l),
(54,0,l)
);
},
{
closed = 1;
nodes = (
(50,0,l),
(259,740,l),
(224,740,l),
(15,0,l)
);
},
{
closed = 1;
nodes = (
(352,980,l),
(317,980,l),
(248,828,l),
(276,828,l)
);
}
);
width = 566;
}
);
leftKerningGroup = l;
rightKerningGroup = L;
unicode = 313;
},
{
glyphname = Lcaron;
layers = (
{
anchors = (
{
name = bottom;
position = "{275, 0}";
},
{
name = center;
position = "{424, 370}";
},
{
name = ogonek;
position = "{175, 0}";
},
{
name = top;
position = "{357, 996}";
},
{
name = topleft;
position = "{161, 736}";
},
{
name = topright;
position = "{825, 740}";
}
);
layerId = "93E21930-75C2-41BF-8A43-E6E4C907605A";
shapes = (
{
closed = 1;
nodes = (
(508,0,l),
(554,166,l),
(107,166,l),
(60,0,l)
);
},
{
closed = 1;
nodes = (
(175,0,l),
(384,740,l),
(192,740,l),
(-18,0,l)
);
},
{
closed = 1;
nodes = (
(383,800,l),
(571,989,l),
(420,989,l),
(291,854,l),
(339,845,l),
(285,989,l),
(154,989,l),
(236,800,l)
);
}
);
width = 629;
},
{
anchors = (
{
name = bottom;
position = "{331, 0}";
},
{
name = center;
position = "{430, 350}";
},
{
name = ogonek;
position = "{107, 0}";
},
{
name = top;
position = "{333, 973}";
},
{
name = topleft;
position = "{152, 700}";
},
{
name = topright;
position = "{802, 700}";
}
);
layerId = "359D7F19-8117-4ED1-B668-DF5CE9F2FE65";
shapes = (
{
closed = 1;
nodes = (
(450,0,l),
(473,86,l),
(130,86,l),
(105,0,l)
);
},
{
closed = 1;
nodes = (
(107,0,l),
(316,740,l),
(218,740,l),
(9,0,l)
);
},
{
closed = 1;
nodes = (
(322,819,l),
(490,986,l),
(396,986,l),
(260,847,l),
(308,838,l),
(245,986,l),
(167,986,l),
(241,819,l)
);
}
);
width = 596;
},
{
anchors = (
{
name = bottom;
position = "{275, 0}";
},
{
name = center;
position = "{374, 350}";
},
{
name = ogonek;
position = "{50, 0}";
},
{
name = top;
position = "{308, 970}";
},
{
name = topleft;
position = "{152, 740}";
},
{
name = topright;
position = "{715, 700}";
}
);
layerId = "E9FAC699-F089-4894-B74F-1DA0D3D12BF3";
shapes = (
{
closed = 1;
nodes = (
(457,0,l),
(465,34,l),
(62,34,l),
(54,0,l)
);
},
{
closed = 1;
nodes = (
(50,0,l),
(259,740,l),
(224,740,l),
(15,0,l)
);
},
{
closed = 1;
nodes = (
(275,818,l),
(429,970,l),
(385,970,l),
(250,832,l),
(265,832,l),
(206,970,l),
(170,970,l),
(238,818,l)
);
}
);
width = 566;
}
);
leftKerningGroup = l;
rightKerningGroup = L;
unicode = 317;
},
{
glyphname = Lslash;
leftMetricsKey = "=l-69";
rightMetricsKey = L;
layers = (
{
anchors = (
{
name = bottom;
position = "{291, 0}";
},
{
name = center;
position = "{439, 370}";
},
{
name = ogonek;
position = "{190, 0}";
},
{
name = top;
position = "{302, 740}";
},
{
name = topleft;
position = "{176, 736}";
},
{
name = topright;
position = "{841, 740}";
}
);
layerId = "93E21930-75C2-41BF-8A43-E6E4C907605A";
shapes = (
{
closed = 1;
nodes = (
(419,407,l),
(463,553,l),
(19,361,l),
(-26,215,l)
);
},
{
closed = 1;
nodes = (
(523,0,l),
(570,166,l),
(122,166,l),
(75,0,l)
);
},
{
closed = 1;
nodes = (
(190,0,l),
(400,740,l),
(208,740,l),
(-2,0,l)
);
}
);
width = 634;
},
{
anchors = (
{
name = bottom;
position = "{396, 0}";
},
{
name = center;
position = "{494, 350}";
},
{
name = ogonek;
position = "{170, 0}";
},
{
name = top;
position = "{331, 740}";
},
{
name = topleft;
position = "{217, 700}";
},
{
name = topright;
position = "{867, 700}";
}
);
layerId = "359D7F19-8117-4ED1-B668-DF5CE9F2FE65";
shapes = (
{
closed = 1;
nodes = (
(417,400,l),
(440,488,l),
(48,382,l),
(25,294,l)
);
},
{
closed = 1;
nodes = (
(513,0,l),
(538,86,l),
(193,86,l),
(170,0,l)
);
},
{
closed = 1;
nodes = (
(170,0,l),
(381,740,l),
(283,740,l),
(72,0,l)
);
}
);
width = 661;
},
{
anchors = (
{
name = bottom;
position = "{315, 0}";
},
{
name = center;
position = "{413, 350}";
},
{
name = ogonek;
position = "{91, 0}";
},
{
name = top;
position = "{283, 740}";
},
{
name = topleft;
position = "{193, 740}";
},
{
name = topright;
position = "{756, 700}";
}
);
layerId = "E9FAC699-F089-4894-B74F-1DA0D3D12BF3";
shapes = (
{
closed = 1;
nodes = (
(352,427,l),
(362,464,l),
(41,330,l),
(32,293,l)
);
},
{
closed = 1;
nodes = (
(496,0,l),
(506,34,l),
(102,34,l),
(93,0,l)
);
},
{
closed = 1;
nodes = (
(91,0,l),
(300,740,l),
(265,740,l),
(56,0,l)
);
}
);
width = 606;
}
);
rightKerningGroup = L;
unicode = 321;
},
{
glyphname = M;
layers = (
{
layerId = "93E21930-75C2-41BF-8A43-E6E4C907605A";
shapes = (
{
closed = 1;
nodes = (
(420,240,l),
(436,740,l),
(166,740,l),
(-46,0,l),
(144,0,l),
(271,443,l),
(252,0,l),
(448,0,l),
(682,441,l),
(556,0,l),
(746,0,l),
(958,740,l),
(698,740,l)
);
}
);
width = 912;
},
{
layerId = "359D7F19-8117-4ED1-B668-DF5CE9F2FE65";
shapes = (
{
closed = 1;
nodes = (
(360,106,l),
(330,740,l),
(196,740,l),
(-16,0,l),
(76,0,l),
(249,605,l),
(275,0,l),
(384,0,l),
(757,603,l),
(584,0,l),
(675,0,l),
(887,740,l),
(754,740,l)
);
}
);
width = 871;
},
{
layerId = "E9FAC699-F089-4894-B74F-1DA0D3D12BF3";
shapes = (
{
closed = 1;
nodes = (
(332,44,l),
(250,740,l),
(196,740,l),
(-16,0,l),
(18,0,l),
(218,698,l),
(300,2,l),
(340,2,l),
(820,698,l),
(620,0,l),
(654,0,l),
(866,740,l),
(812,740,l)
);
}
);
width = 850;
}
);
leftKerningGroup = l;
rightKerningGroup = l;
unicode = 77;
},
{
glyphname = N;
leftMetricsKey = l;
rightMetricsKey = l;
layers = (
{
anchors = (
{
name = bottom;
position = "{301, 0}";
},
{
name = top;
position = "{510, 740}";
}
);
layerId = "93E21930-75C2-41BF-8A43-E6E4C907605A";
shapes = (
{
closed = 1;
nodes = (
(177,0,l),
(300,432,l),
(272,453,l),
(446,0,l),
(625,0,l),
(834,740,l),
(642,740,l),
(514,288,l),
(541,266,l),
(371,740,l),
(194,740,l),
(-15,0,l)
);
}
);
width = 762;
},
{
anchors = (
{
name = bottom;
position = "{295, 0}";
},
{
name = top;
position = "{504, 740}";
}
);
layerId = "359D7F19-8117-4ED1-B668-DF5CE9F2FE65";
shapes = (
{
closed = 1;
nodes = (
(109,0,l),
(283,610,l),
(253,601,l),
(495,0,l),
(583,0,l),
(792,740,l),
(694,740,l),
(522,131,l),
(550,138,l),
(308,740,l),
(220,740,l),
(11,0,l)
);
}
);
width = 739;
},
{
anchors = (
{
name = bottom;
position = "{297, 0}";
},
{
name = top;
position = "{508, 740}";
}
);
layerId = "E9FAC699-F089-4894-B74F-1DA0D3D12BF3";
shapes = (
{
closed = 1;
nodes = (
(52,0,l),
(259,731,l),
(236,721,l),
(518,0,l),
(554,0,l),
(765,740,l),
(730,740,l),
(523,11,l),
(546,20,l),
(264,740,l),
(228,740,l),
(17,0,l)
);
}
);
width = 719;
}
);
leftKerningGroup = l;
rightKerningGroup = l;
unicode = 78;
},
{
glyphname = Nacute;
layers = (
{
anchors = (
{
name = bottom;
position = "{299, 0}";
},
{
name = top;
position = "{621, 982}";
}
);
layerId = "93E21930-75C2-41BF-8A43-E6E4C907605A";
shapes = (
{
closed = 1;
nodes = (
(175,0,l),
(298,432,l),
(269,453,l),
(444,0,l),
(623,0,l),
(832,740,l),
(639,740,l),
(511,288,l),
(539,266,l),
(369,740,l),
(192,740,l),
(-18,0,l)
);
},
{
closed = 1;
nodes = (
(721,989,l),
(551,989,l),
(474,810,l),
(607,809,l)
);
}
);
width = 759;
},
{
anchors = (
{
name = bottom;
position = "{293, 0}";
},
{
name = top;
position = "{615, 1005}";
}
);
layerId = "359D7F19-8117-4ED1-B668-DF5CE9F2FE65";
shapes = (
{
closed = 1;
nodes = (
(107,0,l),
(280,610,l),
(251,601,l),
(493,0,l),
(581,0,l),
(790,740,l),
(692,740,l),
(520,131,l),
(548,138,l),
(306,740,l),
(218,740,l),
(9,0,l)
);
},
{
closed = 1;
nodes = (
(686,1001,l),
(591,1001,l),
(496,821,l),
(573,820,l)
);
}
);
width = 735;
},
{
anchors = (
{
name = bottom;
position = "{295, 0}";
},
{
name = top;
position = "{598, 980}";
}
);
layerId = "E9FAC699-F089-4894-B74F-1DA0D3D12BF3";
shapes = (
{
closed = 1;
nodes = (
(50,0,l),
(257,731,l),
(232,721,l),
(516,0,l),
(552,0,l),
(761,740,l),
(726,740,l),
(521,11,l),
(544,20,l),
(260,740,l),
(224,740,l),
(15,0,l)
);
},
{
closed = 1;
nodes = (
(613,980,l),
(577,980,l),
(508,828,l),
(537,828,l)
);
}
);
width = 716;
}
);
leftKerningGroup = l;
rightKerningGroup = l;
unicode = 323;
},
{
glyphname = Ncaron;
layers = (
{
anchors = (
{
name = bottom;
position = "{299, 0}";
},
{
name = top;
position = "{578, 996}";
}
);
layerId = "93E21930-75C2-41BF-8A43-E6E4C907605A";
shapes = (
{
closed = 1;
nodes = (
(175,0,l),
(298,432,l),
(269,453,l),
(444,0,l),
(623,0,l),
(832,740,l),
(639,740,l),
(511,288,l),
(539,266,l),
(369,740,l),
(192,740,l),
(-18,0,l)
);
},
{
closed = 1;
nodes = (
(604,800,l),
(792,989,l),
(641,989,l),
(512,854,l),
(560,845,l),
(506,989,l),
(375,989,l),
(457,800,l)
);
}
);
width = 759;
},
{
anchors = (
{
name = bottom;
position = "{293, 0}";
},
{
name = top;
position = "{567, 973}";
}
);
layerId = "359D7F19-8117-4ED1-B668-DF5CE9F2FE65";
shapes = (
{
closed = 1;
nodes = (
(107,0,l),
(280,610,l),
(251,601,l),
(493,0,l),
(581,0,l),
(790,740,l),
(692,740,l),
(520,131,l),
(548,138,l),
(306,740,l),
(218,740,l),
(9,0,l)
);
},
{
closed = 1;
nodes = (
(558,819,l),
(726,986,l),
(631,986,l),
(495,847,l),
(544,838,l),
(480,986,l),
(403,986,l),
(477,819,l)
);
}
);
width = 735;
},
{
anchors = (
{
name = bottom;
position = "{295, 0}";
},
{
name = top;
position = "{568, 970}";
}
);
layerId = "E9FAC699-F089-4894-B74F-1DA0D3D12BF3";
shapes = (
{
closed = 1;
nodes = (
(50,0,l),
(257,731,l),
(232,721,l),
(516,0,l),
(552,0,l),
(761,740,l),
(726,740,l),
(521,11,l),
(544,20,l),
(260,740,l),
(224,740,l),
(15,0,l)
);
},
{
closed = 1;
nodes = (
(537,818,l),
(691,970,l),
(647,970,l),
(510,832,l),
(527,832,l),
(468,970,l),
(432,970,l),
(500,818,l)
);
}
);
width = 716;
}
);
leftKerningGroup = l;
rightKerningGroup = l;
unicode = 327;
},
{
glyphname = Ntilde;
layers = (
{
anchors = (
{
name = bottom;
position = "{299, 0}";
},
{
name = top;
position = "{574, 972}";
}
);
layerId = "93E21930-75C2-41BF-8A43-E6E4C907605A";
shapes = (
{
closed = 1;
nodes = (
(175,0,l),
(298,432,l),
(269,453,l),
(444,0,l),
(623,0,l),
(832,740,l),
(639,740,l),
(511,288,l),
(539,266,l),
(369,740,l),
(192,740,l),
(-18,0,l)
);
},
{
closed = 1;
nodes = (
(714,822,o),
(741,899,o),
(764,981,c),
(671,981,l),
(660,946,o),
(649,928,o),
(630,928,cs),
(596,928,o),
(568,987,o),
(495,987,cs),
(404,987,o),
(377,911,o),
(355,828,c),
(448,828,l),
(456,862,o),
(470,881,o),
(488,881,cs),
(523,881,o),
(551,822,o),
(624,822,cs)
);
}
);
width = 759;
},
{
anchors = (
{
name = bottom;
position = "{293, 0}";
},
{
name = top;
position = "{566, 964}";
}
);
layerId = "359D7F19-8117-4ED1-B668-DF5CE9F2FE65";
shapes = (
{
closed = 1;
nodes = (
(107,0,l),
(280,610,l),
(251,601,l),
(493,0,l),
(581,0,l),
(790,740,l),
(692,740,l),
(520,131,l),
(548,138,l),
(306,740,l),
(218,740,l),
(9,0,l)
);
},
{
closed = 1;
nodes = (
(668,826,o),
(697,875,o),
(718,958,c),
(657,958,l),
(647,916,o),
(636,893,o),
(613,893,cs),
(576,893,o),
(557,963,o),
(487,963,cs),
(428,963,o),
(398,915,o),
(378,832,c),
(440,832,l),
(450,874,o),
(464,898,o),
(484,898,cs),
(522,898,o),
(542,826,o),
(611,826,cs)
);
}
);
width = 735;
},
{
anchors = (
{
name = bottom;
position = "{295, 0}";
},
{
name = top;
position = "{560, 935}";
}
);
layerId = "E9FAC699-F089-4894-B74F-1DA0D3D12BF3";
shapes = (
{
closed = 1;
nodes = (
(50,0,l),
(257,731,l),
(232,721,l),
(516,0,l),
(552,0,l),
(761,740,l),
(726,740,l),
(521,11,l),
(544,20,l),
(260,740,l),
(224,740,l),
(15,0,l)
);
},
{
closed = 1;
nodes = (
(641,831,o),
(670,878,o),
(685,936,c),
(653,936,l),
(642,887,o),
(624,860,o),
(600,860,cs),
(559,860,o),
(562,941,o),
(499,941,cs),
(452,941,o),
(422,898,o),
(407,836,c),
(439,836,l),
(448,880,o),
(468,912,o),
(494,912,cs),
(536,912,o),
(535,831,o),
(595,831,cs)
);
}
);
width = 716;
}
);
leftKerningGroup = l;
rightKerningGroup = l;
unicode = 209;
},
{
glyphname = O;
layers = (
{
anchors = (
{
name = bottom;
position = "{350, 0}";
},
{
name = center;
position = "{452, 357}";
},
{
name = ogonek;
position = "{663, 11}";
},
{
name = top;
position = "{507, 737}";
},
{
name = topleft;
position = "{195, 738}";
},
{
name = topright;
position = "{511, 750}";
}
);
layerId = "93E21930-75C2-41BF-8A43-E6E4C907605A";
shapes = (
{
closed = 1;
nodes = (
(665,-10,o),
(817,219,o),
(817,428,cs),
(817,597,o),
(717,750,o),
(493,750,cs),
(219,750,o),
(66,521,o),
(66,312,cs),
(66,143,o),
(166,-10,o),
(392,-10,cs)
);
},
{
closed = 1;
nodes = (
(303,161,o),
(259,233,o),
(259,318,cs),
(259,438,o),
(343,579,o),
(483,579,cs),
(582,579,o),
(626,507,o),
(626,422,cs),
(626,302,o),
(542,161,o),
(402,161,cs)
);
}
);
width = 824;
},
{
anchors = (
{
name = bottom;
position = "{313, 0}";
},
{
name = center;
position = "{410, 299}";
},
{
name = ogonek;
position = "{642, 11}";
},
{
name = top;
position = "{482, 737}";
},
{
name = topleft;
position = "{173, 738}";
},
{
name = topright;
position = "{471, 750}";
}
);
layerId = "359D7F19-8117-4ED1-B668-DF5CE9F2FE65";
shapes = (
{
closed = 1;
nodes = (
(610,-10,o),
(759,232,o),
(759,445,cs),
(759,607,o),
(673,750,o),
(471,750,cs),
(210,750,o),
(59,509,o),
(59,295,cs),
(59,132,o),
(147,-10,o),
(349,-10,cs)
);
},
{
closed = 1;
nodes = (
(217,79,o),
(159,179,o),
(159,297,cs),
(159,464,o),
(273,662,o),
(466,662,cs),
(605,662,o),
(660,560,o),
(660,441,cs),
(660,276,o),
(548,79,o),
(353,79,cs)
);
}
);
width = 774;
},
{
anchors = (
{
name = bottom;
position = "{311, 0}";
},
{
name = center;
position = "{430, 371}";
},
{
name = ogonek;
position = "{639, 11}";
},
{
name = top;
position = "{495, 737}";
},
{
name = topleft;
position = "{167, 738}";
},
{
name = topright;
position = "{470, 750}";
}
);
layerId = "E9FAC699-F089-4894-B74F-1DA0D3D12BF3";
shapes = (
{
closed = 1;
nodes = (
(586,-10,o),
(734,240,o),
(734,455,cs),
(734,613,o),
(654,750,o),
(470,750,cs),
(220,750,o),
(71,500,o),
(71,285,cs),
(71,126,o),
(150,-10,o),
(336,-10,cs)
);
},
{
closed = 1;
nodes = (
(159,24,o),
(107,162,o),
(107,285,cs),
(107,462,o),
(225,716,o),
(470,716,cs),
(646,716,o),
(698,578,o),
(698,455,cs),
(698,277,o),
(580,24,o),
(336,24,cs)
);
}
);
width = 773;
}
);
leftKerningGroup = O;
rightKerningGroup = O;
unicode = 79;
},
{
glyphname = Oacute;
layers = (
{
anchors = (
{
name = bottom;
position = "{350, 0}";
},
{
name = center;
position = "{452, 357}";
},
{
name = ogonek;
position = "{663, 11}";
},
{
name = top;
position = "{620, 980}";
},
{
name = topleft;
position = "{195, 738}";
},
{
name = topright;
position = "{511, 750}";
}
);
layerId = "93E21930-75C2-41BF-8A43-E6E4C907605A";
shapes = (
{
closed = 1;
nodes = (
(665,-10,o),
(817,219,o),
(817,428,cs),
(817,597,o),
(717,750,o),
(493,750,cs),
(219,750,o),
(66,521,o),
(66,312,cs),
(66,143,o),
(166,-10,o),
(392,-10,cs)
);
},
{
closed = 1;
nodes = (
(303,161,o),
(259,233,o),
(259,318,cs),
(259,438,o),
(343,579,o),
(483,579,cs),
(582,579,o),
(626,507,o),
(626,422,cs),
(626,302,o),
(542,161,o),
(402,161,cs)
);
},
{
closed = 1;
nodes = (
(720,986,l),
(550,986,l),
(473,807,l),
(606,806,l)
);
}
);
width = 824;
},
{
anchors = (
{
name = bottom;
position = "{313, 0}";
},
{
name = center;
position = "{410, 299}";
},
{
name = ogonek;
position = "{642, 11}";
},
{
name = top;
position = "{595, 1001}";
},
{
name = topleft;
position = "{173, 738}";
},
{
name = topright;
position = "{471, 750}";
}
);
layerId = "359D7F19-8117-4ED1-B668-DF5CE9F2FE65";
shapes = (
{
closed = 1;
nodes = (
(610,-10,o),
(759,232,o),
(759,445,cs),
(759,607,o),
(673,750,o),
(471,750,cs),
(210,750,o),
(59,509,o),
(59,295,cs),
(59,132,o),
(147,-10,o),
(349,-10,cs)
);
},
{
closed = 1;
nodes = (
(217,79,o),
(159,179,o),
(159,297,cs),
(159,464,o),
(273,662,o),
(466,662,cs),
(605,662,o),
(660,560,o),
(660,441,cs),
(660,276,o),
(548,79,o),
(353,79,cs)
);
},
{
closed = 1;
nodes = (
(666,998,l),
(571,998,l),
(477,818,l),
(553,817,l)
);
}
);
width = 774;
},
{
anchors = (
{
name = bottom;
position = "{311, 0}";
},
{
name = center;
position = "{430, 371}";
},
{
name = ogonek;
position = "{639, 11}";
},
{
name = top;
position = "{588, 977}";
},
{
name = topleft;
position = "{167, 738}";
},
{
name = topright;
position = "{470, 750}";
}
);
layerId = "E9FAC699-F089-4894-B74F-1DA0D3D12BF3";
shapes = (
{
closed = 1;
nodes = (
(586,-10,o),
(734,240,o),
(734,455,cs),
(734,613,o),
(654,750,o),
(470,750,cs),
(220,750,o),
(71,500,o),
(71,285,cs),
(71,126,o),
(150,-10,o),
(336,-10,cs)
);
},
{
closed = 1;
nodes = (
(159,24,o),
(107,162,o),
(107,285,cs),
(107,462,o),
(225,716,o),
(470,716,cs),
(646,716,o),
(698,578,o),
(698,455,cs),
(698,277,o),
(580,24,o),
(336,24,cs)
);
},
{
closed = 1;
nodes = (
(603,977,l),
(568,977,l),
(499,825,l),
(527,825,l)
);
}
);
width = 773;
}
);
leftKerningGroup = O;
rightKerningGroup = O;
unicode = 211;
},
{
glyphname = Ocircumflex;
layers = (
{
anchors = (
{
name = bottom;
position = "{350, 0}";
},
{
name = center;
position = "{452, 357}";
},
{
name = ogonek;
position = "{663, 11}";
},
{
name = top;
position = "{736, 857}";
},
{
name = topleft;
position = "{195, 738}";
},
{
name = topright;
position = "{511, 750}";
}
);
layerId = "93E21930-75C2-41BF-8A43-E6E4C907605A";
shapes = (
{
closed = 1;
nodes = (
(665,-10,o),
(817,219,o),
(817,428,cs),
(817,597,o),
(717,750,o),
(493,750,cs),
(219,750,o),
(66,521,o),
(66,312,cs),
(66,143,o),
(166,-10,o),
(392,-10,cs)
);
},
{
closed = 1;
nodes = (
(303,161,o),
(259,233,o),
(259,318,cs),
(259,438,o),
(343,579,o),
(483,579,cs),
(582,579,o),
(626,507,o),
(626,422,cs),
(626,302,o),
(542,161,o),
(402,161,cs)
);
},
{
closed = 1;
nodes = (
(459,796,l),
(549,883,l),
(594,796,l),
(724,796,l),
(634,955,l),
(487,955,l),
(307,796,l)
);
}
);
width = 824;
},
{
anchors = (
{
name = bottom;
position = "{313, 0}";
},
{
name = center;
position = "{410, 299}";
},
{
name = ogonek;
position = "{642, 11}";
},
{
name = top;
position = "{657, 861}";
},
{
name = topleft;
position = "{173, 738}";
},
{
name = topright;
position = "{471, 750}";
}
);
layerId = "359D7F19-8117-4ED1-B668-DF5CE9F2FE65";
shapes = (
{
closed = 1;
nodes = (
(610,-10,o),
(759,232,o),
(759,445,cs),
(759,607,o),
(673,750,o),
(471,750,cs),
(210,750,o),
(59,509,o),
(59,295,cs),
(59,132,o),
(147,-10,o),
(349,-10,cs)
);
},
{
closed = 1;
nodes = (
(217,79,o),
(159,179,o),
(159,297,cs),
(159,464,o),
(273,662,o),
(466,662,cs),
(605,662,o),
(660,560,o),
(660,441,cs),
(660,276,o),
(548,79,o),
(353,79,cs)
);
},
{
closed = 1;
nodes = (
(423,813,l),
(524,907,l),
(574,813,l),
(653,813,l),
(572,960,l),
(491,960,l),
(330,813,l)
);
}
);
width = 774;
},
{
anchors = (
{
name = bottom;
position = "{311, 0}";
},
{
name = center;
position = "{430, 371}";
},
{
name = ogonek;
position = "{639, 11}";
},
{
name = top;
position = "{659, 846}";
},
{
name = topleft;
position = "{167, 738}";
},
{
name = topright;
position = "{470, 750}";
}
);
layerId = "E9FAC699-F089-4894-B74F-1DA0D3D12BF3";
shapes = (
{
closed = 1;
nodes = (
(586,-10,o),
(734,240,o),
(734,455,cs),
(734,613,o),
(654,750,o),
(470,750,cs),
(220,750,o),
(71,500,o),
(71,285,cs),
(71,126,o),
(150,-10,o),
(336,-10,cs)
);
},
{
closed = 1;
nodes = (
(159,24,o),
(107,162,o),
(107,285,cs),
(107,462,o),
(225,716,o),
(470,716,cs),
(646,716,o),
(698,578,o),
(698,455,cs),
(698,277,o),
(580,24,o),
(336,24,cs)
);
},
{
closed = 1;
nodes = (
(435,815,l),
(554,927,l),
(611,815,l),
(647,815,l),
(574,953,l),
(537,953,l),
(388,815,l)
);
}
);
width = 773;
}
);
leftKerningGroup = O;
rightKerningGroup = O;
unicode = 212;
},
{
glyphname = Ocircumflexacute;
layers = (
{
anchors = (
{
name = bottom;
position = "{350, 0}";
},
{
name = center;
position = "{452, 357}";
},
{
name = ogonek;
position = "{663, 11}";
},
{
name = top;
position = "{507, 737}";
},
{
name = topleft;
position = "{195, 738}";
},
{
name = topright;
position = "{511, 750}";
}
);
layerId = "93E21930-75C2-41BF-8A43-E6E4C907605A";
shapes = (
{
closed = 1;
nodes = (
(665,-10,o),
(817,219,o),
(817,428,cs),
(817,597,o),
(717,750,o),
(493,750,cs),
(219,750,o),
(66,521,o),
(66,312,cs),
(66,143,o),
(166,-10,o),
(392,-10,cs)
);
},
{
closed = 1;
nodes = (
(303,161,o),
(259,233,o),
(259,318,cs),
(259,438,o),
(343,579,o),
(483,579,cs),
(582,579,o),
(626,507,o),
(626,422,cs),
(626,302,o),
(542,161,o),
(402,161,cs)
);
},
{
closed = 1;
nodes = (
(459,796,l),
(542,852,l),
(594,796,l),
(724,796,l),
(620,899,l),
(473,899,l),
(307,796,l)
);
},
{
closed = 1;
nodes = (
(921,998,l),
(751,998,l),
(691,881,l),
(824,881,l)
);
}
);
width = 824;
},
{
anchors = (
{
name = bottom;
position = "{313, 0}";
},
{
name = center;
position = "{410, 299}";
},
{
name = ogonek;
position = "{642, 11}";
},
{
name = top;
position = "{482, 737}";
},
{
name = topleft;
position = "{173, 738}";
},
{
name = topright;
position = "{471, 750}";
}
);
layerId = "359D7F19-8117-4ED1-B668-DF5CE9F2FE65";
shapes = (
{
closed = 1;
nodes = (
(610,-10,o),
(759,232,o),
(759,445,cs),
(759,607,o),
(673,750,o),
(471,750,cs),
(210,750,o),
(59,509,o),
(59,295,cs),
(59,132,o),
(147,-10,o),
(349,-10,cs)
);
},
{
closed = 1;
nodes = (
(217,79,o),
(159,179,o),
(159,297,cs),
(159,464,o),
(273,662,o),
(466,662,cs),
(605,662,o),
(660,560,o),
(660,441,cs),
(660,276,o),
(548,79,o),
(353,79,cs)
);
},
{
closed = 1;
nodes = (
(436,807,l),
(527,868,l),
(587,807,l),
(665,807,l),
(571,903,l),
(490,903,l),
(342,807,l)
);
},
{
closed = 1;
nodes = (
(823,1008,l),
(729,1008,l),
(651,891,l),
(728,890,l)
);
}
);
width = 774;
},
{
anchors = (
{
name = bottom;
position = "{311, 0}";
},
{
name = center;
position = "{430, 371}";
},
{
name = ogonek;
position = "{639, 11}";
},
{
name = top;
position = "{495, 737}";
},
{
name = topleft;
position = "{167, 738}";
},
{
name = topright;
position = "{470, 750}";
}
);
layerId = "E9FAC699-F089-4894-B74F-1DA0D3D12BF3";
shapes = (
{
closed = 1;
nodes = (
(586,-10,o),
(734,240,o),
(734,455,cs),
(734,613,o),
(654,750,o),
(470,750,cs),
(220,750,o),
(71,500,o),
(71,285,cs),
(71,126,o),
(150,-10,o),
(336,-10,cs)
);
},
{
closed = 1;
nodes = (
(159,24,o),
(107,162,o),
(107,285,cs),
(107,462,o),
(225,716,o),
(470,716,cs),
(646,716,o),
(698,578,o),
(698,455,cs),
(698,277,o),
(580,24,o),
(336,24,cs)
);
},
{
closed = 1;
nodes = (
(431,808,l),
(540,876,l),
(609,808,l),
(644,808,l),
(560,898,l),
(523,898,l),
(385,808,l)
);
},
{
closed = 1;
nodes = (
(739,985,l),
(704,985,l),
(649,886,l),
(677,886,l)
);
}
);
width = 773;
}
);
leftKerningGroup = O;
rightKerningGroup = O;
unicode = 7888;
},
{
glyphname = Ocircumflexdotbelow;
layers = (
{
anchors = (
{
name = bottom;
position = "{276, -256}";
},
{
name = center;
position = "{452, 357}";
},
{
name = ogonek;
position = "{663, 11}";
},
{
name = top;
position = "{736, 857}";
},
{
name = topleft;
position = "{195, 738}";
},
{
name = topright;
position = "{511, 750}";
}
);
layerId = "93E21930-75C2-41BF-8A43-E6E4C907605A";
shapes = (
{
closed = 1;
nodes = (
(665,-10,o),
(817,219,o),
(817,428,cs),
(817,597,o),
(717,750,o),
(493,750,cs),
(219,750,o),
(66,521,o),
(66,312,cs),
(66,143,o),
(166,-10,o),
(392,-10,cs)
);
},
{
closed = 1;
nodes = (
(303,161,o),
(259,233,o),
(259,318,cs),
(259,438,o),
(343,579,o),
(483,579,cs),
(582,579,o),
(626,507,o),
(626,422,cs),
(626,302,o),
(542,161,o),
(402,161,cs)
);
},
{
closed = 1;
nodes = (
(353,-260,o),
(391,-220,o),
(391,-171,cs),
(391,-121,o),
(353,-82,o),
(302,-82,cs),
(249,-82,o),
(213,-121,o),
(213,-171,cs),
(213,-220,o),
(249,-260,o),
(302,-260,cs)
);
},
{
closed = 1;
nodes = (
(459,796,l),
(549,883,l),
(594,796,l),
(724,796,l),
(634,955,l),
(487,955,l),
(307,796,l)
);
}
);
width = 824;
},
{
anchors = (
{
name = bottom;
position = "{249, -219}";
},
{
name = center;
position = "{410, 299}";
},
{
name = ogonek;
position = "{642, 11}";
},
{
name = top;
position = "{657, 861}";
},
{
name = topleft;
position = "{173, 738}";
},
{
name = topright;
position = "{471, 750}";
}
);
layerId = "359D7F19-8117-4ED1-B668-DF5CE9F2FE65";
shapes = (
{
closed = 1;
nodes = (
(610,-10,o),
(759,232,o),
(759,445,cs),
(759,607,o),
(673,750,o),
(471,750,cs),
(210,750,o),
(59,509,o),
(59,295,cs),
(59,132,o),
(147,-10,o),
(349,-10,cs)
);
},
{
closed = 1;
nodes = (
(217,79,o),
(159,179,o),
(159,297,cs),
(159,464,o),
(273,662,o),
(466,662,cs),
(605,662,o),
(660,560,o),
(660,441,cs),
(660,276,o),
(548,79,o),
(353,79,cs)
);
},
{
closed = 1;
nodes = (
(305,-227,o),
(333,-198,o),
(333,-162,cs),
(333,-126,o),
(305,-97,o),
(268,-97,cs),
(230,-97,o),
(203,-126,o),
(203,-162,cs),
(203,-197,o),
(230,-227,o),
(268,-227,cs)
);
},
{
closed = 1;
nodes = (
(423,813,l),
(524,907,l),
(574,813,l),
(653,813,l),
(572,960,l),
(491,960,l),
(330,813,l)
);
}
);
width = 774;
},
{
anchors = (
{
name = bottom;
position = "{257, -189}";
},
{
name = center;
position = "{430, 371}";
},
{
name = ogonek;
position = "{639, 11}";
},
{
name = top;
position = "{659, 846}";
},
{
name = topleft;
position = "{167, 738}";
},
{
name = topright;
position = "{470, 750}";
}
);
layerId = "E9FAC699-F089-4894-B74F-1DA0D3D12BF3";
shapes = (
{
closed = 1;
nodes = (
(586,-10,o),
(734,240,o),
(734,455,cs),
(734,613,o),
(654,750,o),
(470,750,cs),
(220,750,o),
(71,500,o),
(71,285,cs),
(71,126,o),
(150,-10,o),
(336,-10,cs)
);
},
{
closed = 1;
nodes = (
(159,24,o),
(107,162,o),
(107,285,cs),
(107,462,o),
(225,716,o),
(470,716,cs),
(646,716,o),
(698,578,o),
(698,455,cs),
(698,277,o),
(580,24,o),
(336,24,cs)
);
},
{
closed = 1;
nodes = (
(288,-192,o),
(305,-175,o),
(305,-154,cs),
(305,-134,o),
(288,-117,o),
(267,-117,cs),
(246,-117,o),
(230,-134,o),
(230,-154,cs),
(230,-175,o),
(246,-192,o),
(267,-192,cs)
);
},
{
closed = 1;
nodes = (
(435,815,l),
(554,927,l),
(611,815,l),
(647,815,l),
(574,953,l),
(537,953,l),
(388,815,l)
);
}
);
width = 773;
}
);
leftKerningGroup = O;
rightKerningGroup = O;
unicode = 7896;
},
{
glyphname = Ocircumflexgrave;
layers = (
{
anchors = (
{
name = bottom;
position = "{350, 0}";
},
{
name = center;
position = "{452, 357}";
},
{
name = ogonek;
position = "{663, 11}";
},
{
name = top;
position = "{357, 1278}";
},
{
name = topleft;
position = "{195, 738}";
},
{
name = topright;
position = "{511, 750}";
}
);
layerId = "93E21930-75C2-41BF-8A43-E6E4C907605A";
shapes = (
{
closed = 1;
nodes = (
(665,-10,o),
(817,219,o),
(817,428,cs),
(817,597,o),
(717,750,o),
(493,750,cs),
(219,750,o),
(66,521,o),
(66,312,cs),
(66,143,o),
(166,-10,o),
(392,-10,cs)
);
},
{
closed = 1;
nodes = (
(303,161,o),
(259,233,o),
(259,318,cs),
(259,438,o),
(343,579,o),
(483,579,cs),
(582,579,o),
(626,507,o),
(626,422,cs),
(626,302,o),
(542,161,o),
(402,161,cs)
);
},
{
closed = 1;
nodes = (
(459,796,l),
(542,852,l),
(594,796,l),
(724,796,l),
(619,899,l),
(472,899,l),
(307,796,l)
);
},
{
closed = 1;
nodes = (
(819,881,l),
(739,998,l),
(575,998,l),
(693,881,l)
);
}
);
width = 824;
},
{
anchors = (
{
name = bottom;
position = "{313, 0}";
},
{
name = center;
position = "{410, 299}";
},
{
name = ogonek;
position = "{642, 11}";
},
{
name = top;
position = "{347, 1097}";
},
{
name = topleft;
position = "{173, 738}";
},
{
name = topright;
position = "{471, 750}";
}
);
layerId = "359D7F19-8117-4ED1-B668-DF5CE9F2FE65";
shapes = (
{
closed = 1;
nodes = (
(610,-10,o),
(759,232,o),
(759,445,cs),
(759,607,o),
(673,750,o),
(471,750,cs),
(210,750,o),
(59,509,o),
(59,295,cs),
(59,132,o),
(147,-10,o),
(349,-10,cs)
);
},
{
closed = 1;
nodes = (
(217,79,o),
(159,179,o),
(159,297,cs),
(159,464,o),
(273,662,o),
(466,662,cs),
(605,662,o),
(660,560,o),
(660,441,cs),
(660,276,o),
(548,79,o),
(353,79,cs)
);
},
{
closed = 1;
nodes = (
(436,807,l),
(527,868,l),
(587,807,l),
(665,807,l),
(571,903,l),
(490,903,l),
(342,807,l)
);
},
{
closed = 1;
nodes = (
(725,891,l),
(648,1008,l),
(557,1008,l),
(650,890,l)
);
}
);
width = 774;
},
{
anchors = (
{
name = bottom;
position = "{311, 0}";
},
{
name = center;
position = "{430, 371}";
},
{
name = ogonek;
position = "{639, 11}";
},
{
name = top;
position = "{767, 1097}";
},
{
name = topleft;
position = "{167, 738}";
},
{
name = topright;
position = "{470, 750}";
}
);
layerId = "E9FAC699-F089-4894-B74F-1DA0D3D12BF3";
shapes = (
{
closed = 1;
nodes = (
(586,-10,o),
(734,240,o),
(734,455,cs),
(734,613,o),
(654,750,o),
(470,750,cs),
(220,750,o),
(71,500,o),
(71,285,cs),
(71,126,o),
(150,-10,o),
(336,-10,cs)
);
},
{
closed = 1;
nodes = (
(159,24,o),
(107,162,o),
(107,285,cs),
(107,462,o),
(225,716,o),
(470,716,cs),
(646,716,o),
(698,578,o),
(698,455,cs),
(698,277,o),
(580,24,o),
(336,24,cs)
);
},
{
closed = 1;
nodes = (
(432,808,l),
(541,876,l),
(609,808,l),
(645,808,l),
(560,898,l),
(523,898,l),
(386,808,l)
);
},
{
closed = 1;
nodes = (
(676,886,l),
(620,985,l),
(585,985,l),
(648,886,l)
);
}
);
width = 773;
}
);
leftKerningGroup = O;
rightKerningGroup = O;
unicode = 7890;
},
{
glyphname = Ocircumflexhoi;
layers = (
{
anchors = (
{
name = bottom;
position = "{350, 0}";
},
{
name = center;
position = "{452, 357}";
},
{
name = ogonek;
position = "{663, 11}";
},
{
name = top;
position = "{507, 737}";
},
{
name = topleft;
position = "{195, 738}";
},
{
name = topright;
position = "{511, 750}";
}
);
layerId = "93E21930-75C2-41BF-8A43-E6E4C907605A";
shapes = (
{
closed = 1;
nodes = (
(665,-10,o),
(817,219,o),
(817,428,cs),
(817,597,o),
(717,750,o),
(493,750,cs),
(219,750,o),
(66,521,o),
(66,312,cs),
(66,143,o),
(166,-10,o),
(392,-10,cs)
);
},
{
closed = 1;
nodes = (
(303,161,o),
(259,233,o),
(259,318,cs),
(259,438,o),
(343,579,o),
(483,579,cs),
(582,579,o),
(626,507,o),
(626,422,cs),
(626,302,o),
(542,161,o),
(402,161,cs)
);
},
{
closed = 1;
nodes = (
(460,796,l),
(544,852,l),
(595,796,l),
(726,796,l),
(622,899,l),
(475,899,l),
(309,796,l)
);
},
{
closed = 1;
nodes = (
(782,866,l),
(797,912,l),
(746,870,l),
(793,886,ls),
(817,894,o),
(902,914,o),
(902,965,cs),
(902,998,o),
(848,1029,o),
(766,1029,cs),
(599,1029,o),
(621,937,o),
(618,949,c),
(719,949,l),
(719,949,o),
(719,972,o),
(759,972,cs),
(779,972,o),
(791,964,o),
(791,954,cs),
(791,944,o),
(780,934,o),
(741,923,cs),
(723,918,l),
(699,910,o),
(690,899,o),
(686,888,c),
(680,866,l)
);
}
);
width = 824;
},
{
anchors = (
{
name = bottom;
position = "{313, 0}";
},
{
name = center;
position = "{410, 299}";
},
{
name = ogonek;
position = "{642, 11}";
},
{
name = top;
position = "{482, 737}";
},
{
name = topleft;
position = "{173, 738}";
},
{
name = topright;
position = "{471, 750}";
}
);
layerId = "359D7F19-8117-4ED1-B668-DF5CE9F2FE65";
shapes = (
{
closed = 1;
nodes = (
(610,-10,o),
(759,232,o),
(759,445,cs),
(759,607,o),
(673,750,o),
(471,750,cs),
(210,750,o),
(59,509,o),
(59,295,cs),
(59,132,o),
(147,-10,o),
(349,-10,cs)
);
},
{
closed = 1;
nodes = (
(217,79,o),
(159,179,o),
(159,297,cs),
(159,464,o),
(273,662,o),
(466,662,cs),
(605,662,o),
(660,560,o),
(660,441,cs),
(660,276,o),
(548,79,o),
(353,79,cs)
);
},
{
closed = 1;
nodes = (
(422,807,l),
(514,868,l),
(573,807,l),
(652,807,l),
(557,903,l),
(476,903,l),
(329,807,l)
);
},
{
closed = 1;
nodes = (
(689,880,l),
(700,918,l),
(659,890,l),
(683,897,l),
(742,912,o),
(789,928,o),
(789,964,cs),
(789,989,o),
(755,1017,o),
(683,1017,cs),
(572,1017,o),
(585,947,o),
(584,958,c),
(639,958,l),
(639,955,o),
(636,986,o),
(686,986,cs),
(713,986,o),
(729,975,o),
(729,964,cs),
(729,949,o),
(711,938,o),
(674,926,cs),
(659,921,ls),
(648,917,o),
(637,912,o),
(634,901,cs),
(628,880,l)
);
}
);
width = 774;
},
{
anchors = (
{
name = bottom;
position = "{311, 0}";
},
{
name = center;
position = "{430, 371}";
},
{
name = ogonek;
position = "{639, 11}";
},
{
name = top;
position = "{495, 737}";
},
{
name = topleft;
position = "{167, 738}";
},
{
name = topright;
position = "{470, 750}";
}
);
layerId = "E9FAC699-F089-4894-B74F-1DA0D3D12BF3";
shapes = (
{
closed = 1;
nodes = (
(586,-10,o),
(734,240,o),
(734,455,cs),
(734,613,o),
(654,750,o),
(470,750,cs),
(220,750,o),
(71,500,o),
(71,285,cs),
(71,126,o),
(150,-10,o),
(336,-10,cs)
);
},
{
closed = 1;
nodes = (
(159,24,o),
(107,162,o),
(107,285,cs),
(107,462,o),
(225,716,o),
(470,716,cs),
(646,716,o),
(698,578,o),
(698,455,cs),
(698,277,o),
(580,24,o),
(336,24,cs)
);
},
{
closed = 1;
nodes = (
(432,808,l),
(541,876,l),
(609,808,l),
(645,808,l),
(560,898,l),
(523,898,l),
(386,808,l)
);
},
{
closed = 1;
nodes = (
(670,877,l),
(681,910,l),
(653,890,l),
(679,897,ls),
(737,913,o),
(769,931,o),
(769,958,cs),
(769,979,o),
(742,1001,o),
(689,1001,cs),
(597,1001,o),
(608,941,o),
(607,951,c),
(636,951,l),
(636,946,o),
(631,978,o),
(689,978,cs),
(719,978,o),
(739,970,o),
(739,958,cs),
(739,940,o),
(722,933,o),
(680,920,cs),
(667,916,ls),
(658,913,o),
(651,908,o),
(649,901,cs),
(642,877,l)
);
}
);
width = 773;
}
);
leftKerningGroup = O;
rightKerningGroup = O;
unicode = 7892;
},
{
glyphname = Ocircumflextilde;
layers = (
{
anchors = (
{
name = bottom;
position = "{350, 0}";
},
{
name = center;
position = "{452, 357}";
},
{
name = ogonek;
position = "{663, 11}";
},
{
name = top;
position = "{350, 1171}";
},
{
name = topleft;
position = "{195, 738}";
},
{
name = topright;
position = "{511, 750}";
}
);
layerId = "93E21930-75C2-41BF-8A43-E6E4C907605A";
shapes = (
{
closed = 1;
nodes = (
(665,-10,o),
(817,219,o),
(817,428,cs),
(817,597,o),
(717,750,o),
(493,750,cs),
(219,750,o),
(66,521,o),
(66,312,cs),
(66,143,o),
(166,-10,o),
(392,-10,cs)
);
},
{
closed = 1;
nodes = (
(303,161,o),
(259,233,o),
(259,318,cs),
(259,438,o),
(343,579,o),
(483,579,cs),
(582,579,o),
(626,507,o),
(626,422,cs),
(626,302,o),
(542,161,o),
(402,161,cs)
);
},
{
closed = 1;
nodes = (
(459,796,l),
(542,852,l),
(594,796,l),
(724,796,l),
(620,899,l),
(473,899,l),
(307,796,l)
);
},
{
closed = 1;
nodes = (
(730,921,o),
(752,972,o),
(767,1025,c),
(674,1025,l),
(666,1001,o),
(656,990,o),
(637,990,cs),
(603,990,o),
(570,1029,o),
(497,1029,cs),
(406,1029,o),
(387,979,o),
(372,925,c),
(465,925,l),
(470,947,o),
(481,960,o),
(499,960,cs),
(534,960,o),
(567,921,o),
(640,921,cs)
);
}
);
width = 824;
},
{
anchors = (
{
name = bottom;
position = "{313, 0}";
},
{
name = center;
position = "{410, 299}";
},
{
name = ogonek;
position = "{642, 11}";
},
{
name = top;
position = "{319, 1095}";
},
{
name = topleft;
position = "{173, 738}";
},
{
name = topright;
position = "{471, 750}";
}
);
layerId = "359D7F19-8117-4ED1-B668-DF5CE9F2FE65";
shapes = (
{
closed = 1;
nodes = (
(610,-10,o),
(759,232,o),
(759,445,cs),
(759,607,o),
(673,750,o),
(471,750,cs),
(210,750,o),
(59,509,o),
(59,295,cs),
(59,132,o),
(147,-10,o),
(349,-10,cs)
);
},
{
closed = 1;
nodes = (
(217,79,o),
(159,179,o),
(159,297,cs),
(159,464,o),
(273,662,o),
(466,662,cs),
(605,662,o),
(660,560,o),
(660,441,cs),
(660,276,o),
(548,79,o),
(353,79,cs)
);
},
{
closed = 1;
nodes = (
(422,807,l),
(514,868,l),
(573,807,l),
(652,807,l),
(559,903,l),
(478,903,l),
(329,807,l)
);
},
{
closed = 1;
nodes = (
(661,927,o),
(685,959,o),
(698,1013,c),
(636,1013,l),
(632,986,o),
(622,971,o),
(600,971,cs),
(563,971,o),
(537,1016,o),
(468,1016,cs),
(408,1016,o),
(383,985,o),
(370,931,c),
(432,931,l),
(437,959,o),
(450,974,o),
(470,974,cs),
(508,974,o),
(535,927,o),
(603,927,cs)
);
}
);
width = 774;
},
{
anchors = (
{
name = bottom;
position = "{311, 0}";
},
{
name = center;
position = "{430, 371}";
},
{
name = ogonek;
position = "{639, 11}";
},
{
name = top;
position = "{570, 737}";
},
{
name = topleft;
position = "{167, 738}";
},
{
name = topright;
position = "{470, 750}";
}
);
layerId = "E9FAC699-F089-4894-B74F-1DA0D3D12BF3";
shapes = (
{
closed = 1;
nodes = (
(586,-10,o),
(734,240,o),
(734,455,cs),
(734,613,o),
(654,750,o),
(470,750,cs),
(220,750,o),
(71,500,o),
(71,285,cs),
(71,126,o),
(150,-10,o),
(336,-10,cs)
);
},
{
closed = 1;
nodes = (
(159,24,o),
(107,162,o),
(107,285,cs),
(107,462,o),
(225,716,o),
(470,716,cs),
(646,716,o),
(698,578,o),
(698,455,cs),
(698,277,o),
(580,24,o),
(336,24,cs)
);
},
{
closed = 1;
nodes = (
(433,808,l),
(542,876,l),
(610,808,l),
(646,808,l),
(562,898,l),
(525,898,l),
(387,808,l)
);
},
{
closed = 1;
nodes = (
(654,924,o),
(678,955,o),
(688,992,c),
(656,992,l),
(649,960,o),
(635,948,o),
(611,948,cs),
(570,948,o),
(565,996,o),
(502,996,cs),
(455,996,o),
(428,967,o),
(420,927,c),
(452,927,l),
(456,956,o),
(472,972,o),
(498,972,cs),
(540,972,o),
(548,924,o),
(608,924,cs)
);
}
);
width = 773;
}
);
leftKerningGroup = O;
rightKerningGroup = O;
unicode = 7894;
},
{
glyphname = Odieresis;
layers = (
{
anchors = (
{
name = bottom;
position = "{350, 0}";
},
{
name = center;
position = "{452, 357}";
},
{
name = ogonek;
position = "{663, 11}";
},
{
name = top;
position = "{576, 980}";
},
{
name = topleft;
position = "{195, 738}";
},
{
name = topright;
position = "{511, 750}";
}
);
layerId = "93E21930-75C2-41BF-8A43-E6E4C907605A";
shapes = (
{
closed = 1;
nodes = (
(665,-10,o),
(817,219,o),
(817,428,cs),
(817,597,o),
(717,750,o),
(493,750,cs),
(219,750,o),
(66,521,o),
(66,312,cs),
(66,143,o),
(166,-10,o),
(392,-10,cs)
);
},
{
closed = 1;
nodes = (
(303,161,o),
(259,233,o),
(259,318,cs),
(259,438,o),
(343,579,o),
(483,579,cs),
(582,579,o),
(626,507,o),
(626,422,cs),
(626,302,o),
(542,161,o),
(402,161,cs)
);
},
{
closed = 1;
nodes = (
(732,785,o),
(775,829,o),
(775,882,cs),
(775,937,o),
(732,980,o),
(673,980,cs),
(613,980,o),
(571,937,o),
(571,882,cs),
(571,829,o),
(613,785,o),
(673,785,cs)
);
},
{
closed = 1;
nodes = (
(482,785,o),
(525,829,o),
(525,882,cs),
(525,937,o),
(482,980,o),
(423,980,cs),
(363,980,o),
(321,937,o),
(321,882,cs),
(321,829,o),
(363,785,o),
(423,785,cs)
);
}
);
width = 824;
},
{
anchors = (
{
name = bottom;
position = "{313, 0}";
},
{
name = center;
position = "{410, 299}";
},
{
name = ogonek;
position = "{642, 11}";
},
{
name = top;
position = "{540, 941}";
},
{
name = topleft;
position = "{173, 738}";
},
{
name = topright;
position = "{471, 750}";
}
);
layerId = "359D7F19-8117-4ED1-B668-DF5CE9F2FE65";
shapes = (
{
closed = 1;
nodes = (
(610,-10,o),
(759,232,o),
(759,445,cs),
(759,607,o),
(673,750,o),
(471,750,cs),
(210,750,o),
(59,509,o),
(59,295,cs),
(59,132,o),
(147,-10,o),
(349,-10,cs)
);
},
{
closed = 1;
nodes = (
(217,79,o),
(159,179,o),
(159,297,cs),
(159,464,o),
(273,662,o),
(466,662,cs),
(605,662,o),
(660,560,o),
(660,441,cs),
(660,276,o),
(548,79,o),
(353,79,cs)
);
},
{
closed = 1;
nodes = (
(653,818,o),
(680,845,o),
(680,879,cs),
(680,913,o),
(653,941,o),
(618,941,cs),
(582,941,o),
(556,913,o),
(556,879,cs),
(556,846,o),
(582,818,o),
(618,818,cs)
);
},
{
closed = 1;
nodes = (
(463,818,o),
(490,845,o),
(490,879,cs),
(490,913,o),
(463,941,o),
(428,941,cs),
(392,941,o),
(366,913,o),
(366,879,cs),
(366,846,o),
(392,818,o),
(428,818,cs)
);
}
);
width = 774;
},
{
anchors = (
{
name = bottom;
position = "{311, 0}";
},
{
name = center;
position = "{430, 371}";
},
{
name = ogonek;
position = "{639, 11}";
},
{
name = top;
position = "{543, 909}";
},
{
name = topleft;
position = "{167, 738}";
},
{
name = topright;
position = "{470, 750}";
}
);
layerId = "E9FAC699-F089-4894-B74F-1DA0D3D12BF3";
shapes = (
{
closed = 1;
nodes = (
(586,-10,o),
(734,240,o),
(734,455,cs),
(734,613,o),
(654,750,o),
(470,750,cs),
(220,750,o),
(71,500,o),
(71,285,cs),
(71,126,o),
(150,-10,o),
(336,-10,cs)
);
},
{
closed = 1;
nodes = (
(159,24,o),
(107,162,o),
(107,285,cs),
(107,462,o),
(225,716,o),
(470,716,cs),
(646,716,o),
(698,578,o),
(698,455,cs),
(698,277,o),
(580,24,o),
(336,24,cs)
);
},
{
closed = 1;
nodes = (
(622,837,o),
(638,853,o),
(638,873,cs),
(638,892,o),
(622,909,o),
(602,909,cs),
(582,909,o),
(567,892,o),
(567,873,cs),
(567,853,o),
(582,837,o),
(602,837,cs)
);
},
{
closed = 1;
nodes = (
(483,837,o),
(499,853,o),
(499,873,cs),
(499,892,o),
(483,909,o),
(463,909,cs),
(443,909,o),
(428,892,o),
(428,873,cs),
(428,853,o),
(443,837,o),
(463,837,cs)
);
}
);
width = 773;
}
);
leftKerningGroup = O;
rightKerningGroup = O;
unicode = 214;
},
{
glyphname = Odotbelow;
layers = (
{
anchors = (
{
name = bottom;
position = "{276, -256}";
},
{
name = center;
position = "{452, 357}";
},
{
name = ogonek;
position = "{663, 11}";
},
{
name = top;
position = "{507, 737}";
},
{
name = topleft;
position = "{195, 738}";
},
{
name = topright;
position = "{511, 750}";
}
);
layerId = "93E21930-75C2-41BF-8A43-E6E4C907605A";
shapes = (
{
closed = 1;
nodes = (
(665,-10,o),
(817,219,o),
(817,428,cs),
(817,597,o),
(717,750,o),
(493,750,cs),
(219,750,o),
(66,521,o),
(66,312,cs),
(66,143,o),
(166,-10,o),
(392,-10,cs)
);
},
{
closed = 1;
nodes = (
(303,161,o),
(259,233,o),
(259,318,cs),
(259,438,o),
(343,579,o),
(483,579,cs),
(582,579,o),
(626,507,o),
(626,422,cs),
(626,302,o),
(542,161,o),
(402,161,cs)
);
},
{
closed = 1;
nodes = (
(353,-260,o),
(391,-220,o),
(391,-171,cs),
(391,-121,o),
(353,-82,o),
(302,-82,cs),
(249,-82,o),
(213,-121,o),
(213,-171,cs),
(213,-220,o),
(249,-260,o),
(302,-260,cs)
);
}
);
width = 824;
},
{
anchors = (
{
name = bottom;
position = "{249, -219}";
},
{
name = center;
position = "{410, 299}";
},
{
name = ogonek;
position = "{642, 11}";
},
{
name = top;
position = "{482, 737}";
},
{
name = topleft;
position = "{173, 738}";
},
{
name = topright;
position = "{471, 750}";
}
);
layerId = "359D7F19-8117-4ED1-B668-DF5CE9F2FE65";
shapes = (
{
closed = 1;
nodes = (
(610,-10,o),
(759,232,o),
(759,445,cs),
(759,607,o),
(673,750,o),
(471,750,cs),
(210,750,o),
(59,509,o),
(59,295,cs),
(59,132,o),
(147,-10,o),
(349,-10,cs)
);
},
{
closed = 1;
nodes = (
(217,79,o),
(159,179,o),
(159,297,cs),
(159,464,o),
(273,662,o),
(466,662,cs),
(605,662,o),
(660,560,o),
(660,441,cs),
(660,276,o),
(548,79,o),
(353,79,cs)
);
},
{
closed = 1;
nodes = (
(305,-227,o),
(333,-198,o),
(333,-162,cs),
(333,-126,o),
(305,-97,o),
(268,-97,cs),
(230,-97,o),
(203,-126,o),
(203,-162,cs),
(203,-197,o),
(230,-227,o),
(268,-227,cs)
);
}
);
width = 774;
},
{
anchors = (
{
name = bottom;
position = "{257, -189}";
},
{
name = center;
position = "{430, 371}";
},
{
name = ogonek;
position = "{639, 11}";
},
{
name = top;
position = "{495, 737}";
},
{
name = topleft;
position = "{167, 738}";
},
{
name = topright;
position = "{470, 750}";
}
);
layerId = "E9FAC699-F089-4894-B74F-1DA0D3D12BF3";
shapes = (
{
closed = 1;
nodes = (
(586,-10,o),
(734,240,o),
(734,455,cs),
(734,613,o),
(654,750,o),
(470,750,cs),
(220,750,o),
(71,500,o),
(71,285,cs),
(71,126,o),
(150,-10,o),
(336,-10,cs)
);
},
{
closed = 1;
nodes = (
(159,24,o),
(107,162,o),
(107,285,cs),
(107,462,o),
(225,716,o),
(470,716,cs),
(646,716,o),
(698,578,o),
(698,455,cs),
(698,277,o),
(580,24,o),
(336,24,cs)
);
},
{
closed = 1;
nodes = (
(288,-192,o),
(305,-175,o),
(305,-154,cs),
(305,-134,o),
(288,-117,o),
(267,-117,cs),
(246,-117,o),
(230,-134,o),
(230,-154,cs),
(230,-175,o),
(246,-192,o),
(267,-192,cs)
);
}
);
width = 773;
}
);
leftKerningGroup = O;
rightKerningGroup = O;
unicode = 7884;
},
{
glyphname = Ograve;
layers = (
{
anchors = (
{
name = bottom;
position = "{350, 0}";
},
{
name = center;
position = "{452, 357}";
},
{
name = ogonek;
position = "{663, 11}";
},
{
name = top;
position = "{434, 1047}";
},
{
name = topleft;
position = "{195, 738}";
},
{
name = topright;
position = "{511, 750}";
}
);
layerId = "93E21930-75C2-41BF-8A43-E6E4C907605A";
shapes = (
{
closed = 1;
nodes = (
(665,-10,o),
(817,219,o),
(817,428,cs),
(817,597,o),
(717,750,o),
(493,750,cs),
(219,750,o),
(66,521,o),
(66,312,cs),
(66,143,o),
(166,-10,o),
(392,-10,cs)
);
},
{
closed = 1;
nodes = (
(303,161,o),
(259,233,o),
(259,318,cs),
(259,438,o),
(343,579,o),
(483,579,cs),
(582,579,o),
(626,507,o),
(626,422,cs),
(626,302,o),
(542,161,o),
(402,161,cs)
);
},
{
closed = 1;
nodes = (
(577,807,l),
(513,986,l),
(349,986,l),
(450,806,l)
);
}
);
width = 824;
},
{
anchors = (
{
name = bottom;
position = "{313, 0}";
},
{
name = center;
position = "{410, 299}";
},
{
name = ogonek;
position = "{642, 11}";
},
{
name = top;
position = "{429, 1006}";
},
{
name = topleft;
position = "{173, 738}";
},
{
name = topright;
position = "{471, 750}";
}
);
layerId = "359D7F19-8117-4ED1-B668-DF5CE9F2FE65";
shapes = (
{
closed = 1;
nodes = (
(610,-10,o),
(759,232,o),
(759,445,cs),
(759,607,o),
(673,750,o),
(471,750,cs),
(210,750,o),
(59,509,o),
(59,295,cs),
(59,132,o),
(147,-10,o),
(349,-10,cs)
);
},
{
closed = 1;
nodes = (
(217,79,o),
(159,179,o),
(159,297,cs),
(159,464,o),
(273,662,o),
(466,662,cs),
(605,662,o),
(660,560,o),
(660,441,cs),
(660,276,o),
(548,79,o),
(353,79,cs)
);
},
{
closed = 1;
nodes = (
(527,818,l),
(468,998,l),
(376,998,l),
(453,817,l)
);
}
);
width = 774;
},
{
anchors = (
{
name = bottom;
position = "{311, 0}";
},
{
name = center;
position = "{430, 371}";
},
{
name = ogonek;
position = "{639, 11}";
},
{
name = top;
position = "{511, 976}";
},
{
name = topleft;
position = "{167, 738}";
},
{
name = topright;
position = "{470, 750}";
}
);
layerId = "E9FAC699-F089-4894-B74F-1DA0D3D12BF3";
shapes = (
{
closed = 1;
nodes = (
(586,-10,o),
(734,240,o),
(734,455,cs),
(734,613,o),
(654,750,o),
(470,750,cs),
(220,750,o),
(71,500,o),
(71,285,cs),
(71,126,o),
(150,-10,o),
(336,-10,cs)
);
},
{
closed = 1;
nodes = (
(159,24,o),
(107,162,o),
(107,285,cs),
(107,462,o),
(225,716,o),
(470,716,cs),
(646,716,o),
(698,578,o),
(698,455,cs),
(698,277,o),
(580,24,o),
(336,24,cs)
);
},
{
closed = 1;
nodes = (
(527,825,l),
(484,977,l),
(450,977,l),
(499,825,l)
);
}
);
width = 773;
}
);
leftKerningGroup = O;
rightKerningGroup = O;
unicode = 210;
},
{
glyphname = Ohoi;
layers = (
{
anchors = (
{
name = bottom;
position = "{350, 0}";
},
{
name = center;
position = "{452, 357}";
},
{
name = ogonek;
position = "{663, 11}";
},
{
name = top;
position = "{592, 1034}";
},
{
name = topleft;
position = "{195, 738}";
},
{
name = topright;
position = "{511, 750}";
}
);
layerId = "93E21930-75C2-41BF-8A43-E6E4C907605A";
shapes = (
{
closed = 1;
nodes = (
(665,-10,o),
(817,219,o),
(817,428,cs),
(817,597,o),
(717,750,o),
(493,750,cs),
(219,750,o),
(66,521,o),
(66,312,cs),
(66,143,o),
(166,-10,o),
(392,-10,cs)
);
},
{
closed = 1;
nodes = (
(303,161,o),
(259,233,o),
(259,318,cs),
(259,438,o),
(343,579,o),
(483,579,cs),
(582,579,o),
(626,507,o),
(626,422,cs),
(626,302,o),
(542,161,o),
(402,161,cs)
);
},
{
closed = 1;
nodes = (
(568,792,l),
(590,863,l),
(534,798,l),
(583,822,l),
(608,833,o),
(702,866,o),
(702,943,cs),
(702,996,o),
(658,1043,o),
(576,1043,cs),
(409,1043,o),
(418,901,o),
(416,919,c),
(517,919,l),
(517,919,o),
(521,954,o),
(560,954,cs),
(580,954,o),
(590,942,o),
(590,927,cs),
(590,911,o),
(576,896,o),
(536,880,cs),
(517,872,l),
(491,860,o),
(481,843,o),
(476,825,cs),
(466,792,l)
);
}
);
width = 824;
},
{
anchors = (
{
name = bottom;
position = "{313, 0}";
},
{
name = center;
position = "{410, 299}";
},
{
name = ogonek;
position = "{642, 11}";
},
{
name = top;
position = "{561, 1012}";
},
{
name = topleft;
position = "{173, 738}";
},
{
name = topright;
position = "{471, 750}";
}
);
layerId = "359D7F19-8117-4ED1-B668-DF5CE9F2FE65";
shapes = (
{
closed = 1;
nodes = (
(610,-10,o),
(759,232,o),
(759,445,cs),
(759,607,o),
(673,750,o),
(471,750,cs),
(210,750,o),
(59,509,o),
(59,295,cs),
(59,132,o),
(147,-10,o),
(349,-10,cs)
);
},
{
closed = 1;
nodes = (
(217,79,o),
(159,179,o),
(159,297,cs),
(159,464,o),
(273,662,o),
(466,662,cs),
(605,662,o),
(660,560,o),
(660,441,cs),
(660,276,o),
(548,79,o),
(353,79,cs)
);
},
{
closed = 1;
nodes = (
(526,801,l),
(543,860,l),
(497,817,l),
(523,826,l),
(584,849,o),
(638,876,o),
(638,930,cs),
(638,969,o),
(612,1013,o),
(540,1013,cs),
(429,1013,o),
(432,905,o),
(432,921,c),
(487,921,l),
(487,917,o),
(488,964,o),
(539,964,cs),
(565,964,o),
(578,947,o),
(578,931,cs),
(578,907,o),
(557,888,o),
(517,871,c),
(502,864,l),
(491,860,o),
(478,850,o),
(475,834,c),
(465,801,l)
);
}
);
width = 774;
},
{
anchors = (
{
name = bottom;
position = "{311, 0}";
},
{
name = center;
position = "{430, 371}";
},
{
name = ogonek;
position = "{639, 11}";
},
{
name = top;
position = "{567, 1000}";
},
{
name = topleft;
position = "{167, 738}";
},
{
name = topright;
position = "{470, 750}";
}
);
layerId = "E9FAC699-F089-4894-B74F-1DA0D3D12BF3";
shapes = (
{
closed = 1;
nodes = (
(586,-10,o),
(734,240,o),
(734,455,cs),
(734,613,o),
(654,750,o),
(470,750,cs),
(220,750,o),
(71,500,o),
(71,285,cs),
(71,126,o),
(150,-10,o),
(336,-10,cs)
);
},
{
closed = 1;
nodes = (
(159,24,o),
(107,162,o),
(107,285,cs),
(107,462,o),
(225,716,o),
(470,716,cs),
(646,716,o),
(698,578,o),
(698,455,cs),
(698,277,o),
(580,24,o),
(336,24,cs)
);
},
{
closed = 1;
nodes = (
(518,811,l),
(533,862,l),
(501,832,l),
(529,843,ls),
(589,868,o),
(627,894,o),
(627,937,cs),
(627,968,o),
(607,1002,o),
(554,1002,cs),
(462,1002,o),
(464,909,o),
(464,925,c),
(493,925,l),
(493,917,o),
(494,974,o),
(552,974,cs),
(582,974,o),
(597,956,o),
(597,937,cs),
(597,910,o),
(575,888,o),
(532,871,c),
(518,865,ls),
(509,861,o),
(502,853,o),
(500,843,c),
(490,811,l)
);
}
);
width = 773;
}
);
leftKerningGroup = O;
rightKerningGroup = O;
unicode = 7886;
},
{
glyphname = Ohorn;
layers = (
{
anchors = (
{
name = bottom;
position = "{341, 0}";
},
{
name = center;
position = "{452, 357}";
},
{
name = ogonek;
position = "{663, 11}";
},
{
name = top;
position = "{511, 740}";
},
{
name = topleft;
position = "{195, 738}";
},
{
name = topright;
position = "{554, 750}";
}
);
layerId = "93E21930-75C2-41BF-8A43-E6E4C907605A";
shapes = (
{
closed = 1;
nodes = (
(665,-10,o),
(817,219,o),
(817,428,cs),
(817,597,o),
(717,750,o),
(493,750,cs),
(219,750,o),
(66,521,o),
(66,312,cs),
(66,143,o),
(166,-10,o),
(392,-10,cs)
);
},
{
closed = 1;
nodes = (
(303,161,o),
(259,233,o),
(259,318,cs),
(259,438,o),
(343,579,o),
(483,579,cs),
(582,579,o),
(626,507,o),
(626,422,cs),
(626,302,o),
(542,161,o),
(402,161,cs)
);
},
{
closed = 1;
nodes = (
(768,868,l),
(744,783,ls),
(737,760,o),
(721,750,o),
(697,750,cs),
(511,750,l),
(483,652,l),
(757,652,ls),
(836,652,o),
(873,692,o),
(894,753,c),
(925,868,l)
);
}
);
width = 824;
},
{
anchors = (
{
name = bottom;
position = "{313, 0}";
},
{
name = center;
position = "{410, 299}";
},
{
name = ogonek;
position = "{642, 11}";
},
{
name = top;
position = "{496, 740}";
},
{
name = topleft;
position = "{173, 738}";
},
{
name = topright;
position = "{507, 747}";
}
);
layerId = "359D7F19-8117-4ED1-B668-DF5CE9F2FE65";
shapes = (
{
closed = 1;
nodes = (
(610,-10,o),
(759,232,o),
(759,445,cs),
(759,607,o),
(673,750,o),
(471,750,cs),
(210,750,o),
(59,509,o),
(59,295,cs),
(59,132,o),
(147,-10,o),
(349,-10,cs)
);
},
{
closed = 1;
nodes = (
(217,79,o),
(159,179,o),
(159,297,cs),
(159,464,o),
(273,662,o),
(466,662,cs),
(605,662,o),
(660,560,o),
(660,441,cs),
(660,276,o),
(548,79,o),
(353,79,cs)
);
},
{
closed = 1;
nodes = (
(722,851,l),
(706,791,l),
(697,762,o),
(683,750,o),
(649,750,cs),
(473,750,l),
(456,688,l),
(683,688,ls),
(738,688,o),
(771,717,o),
(787,769,c),
(810,851,l)
);
}
);
width = 774;
},
{
anchors = (
{
name = bottom;
position = "{312, 0}";
},
{
name = center;
position = "{430, 371}";
},
{
name = ogonek;
position = "{639, 11}";
},
{
name = top;
position = "{495, 740}";
},
{
name = topleft;
position = "{167, 738}";
},
{
name = topright;
position = "{528, 745}";
}
);
layerId = "E9FAC699-F089-4894-B74F-1DA0D3D12BF3";
shapes = (
{
closed = 1;
nodes = (
(586,-10,o),
(734,240,o),
(734,455,cs),
(734,613,o),
(654,750,o),
(470,750,cs),
(220,750,o),
(71,500,o),
(71,285,cs),
(71,126,o),
(150,-10,o),
(336,-10,cs)
);
},
{
closed = 1;
nodes = (
(159,24,o),
(107,162,o),
(107,285,cs),
(107,462,o),
(225,716,o),
(470,716,cs),
(646,716,o),
(698,578,o),
(698,455,cs),
(698,277,o),
(580,24,o),
(336,24,cs)
);
},
{
closed = 1;
nodes = (
(705,840,l),
(698,808,l),
(687,767,o),
(666,750,o),
(621,750,cs),
(470,750,l),
(463,722,l),
(620,722,ls),
(682,722,o),
(716,749,o),
(731,808,c),
(738,840,l)
);
}
);
width = 773;
}
);
leftKerningGroup = O;
rightKerningGroup = O;
unicode = 416;
},
{
glyphname = Ohornacute;
layers = (
{
anchors = (
{
name = bottom;
position = "{341, 0}";
},
{
name = center;
position = "{452, 357}";
},
{
name = ogonek;
position = "{663, 11}";
},
{
name = top;
position = "{624, 982}";
},
{
name = topleft;
position = "{195, 738}";
},
{
name = topright;
position = "{554, 750}";
}
);
layerId = "93E21930-75C2-41BF-8A43-E6E4C907605A";
shapes = (
{
closed = 1;
nodes = (
(665,-10,o),
(817,219,o),
(817,428,cs),
(817,597,o),
(717,750,o),
(493,750,cs),
(219,750,o),
(66,521,o),
(66,312,cs),
(66,143,o),
(166,-10,o),
(392,-10,cs)
);
},
{
closed = 1;
nodes = (
(303,161,o),
(259,233,o),
(259,318,cs),
(259,438,o),
(343,579,o),
(483,579,cs),
(582,579,o),
(626,507,o),
(626,422,cs),
(626,302,o),
(542,161,o),
(402,161,cs)
);
},
{
closed = 1;
nodes = (
(768,868,l),
(744,783,ls),
(737,760,o),
(721,750,o),
(697,750,cs),
(511,750,l),
(483,652,l),
(757,652,ls),
(836,652,o),
(873,692,o),
(894,753,c),
(925,868,l)
);
},
{
closed = 1;
nodes = (
(724,989,l),
(554,989,l),
(477,810,l),
(610,809,l)
);
}
);
width = 824;
},
{
anchors = (
{
name = bottom;
position = "{313, 0}";
},
{
name = center;
position = "{410, 299}";
},
{
name = ogonek;
position = "{642, 11}";
},
{
name = top;
position = "{609, 1005}";
},
{
name = topleft;
position = "{173, 738}";
},
{
name = topright;
position = "{507, 747}";
}
);
layerId = "359D7F19-8117-4ED1-B668-DF5CE9F2FE65";
shapes = (
{
closed = 1;
nodes = (
(610,-10,o),
(759,232,o),
(759,445,cs),
(759,607,o),
(673,750,o),
(471,750,cs),
(210,750,o),
(59,509,o),
(59,295,cs),
(59,132,o),
(147,-10,o),
(349,-10,cs)
);
},
{
closed = 1;
nodes = (
(217,79,o),
(159,179,o),
(159,297,cs),
(159,464,o),
(273,662,o),
(466,662,cs),
(605,662,o),
(660,560,o),
(660,441,cs),
(660,276,o),
(548,79,o),
(353,79,cs)
);
},
{
closed = 1;
nodes = (
(722,851,l),
(706,791,l),
(697,762,o),
(683,750,o),
(649,750,cs),
(473,750,l),
(456,688,l),
(683,688,ls),
(738,688,o),
(771,717,o),
(787,769,c),
(810,851,l)
);
},
{
closed = 1;
nodes = (
(679,1001,l),
(585,1001,l),
(489,821,l),
(566,820,l)
);
}
);
width = 774;
},
{
anchors = (
{
name = bottom;
position = "{312, 0}";
},
{
name = center;
position = "{430, 371}";
},
{
name = ogonek;
position = "{639, 11}";
},
{
name = top;
position = "{588, 980}";
},
{
name = topleft;
position = "{167, 738}";
},
{
name = topright;
position = "{528, 745}";
}
);
layerId = "E9FAC699-F089-4894-B74F-1DA0D3D12BF3";
shapes = (
{
closed = 1;
nodes = (
(586,-10,o),
(734,240,o),
(734,455,cs),
(734,613,o),
(654,750,o),
(470,750,cs),
(220,750,o),
(71,500,o),
(71,285,cs),
(71,126,o),
(150,-10,o),
(336,-10,cs)
);
},
{
closed = 1;
nodes = (
(159,24,o),
(107,162,o),
(107,285,cs),
(107,462,o),
(225,716,o),
(470,716,cs),
(646,716,o),
(698,578,o),
(698,455,cs),
(698,277,o),
(580,24,o),
(336,24,cs)
);
},
{
closed = 1;
nodes = (
(705,840,l),
(698,808,l),
(687,767,o),
(666,750,o),
(621,750,cs),
(470,750,l),
(463,722,l),
(620,722,ls),
(682,722,o),
(716,749,o),
(731,808,c),
(738,840,l)
);
},
{
closed = 1;
nodes = (
(603,980,l),
(568,980,l),
(499,828,l),
(527,828,l)
);
}
);
width = 773;
}
);
leftKerningGroup = O;
rightKerningGroup = O;
unicode = 7898;
},
{
glyphname = Ohorndotbelow;
layers = (
{
anchors = (
{
name = bottom;
position = "{267, -256}";
},
{
name = center;
position = "{452, 357}";
},
{
name = ogonek;
position = "{663, 11}";
},
{
name = top;
position = "{511, 740}";
},
{
name = topleft;
position = "{195, 738}";
},
{
name = topright;
position = "{554, 750}";
}
);
layerId = "93E21930-75C2-41BF-8A43-E6E4C907605A";
shapes = (
{
closed = 1;
nodes = (
(665,-10,o),
(817,219,o),
(817,428,cs),
(817,597,o),
(717,750,o),
(493,750,cs),
(219,750,o),
(66,521,o),
(66,312,cs),
(66,143,o),
(166,-10,o),
(392,-10,cs)
);
},
{
closed = 1;
nodes = (
(303,161,o),
(259,233,o),
(259,318,cs),
(259,438,o),
(343,579,o),
(483,579,cs),
(582,579,o),
(626,507,o),
(626,422,cs),
(626,302,o),
(542,161,o),
(402,161,cs)
);
},
{
closed = 1;
nodes = (
(768,868,l),
(744,783,ls),
(737,760,o),
(721,750,o),
(697,750,cs),
(511,750,l),
(483,652,l),
(757,652,ls),
(836,652,o),
(873,692,o),
(894,753,c),
(925,868,l)
);
},
{
closed = 1;
nodes = (
(344,-260,o),
(382,-220,o),
(382,-171,cs),
(382,-121,o),
(344,-82,o),
(293,-82,cs),
(240,-82,o),
(204,-121,o),
(204,-171,cs),
(204,-220,o),
(240,-260,o),
(293,-260,cs)
);
}
);
width = 824;
},
{
anchors = (
{
name = bottom;
position = "{249, -219}";
},
{
name = center;
position = "{410, 299}";
},
{
name = ogonek;
position = "{642, 11}";
},
{
name = top;
position = "{496, 740}";
},
{
name = topleft;
position = "{173, 738}";
},
{
name = topright;
position = "{507, 747}";
}
);
layerId = "359D7F19-8117-4ED1-B668-DF5CE9F2FE65";
shapes = (
{
closed = 1;
nodes = (
(610,-10,o),
(759,232,o),
(759,445,cs),
(759,607,o),
(673,750,o),
(471,750,cs),
(210,750,o),
(59,509,o),
(59,295,cs),
(59,132,o),
(147,-10,o),
(349,-10,cs)
);
},
{
closed = 1;
nodes = (
(217,79,o),
(159,179,o),
(159,297,cs),
(159,464,o),
(273,662,o),
(466,662,cs),
(605,662,o),
(660,560,o),
(660,441,cs),
(660,276,o),
(548,79,o),
(353,79,cs)
);
},
{
closed = 1;
nodes = (
(722,851,l),
(706,791,l),
(697,762,o),
(683,750,o),
(649,750,cs),
(473,750,l),
(456,688,l),
(683,688,ls),
(738,688,o),
(771,717,o),
(787,769,c),
(810,851,l)
);
},
{
closed = 1;
nodes = (
(305,-227,o),
(333,-198,o),
(333,-162,cs),
(333,-126,o),
(305,-97,o),
(268,-97,cs),
(230,-97,o),
(203,-126,o),
(203,-162,cs),
(203,-197,o),
(230,-227,o),
(268,-227,cs)
);
}
);
width = 774;
},
{
anchors = (
{
name = bottom;
position = "{258, -189}";
},
{
name = center;
position = "{430, 371}";
},
{
name = ogonek;
position = "{639, 11}";
},
{
name = top;
position = "{495, 740}";
},
{
name = topleft;
position = "{167, 738}";
},
{
name = topright;
position = "{528, 745}";
}
);
layerId = "E9FAC699-F089-4894-B74F-1DA0D3D12BF3";
shapes = (
{
closed = 1;
nodes = (
(586,-10,o),
(734,240,o),
(734,455,cs),
(734,613,o),
(654,750,o),
(470,750,cs),
(220,750,o),
(71,500,o),
(71,285,cs),
(71,126,o),
(150,-10,o),
(336,-10,cs)
);
},
{
closed = 1;
nodes = (
(159,24,o),
(107,162,o),
(107,285,cs),
(107,462,o),
(225,716,o),
(470,716,cs),
(646,716,o),
(698,578,o),
(698,455,cs),
(698,277,o),
(580,24,o),
(336,24,cs)
);
},
{
closed = 1;
nodes = (
(705,840,l),
(698,808,l),
(687,767,o),
(666,750,o),
(621,750,cs),
(470,750,l),
(463,722,l),
(620,722,ls),
(682,722,o),
(716,749,o),
(731,808,c),
(738,840,l)
);
},
{
closed = 1;
nodes = (
(290,-192,o),
(307,-175,o),
(307,-154,cs),
(307,-134,o),
(290,-117,o),
(269,-117,cs),
(248,-117,o),
(232,-134,o),
(232,-154,cs),
(232,-175,o),
(248,-192,o),
(269,-192,cs)
);
}
);
width = 773;
}
);
leftKerningGroup = O;
rightKerningGroup = O;
unicode = 7906;
},
{
glyphname = Ohorngrave;
layers = (
{
anchors = (
{
name = bottom;
position = "{341, 0}";
},
{
name = center;
position = "{452, 357}";
},
{
name = ogonek;
position = "{663, 11}";
},
{
name = top;
position = "{437, 1050}";
},
{
name = topleft;
position = "{195, 738}";
},
{
name = topright;
position = "{554, 750}";
}
);
layerId = "93E21930-75C2-41BF-8A43-E6E4C907605A";
shapes = (
{
closed = 1;
nodes = (
(665,-10,o),
(817,219,o),
(817,428,cs),
(817,597,o),
(717,750,o),
(493,750,cs),
(219,750,o),
(66,521,o),
(66,312,cs),
(66,143,o),
(166,-10,o),
(392,-10,cs)
);
},
{
closed = 1;
nodes = (
(303,161,o),
(259,233,o),
(259,318,cs),
(259,438,o),
(343,579,o),
(483,579,cs),
(582,579,o),
(626,507,o),
(626,422,cs),
(626,302,o),
(542,161,o),
(402,161,cs)
);
},
{
closed = 1;
nodes = (
(768,868,l),
(744,783,ls),
(737,760,o),
(721,750,o),
(697,750,cs),
(511,750,l),
(483,652,l),
(757,652,ls),
(836,652,o),
(873,692,o),
(894,753,c),
(925,868,l)
);
},
{
closed = 1;
nodes = (
(580,810,l),
(517,989,l),
(353,989,l),
(453,809,l)
);
}
);
width = 824;
},
{
anchors = (
{
name = bottom;
position = "{313, 0}";
},
{
name = center;
position = "{410, 299}";
},
{
name = ogonek;
position = "{642, 11}";
},
{
name = top;
position = "{443, 1009}";
},
{
name = topleft;
position = "{173, 738}";
},
{
name = topright;
position = "{507, 747}";
}
);
layerId = "359D7F19-8117-4ED1-B668-DF5CE9F2FE65";
shapes = (
{
closed = 1;
nodes = (
(610,-10,o),
(759,232,o),
(759,445,cs),
(759,607,o),
(673,750,o),
(471,750,cs),
(210,750,o),
(59,509,o),
(59,295,cs),
(59,132,o),
(147,-10,o),
(349,-10,cs)
);
},
{
closed = 1;
nodes = (
(217,79,o),
(159,179,o),
(159,297,cs),
(159,464,o),
(273,662,o),
(466,662,cs),
(605,662,o),
(660,560,o),
(660,441,cs),
(660,276,o),
(548,79,o),
(353,79,cs)
);
},
{
closed = 1;
nodes = (
(722,851,l),
(706,791,l),
(697,762,o),
(683,750,o),
(649,750,cs),
(473,750,l),
(456,688,l),
(683,688,ls),
(738,688,o),
(771,717,o),
(787,769,c),
(810,851,l)
);
},
{
closed = 1;
nodes = (
(541,821,l),
(482,1001,l),
(390,1001,l),
(467,820,l)
);
}
);
width = 774;
},
{
anchors = (
{
name = bottom;
position = "{312, 0}";
},
{
name = center;
position = "{430, 371}";
},
{
name = ogonek;
position = "{639, 11}";
},
{
name = top;
position = "{511, 980}";
},
{
name = topleft;
position = "{167, 738}";
},
{
name = topright;
position = "{528, 745}";
}
);
layerId = "E9FAC699-F089-4894-B74F-1DA0D3D12BF3";
shapes = (
{
closed = 1;
nodes = (
(586,-10,o),
(734,240,o),
(734,455,cs),
(734,613,o),
(654,750,o),
(470,750,cs),
(220,750,o),
(71,500,o),
(71,285,cs),
(71,126,o),
(150,-10,o),
(336,-10,cs)
);
},
{
closed = 1;
nodes = (
(159,24,o),
(107,162,o),
(107,285,cs),
(107,462,o),
(225,716,o),
(470,716,cs),
(646,716,o),
(698,578,o),
(698,455,cs),
(698,277,o),
(580,24,o),
(336,24,cs)
);
},
{
closed = 1;
nodes = (
(705,840,l),
(698,808,l),
(687,767,o),
(666,750,o),
(621,750,cs),
(470,750,l),
(463,722,l),
(620,722,ls),
(682,722,o),
(716,749,o),
(731,808,c),
(738,840,l)
);
},
{
closed = 1;
nodes = (
(528,828,l),
(486,980,l),
(451,980,l),
(500,828,l)
);
}
);
width = 773;
}
);
leftKerningGroup = O;
rightKerningGroup = O;
unicode = 7900;
},
{
glyphname = Ohornhoi;
layers = (
{
anchors = (
{
name = bottom;
position = "{341, 0}";
},
{
name = center;
position = "{452, 357}";
},
{
name = ogonek;
position = "{663, 11}";
},
{
name = top;
position = "{596, 1038}";
},
{
name = topleft;
position = "{195, 738}";
},
{
name = topright;
position = "{554, 750}";
}
);
layerId = "93E21930-75C2-41BF-8A43-E6E4C907605A";
shapes = (
{
closed = 1;
nodes = (
(665,-10,o),
(817,219,o),
(817,428,cs),
(817,597,o),
(717,750,o),
(493,750,cs),
(219,750,o),
(66,521,o),
(66,312,cs),
(66,143,o),
(166,-10,o),
(392,-10,cs)
);
},
{
closed = 1;
nodes = (
(303,161,o),
(259,233,o),
(259,318,cs),
(259,438,o),
(343,579,o),
(483,579,cs),
(582,579,o),
(626,507,o),
(626,422,cs),
(626,302,o),
(542,161,o),
(402,161,cs)
);
},
{
closed = 1;
nodes = (
(768,868,l),
(744,783,ls),
(737,760,o),
(721,750,o),
(697,750,cs),
(511,750,l),
(483,652,l),
(757,652,ls),
(836,652,o),
(873,692,o),
(894,753,c),
(925,868,l)
);
},
{
closed = 1;
nodes = (
(572,795,l),
(594,866,l),
(536,801,l),
(586,825,ls),
(612,837,o),
(706,868,o),
(706,947,cs),
(706,998,o),
(660,1046,o),
(580,1046,cs),
(413,1046,o),
(420,905,o),
(420,923,c),
(521,923,l),
(521,923,o),
(523,957,o),
(563,957,cs),
(583,957,o),
(594,945,o),
(594,931,cs),
(594,915,o),
(579,900,o),
(539,883,cs),
(521,875,ls),
(495,864,o),
(484,847,o),
(479,828,cs),
(470,795,l)
);
}
);
width = 824;
},
{
anchors = (
{
name = bottom;
position = "{313, 0}";
},
{
name = center;
position = "{410, 299}";
},
{
name = ogonek;
position = "{642, 11}";
},
{
name = top;
position = "{574, 1016}";
},
{
name = topleft;
position = "{173, 738}";
},
{
name = topright;
position = "{507, 747}";
}
);
layerId = "359D7F19-8117-4ED1-B668-DF5CE9F2FE65";
shapes = (
{
closed = 1;
nodes = (
(610,-10,o),
(759,232,o),
(759,445,cs),
(759,607,o),
(673,750,o),
(471,750,cs),
(210,750,o),
(59,509,o),
(59,295,cs),
(59,132,o),
(147,-10,o),
(349,-10,cs)
);
},
{
closed = 1;
nodes = (
(217,79,o),
(159,179,o),
(159,297,cs),
(159,464,o),
(273,662,o),
(466,662,cs),
(605,662,o),
(660,560,o),
(660,441,cs),
(660,276,o),
(548,79,o),
(353,79,cs)
);
},
{
closed = 1;
nodes = (
(722,851,l),
(706,791,l),
(697,762,o),
(683,750,o),
(649,750,cs),
(473,750,l),
(456,688,l),
(683,688,ls),
(738,688,o),
(771,717,o),
(787,769,c),
(810,851,l)
);
},
{
closed = 1;
nodes = (
(540,803,l),
(557,862,l),
(511,821,l),
(535,829,l),
(597,853,o),
(652,880,o),
(652,934,cs),
(652,972,o),
(625,1017,o),
(554,1017,cs),
(441,1017,o),
(445,907,o),
(445,923,c),
(500,923,l),
(500,921,o),
(501,966,o),
(551,966,cs),
(579,966,o),
(592,951,o),
(592,934,cs),
(592,909,o),
(570,892,o),
(531,875,cs),
(516,868,ls),
(503,862,o),
(492,853,o),
(488,838,cs),
(478,803,l)
);
}
);
width = 774;
},
{
anchors = (
{
name = bottom;
position = "{312, 0}";
},
{
name = center;
position = "{430, 371}";
},
{
name = ogonek;
position = "{639, 11}";
},
{
name = top;
position = "{568, 1002}";
},
{
name = topleft;
position = "{167, 738}";
},
{
name = topright;
position = "{528, 745}";
}
);
layerId = "E9FAC699-F089-4894-B74F-1DA0D3D12BF3";
shapes = (
{
closed = 1;
nodes = (
(586,-10,o),
(734,240,o),
(734,455,cs),
(734,613,o),
(654,750,o),
(470,750,cs),
(220,750,o),
(71,500,o),
(71,285,cs),
(71,126,o),
(150,-10,o),
(336,-10,cs)
);
},
{
closed = 1;
nodes = (
(159,24,o),
(107,162,o),
(107,285,cs),
(107,462,o),
(225,716,o),
(470,716,cs),
(646,716,o),
(698,578,o),
(698,455,cs),
(698,277,o),
(580,24,o),
(336,24,cs)
);
},
{
closed = 1;
nodes = (
(705,840,l),
(698,808,l),
(687,767,o),
(666,750,o),
(621,750,cs),
(470,750,l),
(463,722,l),
(620,722,ls),
(682,722,o),
(716,749,o),
(731,808,c),
(738,840,l)
);
},
{
closed = 1;
nodes = (
(519,814,l),
(533,865,l),
(503,836,l),
(529,847,ls),
(589,872,o),
(627,898,o),
(627,939,cs),
(627,971,o),
(607,1005,o),
(555,1005,cs),
(462,1005,o),
(464,912,o),
(464,928,c),
(493,928,l),
(493,920,o),
(494,977,o),
(552,977,cs),
(583,977,o),
(597,958,o),
(597,939,cs),
(597,912,o),
(576,892,o),
(533,874,cs),
(518,868,ls),
(509,864,o),
(503,856,o),
(500,846,cs),
(491,814,l)
);
}
);
width = 773;
}
);
leftKerningGroup = O;
rightKerningGroup = O;
unicode = 7902;
},
{
glyphname = Ohorntilde;
layers = (
{
anchors = (
{
name = bottom;
position = "{341, 0}";
},
{
name = center;
position = "{452, 357}";
},
{
name = ogonek;
position = "{663, 11}";
},
{
name = top;
position = "{577, 972}";
},
{
name = topleft;
position = "{195, 738}";
},
{
name = topright;
position = "{554, 750}";
}
);
layerId = "93E21930-75C2-41BF-8A43-E6E4C907605A";
shapes = (
{
closed = 1;
nodes = (
(665,-10,o),
(817,219,o),
(817,428,cs),
(817,597,o),
(717,750,o),
(493,750,cs),
(219,750,o),
(66,521,o),
(66,312,cs),
(66,143,o),
(166,-10,o),
(392,-10,cs)
);
},
{
closed = 1;
nodes = (
(303,161,o),
(259,233,o),
(259,318,cs),
(259,438,o),
(343,579,o),
(483,579,cs),
(582,579,o),
(626,507,o),
(626,422,cs),
(626,302,o),
(542,161,o),
(402,161,cs)
);
},
{
closed = 1;
nodes = (
(768,868,l),
(744,783,ls),
(737,760,o),
(721,750,o),
(697,750,cs),
(511,750,l),
(483,652,l),
(757,652,ls),
(836,652,o),
(873,692,o),
(894,753,c),
(925,868,l)
);
},
{
closed = 1;
nodes = (
(716,822,o),
(744,899,o),
(766,981,c),
(673,981,l),
(662,946,o),
(651,928,o),
(632,928,cs),
(598,928,o),
(570,987,o),
(497,987,cs),
(406,987,o),
(380,911,o),
(357,828,c),
(450,828,l),
(459,862,o),
(472,881,o),
(490,881,cs),
(525,881,o),
(553,822,o),
(626,822,cs)
);
}
);
width = 824;
},
{
anchors = (
{
name = bottom;
position = "{313, 0}";
},
{
name = center;
position = "{410, 299}";
},
{
name = ogonek;
position = "{642, 11}";
},
{
name = top;
position = "{560, 964}";
},
{
name = topleft;
position = "{173, 738}";
},
{
name = topright;
position = "{507, 747}";
}
);
layerId = "359D7F19-8117-4ED1-B668-DF5CE9F2FE65";
shapes = (
{
closed = 1;
nodes = (
(610,-10,o),
(759,232,o),
(759,445,cs),
(759,607,o),
(673,750,o),
(471,750,cs),
(210,750,o),
(59,509,o),
(59,295,cs),
(59,132,o),
(147,-10,o),
(349,-10,cs)
);
},
{
closed = 1;
nodes = (
(217,79,o),
(159,179,o),
(159,297,cs),
(159,464,o),
(273,662,o),
(466,662,cs),
(605,662,o),
(660,560,o),
(660,441,cs),
(660,276,o),
(548,79,o),
(353,79,cs)
);
},
{
closed = 1;
nodes = (
(722,851,l),
(706,791,l),
(697,762,o),
(683,750,o),
(649,750,cs),
(473,750,l),
(456,688,l),
(683,688,ls),
(738,688,o),
(771,717,o),
(787,769,c),
(810,851,l)
);
},
{
closed = 1;
nodes = (
(662,826,o),
(692,875,o),
(712,958,c),
(650,958,l),
(640,916,o),
(629,893,o),
(607,893,cs),
(570,893,o),
(551,963,o),
(480,963,cs),
(422,963,o),
(393,915,o),
(372,832,c),
(433,832,l),
(443,874,o),
(457,898,o),
(478,898,cs),
(516,898,o),
(536,826,o),
(604,826,cs)
);
}
);
width = 774;
},
{
anchors = (
{
name = bottom;
position = "{312, 0}";
},
{
name = center;
position = "{430, 371}";
},
{
name = ogonek;
position = "{639, 11}";
},
{
name = top;
position = "{549, 935}";
},
{
name = topleft;
position = "{167, 738}";
},
{
name = topright;
position = "{528, 745}";
}
);
layerId = "E9FAC699-F089-4894-B74F-1DA0D3D12BF3";
shapes = (
{
closed = 1;
nodes = (
(586,-10,o),
(734,240,o),
(734,455,cs),
(734,613,o),
(654,750,o),
(470,750,cs),
(220,750,o),
(71,500,o),
(71,285,cs),
(71,126,o),
(150,-10,o),
(336,-10,cs)
);
},
{
closed = 1;
nodes = (
(159,24,o),
(107,162,o),
(107,285,cs),
(107,462,o),
(225,716,o),
(470,716,cs),
(646,716,o),
(698,578,o),
(698,455,cs),
(698,277,o),
(580,24,o),
(336,24,cs)
);
},
{
closed = 1;
nodes = (
(705,840,l),
(698,808,l),
(687,767,o),
(666,750,o),
(621,750,cs),
(470,750,l),
(463,722,l),
(620,722,ls),
(682,722,o),
(716,749,o),
(731,808,c),
(738,840,l)
);
},
{
closed = 1;
nodes = (
(632,831,o),
(660,878,o),
(674,936,c),
(643,936,l),
(632,887,o),
(613,860,o),
(590,860,cs),
(548,860,o),
(552,941,o),
(489,941,cs),
(442,941,o),
(412,898,o),
(397,836,c),
(428,836,l),
(438,880,o),
(459,912,o),
(485,912,cs),
(527,912,o),
(526,831,o),
(586,831,cs)
);
}
);
width = 773;
}
);
leftKerningGroup = O;
rightKerningGroup = O;
unicode = 7904;
},
